<svg width="92" height="92" viewBox="0 0 92 92" fill="none" xmlns="http://www.w3.org/2000/svg">
<circle cx="46" cy="46" r="46" fill="#C4C4C4"/>
<circle cx="46" cy="46" r="46" fill="url(#paint0_linear_969_1680)"/>
<path d="M64.0627 66.0571L63.6657 64.9651L63.4029 64.2304L63.3887 64.1968V64.1833L46.4782 17.3657C46.4714 17.3522 46.4714 17.3388 46.4647 17.332C46.458 17.3253 46.4573 17.3185 46.4573 17.3118H46.4505C46.4445 17.2983 46.4445 17.2983 46.4445 17.2916C46.4449 17.2879 46.4445 17.2842 46.4434 17.2807C46.4422 17.2772 46.4403 17.274 46.4378 17.2714V17.2646C46.4331 17.2564 46.4307 17.2471 46.431 17.2376L46.4243 17.2309L45.6289 15.0269L62.9985 32.3964C67.4204 36.8212 69.9915 42.7638 70.1892 49.0162C70.3869 55.2686 68.1963 61.3618 64.0627 66.0571Z" fill="url(#paint1_linear_969_1680)"/>
<path d="M45.5741 15.0269L44.7794 17.2309C44.7732 17.2438 44.7685 17.2574 44.7653 17.2714C44.7649 17.2764 44.7627 17.2812 44.7592 17.2848C44.7595 17.2943 44.7572 17.3036 44.7525 17.3118H44.7457L44.7316 17.3657H44.7248L27.848 64.0957C27.8386 64.1233 27.8274 64.1504 27.8143 64.1766C27.8086 64.1897 27.8039 64.2032 27.8002 64.217V64.2238L27.7941 64.2304L27.1403 66.0504C24.7475 63.3338 22.9837 60.1227 21.9747 56.646C20.9658 53.1694 20.7365 49.513 21.3033 45.9375V45.924C21.3093 45.9173 21.3093 45.9173 21.3093 45.9105C22.1186 40.7892 24.5333 36.0571 28.2052 32.3964L45.5546 15.0471L45.5741 15.0269Z" fill="url(#paint2_linear_969_1680)"/>
<path d="M45.5741 15.0269L44.7794 17.2309C44.7732 17.2438 44.7685 17.2574 44.7653 17.2714C44.7649 17.2764 44.7627 17.2812 44.7592 17.2848C44.7595 17.2943 44.7572 17.3036 44.7525 17.3118H44.7457L44.7316 17.3657H44.7248L27.848 64.0957C27.8386 64.1233 27.8274 64.1504 27.8143 64.1766C27.8086 64.1897 27.8039 64.2032 27.8002 64.217V64.2238L27.7941 64.2304L27.1403 66.0504C24.7475 63.3338 22.9837 60.1227 21.9747 56.646C20.9658 53.1694 20.7365 49.513 21.3033 45.9375V45.924C21.3093 45.9173 21.3093 45.9173 21.3093 45.9105C22.1186 40.7892 24.5333 36.0571 28.2052 32.3964L45.5546 15.0471L45.5741 15.0269Z" fill="url(#paint3_linear_969_1680)"/>
<path d="M64.0622 66.0572C63.7185 66.4414 63.3687 66.8188 62.998 67.1895C60.7154 69.4768 58.0036 71.2906 55.0183 72.5271C52.0329 73.7636 48.8328 74.3983 45.6014 74.3948V15L45.6284 15.0269L46.4237 17.231L46.4305 17.2377C46.4302 17.2472 46.4325 17.2565 46.4372 17.2647V17.2715C46.4398 17.2741 46.4417 17.2773 46.4429 17.2808C46.444 17.2843 46.4444 17.288 46.444 17.2917C46.444 17.2984 46.444 17.2984 46.45 17.3119L46.4642 17.3321C46.4709 17.3388 46.4709 17.3523 46.4777 17.3658L63.3882 64.1834V64.1969L63.4024 64.2306L63.6652 64.9653L64.0622 66.0572Z" fill="url(#paint4_linear_969_1680)"/>
<path d="M45.6021 15V74.3948C42.3704 74.401 39.1694 73.7675 36.1837 72.5309C33.198 71.2943 30.4865 69.4789 28.2056 67.1895C27.8342 66.8188 27.4844 66.4414 27.1406 66.0572V66.0504L27.7945 64.2306L27.8005 64.2238V64.2171C27.8042 64.2033 27.809 64.1898 27.8147 64.1767C27.8277 64.1505 27.8389 64.1235 27.8484 64.0958L44.7252 17.3658H44.732C44.741 17.3487 44.748 17.3306 44.7529 17.3119C44.7575 17.3037 44.7599 17.2944 44.7596 17.2849C44.763 17.2813 44.7652 17.2765 44.7657 17.2715C44.7688 17.2575 44.7735 17.2439 44.7798 17.231L45.5745 15.0269L45.6021 15Z" fill="url(#paint5_linear_969_1680)"/>
<g style="mix-blend-mode:overlay">
<g style="mix-blend-mode:overlay">
<path d="M44.7665 17.2687C44.7587 17.3013 44.7475 17.333 44.7328 17.3631C44.6519 17.6394 44.4504 18.3067 44.1464 19.2841C43.7291 20.5849 43.1562 22.452 42.4141 24.6763C41.6869 26.9073 40.81 29.4955 39.8528 32.259C39.3675 33.6408 38.8681 35.0697 38.3626 36.5188C37.8443 37.968 37.3178 39.4373 36.7928 40.9135C35.7204 43.8454 34.6555 46.7774 33.6181 49.514C32.5808 52.2505 31.6028 54.805 30.7394 56.9889C29.876 59.1727 29.1352 60.9724 28.6236 62.2395C28.2327 63.1899 27.9624 63.8302 27.8485 64.0931L44.7254 17.3631C44.7359 17.3303 44.7496 17.2987 44.7665 17.2687Z" fill="white"/>
</g>
</g>
<g style="mix-blend-mode:overlay">
<g style="mix-blend-mode:overlay">
<path d="M63.3885 64.1902C63.315 64.0284 63.0252 63.3409 62.5736 62.2423C62.0681 60.9751 61.3132 59.1755 60.4572 56.9917C59.6012 54.8078 58.6171 52.26 57.5858 49.5167C56.5546 46.7735 55.4755 43.8482 54.4044 40.9162C53.8787 39.4401 53.353 37.9707 52.8407 36.5216C52.3285 35.0725 51.8297 33.6435 51.3511 32.2618C50.3873 29.4983 49.5178 26.91 48.7831 24.679C48.0484 22.448 47.4755 20.5877 47.0502 19.2869C46.7273 18.2219 46.5184 17.5344 46.4503 17.312C46.4442 17.2918 46.4375 17.285 46.4375 17.2715C46.4544 17.3014 46.468 17.3331 46.4779 17.3659L63.3885 64.1902Z" fill="white"/>
</g>
</g>
<g style="mix-blend-mode:overlay">
<g style="mix-blend-mode:overlay">
<path d="M46.1418 44.5154C46.1209 48.0338 46.1141 51.5454 46.0676 54.8481C46.0211 58.1508 45.9328 61.2244 45.8856 63.8598C45.8384 66.4952 45.7239 68.6993 45.6834 70.2361C45.649 71.0044 45.6228 71.6111 45.6025 72.0222V16.9991C45.6228 16.5947 45.6295 16.3723 45.6295 16.3723C45.6295 16.3723 45.6625 17.2485 45.7306 18.7853C45.771 20.3288 45.8789 22.5261 45.9261 25.1615C45.9733 27.7969 46.0541 30.8772 46.0878 34.1799C46.1013 35.8245 46.1141 37.5298 46.1283 39.2621C46.1283 40.9943 46.135 42.7562 46.1418 44.5154Z" fill="white"/>
</g>
</g>
<g style="mix-blend-mode:screen" opacity="0.4">
<g style="mix-blend-mode:screen" opacity="0.4">
<path d="M45.5535 15.0444C45.3783 15.2803 43.888 17.2081 41.5566 19.857C40.9426 20.5647 40.2685 21.3263 39.5406 22.1217C38.8126 22.917 38.0577 23.7595 37.2489 24.6021C36.4401 25.4446 35.6178 26.3478 34.755 27.224C33.8923 28.1002 33.0154 28.9967 32.1398 29.8864C31.2427 30.7626 30.353 31.6388 29.4768 32.5016C29.0393 32.9262 28.6079 33.3509 28.1833 33.7688C27.7924 34.1799 27.4075 34.5911 27.0442 35.0292C26.3435 35.864 25.6866 36.7347 25.0761 37.6376C24.5032 38.5071 24.0111 39.3699 23.5797 40.1787C22.8948 41.504 22.3091 42.8784 21.8273 44.2902C21.6588 44.8092 21.5098 45.2204 21.4289 45.5035C21.3692 45.7124 21.3287 45.8472 21.3076 45.9079C22.1169 40.7865 24.5316 36.0544 28.2035 32.3938L45.5535 15.0444Z" fill="white"/>
</g>
</g>
<g style="mix-blend-mode:multiply" opacity="0.25">
<g style="mix-blend-mode:multiply" opacity="0.25">
<path d="M65.1753 66.2594L65.1888 66.3066L64.845 66.6639L64.8046 66.7043L64.9933 65.7337L65.1753 66.2594Z" fill="black"/>
</g>
</g>
<g style="mix-blend-mode:multiply" opacity="0.25">
<g style="mix-blend-mode:multiply" opacity="0.25">
<path d="M64.0624 66.0571C63.7186 66.4413 63.3688 66.8187 62.9981 67.1894C59.5753 70.6071 55.2226 72.9419 50.4822 73.9032C45.7419 74.8644 40.8235 74.4094 36.3398 72.5951C38.7324 73.3679 41.2216 73.8012 43.7345 73.8825C44.3614 73.9027 44.9808 73.8892 45.6016 73.869C46.2082 73.8353 46.862 73.8016 47.4551 73.7207C48.0618 73.6668 48.6751 73.5522 49.2811 73.4444C49.8816 73.323 50.4815 73.1882 51.0807 73.0332C51.6678 72.8647 52.2602 72.7097 52.8406 72.494C53.4202 72.2985 53.9864 72.0559 54.5452 71.8267C55.1053 71.5638 55.658 71.3212 56.1972 71.0314C56.7432 70.7617 57.2689 70.4382 57.7872 70.1282C58.3069 69.7979 58.8124 69.4609 59.297 69.0969C59.7817 68.7329 60.2616 68.3555 60.7266 67.9578L61.4135 67.3579L62.0679 66.7244L62.2364 66.5693L62.2964 66.5087L62.3773 66.421L62.7015 66.0773L63.2812 65.4504L63.3216 65.4033C63.4355 65.255 63.5501 65.1134 63.6654 64.9652C64.0496 64.4866 64.4338 64.0148 64.7977 63.5295C65.2156 62.8555 65.674 62.2017 66.0716 61.5142C66.4282 60.8064 66.8461 60.1257 67.1568 59.3977L67.6077 58.2923L67.8376 57.7396C67.905 57.5576 67.9589 57.3622 68.0189 57.1735C68.2794 56.4212 68.4932 55.6536 68.6592 54.875L68.9086 53.709C68.9879 53.3192 69.0464 52.9254 69.0838 52.5294L69.2328 51.3432C69.2598 50.9455 69.2598 50.5411 69.2793 50.1434C69.286 49.7457 69.3204 49.3481 69.3069 48.9436L69.2328 47.7506C69.2005 46.9483 69.1149 46.1489 68.9767 45.3579L68.8958 44.7647C68.8553 44.5692 68.8082 44.3738 68.761 44.1783L68.484 43.0055C68.3932 42.6125 68.2786 42.2253 68.1409 41.8462L67.7628 40.6936C67.4931 39.9387 67.1359 39.2108 66.8265 38.4626L65.6665 36.3192C65.2082 35.6452 64.764 34.9577 64.2922 34.2904C63.7725 33.6568 63.267 33.0098 62.7352 32.3762L61.0973 30.4957L62.9981 32.3964C67.42 36.8212 69.9911 42.7637 70.1888 49.0162C70.3865 55.2686 68.1959 61.3618 64.0624 66.0571Z" fill="black"/>
</g>
</g>
<defs>
<linearGradient id="paint0_linear_969_1680" x1="-6.33872" y1="-29.8403" x2="134.99" y2="3.87192" gradientUnits="userSpaceOnUse">
<stop offset="0.257676" stop-color="#043266"/>
<stop offset="0.420884" stop-color="#053367" stop-opacity="0.88"/>
<stop offset="0.577529" stop-color="#164E8C" stop-opacity="0.9"/>
<stop offset="0.877732" stop-color="#4293ED"/>
<stop offset="1" stop-color="#4293ED"/>
</linearGradient>
<linearGradient id="paint1_linear_969_1680" x1="48.5531" y1="15.8944" x2="81.3763" y2="31.9716" gradientUnits="userSpaceOnUse">
<stop stop-color="#00F3FF"/>
<stop offset="0.238" stop-color="#00EFFC"/>
<stop offset="0.44" stop-color="#00E5F4"/>
<stop offset="0.629" stop-color="#00D3E7"/>
<stop offset="0.81" stop-color="#00BAD4"/>
<stop offset="0.983" stop-color="#009BBC"/>
<stop offset="1" stop-color="#0098BA"/>
</linearGradient>
<linearGradient id="paint2_linear_969_1680" x1="44.2226" y1="14.1595" x2="8.9731" y2="30.7576" gradientUnits="userSpaceOnUse">
<stop stop-color="#F804DE"/>
<stop offset="0.074" stop-color="#F803CC"/>
<stop offset="0.293" stop-color="#F9029D"/>
<stop offset="0.501" stop-color="#FA0178"/>
<stop offset="0.695" stop-color="#FB005D"/>
<stop offset="0.867" stop-color="#FB004D"/>
<stop offset="1" stop-color="#FC0048"/>
</linearGradient>
<linearGradient id="paint3_linear_969_1680" x1="20.9999" y1="40.5386" x2="45.5741" y2="40.5386" gradientUnits="userSpaceOnUse">
<stop stop-color="#B3FFAB"/>
<stop offset="1" stop-color="#12FFF7"/>
</linearGradient>
<linearGradient id="paint4_linear_969_1680" x1="48.4259" y1="32.1651" x2="73.032" y2="46.2814" gradientUnits="userSpaceOnUse">
<stop stop-color="#00F3FF"/>
<stop offset="0.238" stop-color="#00EFFC"/>
<stop offset="0.44" stop-color="#00E5F4"/>
<stop offset="0.629" stop-color="#00D3E7"/>
<stop offset="0.81" stop-color="#00BAD4"/>
<stop offset="0.983" stop-color="#009BBC"/>
<stop offset="1" stop-color="#0098BA"/>
</linearGradient>
<linearGradient id="paint5_linear_969_1680" x1="27.1406" y1="44.6974" x2="45.6021" y2="44.6974" gradientUnits="userSpaceOnUse">
<stop stop-color="#007ADF"/>
<stop offset="1" stop-color="#00ECBC"/>
</linearGradient>
</defs>
</svg>
