<svg width="1631" height="540" viewBox="0 0 1631 540" fill="none" xmlns="http://www.w3.org/2000/svg">
<path d="M1121.5 131.285C933 193.785 805 425.285 672.5 467.285C540 509.285 510 538.785 339.5 538.785C169 538.785 1 425.285 1 425.285" stroke="#9D9D9F" stroke-dasharray="10 10"/>
<path d="M1129 124.785C1721.5 -14.2148 1757.5 475.785 1399.13 497.785" stroke="#9D9D9F" stroke-dasharray="10 10"/>
<path d="M1027.83 27H1023.21L1030.24 6.63636H1035.79L1042.81 27H1038.2L1033.1 11.2898H1032.94L1027.83 27ZM1027.54 18.9957H1038.44V22.3565H1027.54V18.9957ZM1064.37 16.0824L1060.49 16.321C1060.43 15.9896 1060.28 15.6913 1060.06 15.4261C1059.85 15.1544 1059.56 14.9389 1059.2 14.7798C1058.85 14.6141 1058.43 14.5312 1057.94 14.5312C1057.28 14.5312 1056.73 14.6705 1056.28 14.9489C1055.83 15.2206 1055.6 15.5852 1055.6 16.0426C1055.6 16.4072 1055.75 16.7154 1056.04 16.9673C1056.33 17.2192 1056.83 17.4214 1057.54 17.5739L1060.3 18.1307C1061.79 18.4356 1062.9 18.9261 1063.62 19.6023C1064.35 20.2784 1064.72 21.1667 1064.72 22.267C1064.72 23.268 1064.42 24.1463 1063.83 24.902C1063.25 25.6577 1062.45 26.2476 1061.43 26.6719C1060.41 27.0895 1059.24 27.2983 1057.92 27.2983C1055.9 27.2983 1054.28 26.8774 1053.08 26.0355C1051.89 25.187 1051.19 24.0336 1050.99 22.5753L1055.15 22.3565C1055.28 22.973 1055.58 23.4437 1056.07 23.7685C1056.55 24.0866 1057.17 24.2457 1057.93 24.2457C1058.67 24.2457 1059.27 24.1032 1059.72 23.8182C1060.17 23.5265 1060.41 23.152 1060.41 22.6946C1060.41 22.3101 1060.24 21.9953 1059.93 21.75C1059.61 21.4981 1059.12 21.3059 1058.45 21.1733L1055.81 20.6463C1054.32 20.348 1053.21 19.831 1052.48 19.0952C1051.76 18.3594 1051.39 17.4214 1051.39 16.2812C1051.39 15.3002 1051.66 14.455 1052.19 13.7457C1052.73 13.0365 1053.48 12.4896 1054.45 12.1051C1055.42 11.7206 1056.56 11.5284 1057.87 11.5284C1059.8 11.5284 1061.31 11.9361 1062.42 12.7514C1063.54 13.5668 1064.18 14.6771 1064.37 16.0824ZM1077.18 20.4972V11.7273H1081.42V27H1077.35V24.2259H1077.19C1076.84 25.1207 1076.27 25.84 1075.47 26.3835C1074.67 26.9271 1073.7 27.1989 1072.56 27.1989C1071.54 27.1989 1070.64 26.9669 1069.86 26.5028C1069.09 26.0388 1068.48 25.3793 1068.04 24.5241C1067.61 23.669 1067.39 22.6449 1067.39 21.4517V11.7273H1071.62V20.696C1071.63 21.5975 1071.87 22.3101 1072.35 22.8338C1072.82 23.3575 1073.46 23.6193 1074.27 23.6193C1074.78 23.6193 1075.25 23.5033 1075.7 23.2713C1076.14 23.0327 1076.5 22.6813 1076.77 22.2173C1077.05 21.7533 1077.19 21.1799 1077.18 20.4972ZM1097.51 16.0824L1093.63 16.321C1093.57 15.9896 1093.42 15.6913 1093.21 15.4261C1092.99 15.1544 1092.7 14.9389 1092.34 14.7798C1091.99 14.6141 1091.57 14.5312 1091.08 14.5312C1090.42 14.5312 1089.87 14.6705 1089.42 14.9489C1088.97 15.2206 1088.74 15.5852 1088.74 16.0426C1088.74 16.4072 1088.89 16.7154 1089.18 16.9673C1089.47 17.2192 1089.97 17.4214 1090.68 17.5739L1093.44 18.1307C1094.93 18.4356 1096.04 18.9261 1096.77 19.6023C1097.49 20.2784 1097.86 21.1667 1097.86 22.267C1097.86 23.268 1097.56 24.1463 1096.97 24.902C1096.39 25.6577 1095.59 26.2476 1094.57 26.6719C1093.55 27.0895 1092.38 27.2983 1091.06 27.2983C1089.04 27.2983 1087.43 26.8774 1086.23 26.0355C1085.03 25.187 1084.33 24.0336 1084.13 22.5753L1088.29 22.3565C1088.42 22.973 1088.72 23.4437 1089.21 23.7685C1089.69 24.0866 1090.31 24.2457 1091.07 24.2457C1091.81 24.2457 1092.41 24.1032 1092.86 23.8182C1093.31 23.5265 1093.55 23.152 1093.55 22.6946C1093.55 22.3101 1093.38 21.9953 1093.07 21.75C1092.75 21.4981 1092.26 21.3059 1091.59 21.1733L1088.95 20.6463C1087.46 20.348 1086.35 19.831 1085.62 19.0952C1084.9 18.3594 1084.54 17.4214 1084.54 16.2812C1084.54 15.3002 1084.8 14.455 1085.33 13.7457C1085.87 13.0365 1086.62 12.4896 1087.59 12.1051C1088.56 11.7206 1089.7 11.5284 1091.01 11.5284C1092.94 11.5284 1094.46 11.9361 1095.56 12.7514C1096.68 13.5668 1097.33 14.6771 1097.51 16.0824ZM1108.65 11.7273V14.9091H1099.45V11.7273H1108.65ZM1101.54 8.06818H1105.78V22.3068C1105.78 22.6979 1105.84 23.0028 1105.96 23.2216C1106.07 23.4337 1106.24 23.5829 1106.45 23.669C1106.67 23.7552 1106.92 23.7983 1107.21 23.7983C1107.41 23.7983 1107.61 23.7817 1107.8 23.7486C1108 23.7088 1108.16 23.679 1108.26 23.6591L1108.93 26.8111C1108.72 26.8774 1108.42 26.9536 1108.03 27.0398C1107.65 27.1326 1107.18 27.1889 1106.63 27.2088C1105.61 27.2486 1104.72 27.1127 1103.95 26.8011C1103.18 26.4896 1102.59 26.0057 1102.17 25.3494C1101.74 24.6932 1101.53 23.8646 1101.54 22.8636V8.06818ZM1115.76 27.2884C1114.79 27.2884 1113.92 27.1193 1113.16 26.7812C1112.4 26.4366 1111.79 25.9295 1111.35 25.2599C1110.91 24.5838 1110.69 23.742 1110.69 22.7344C1110.69 21.8859 1110.85 21.1733 1111.16 20.5966C1111.47 20.0199 1111.9 19.5559 1112.43 19.2045C1112.97 18.8532 1113.58 18.5881 1114.26 18.4091C1114.95 18.2301 1115.67 18.1042 1116.43 18.0312C1117.32 17.9384 1118.03 17.8523 1118.58 17.7727C1119.12 17.6866 1119.52 17.5606 1119.76 17.3949C1120.01 17.2292 1120.13 16.9839 1120.13 16.6591V16.5994C1120.13 15.9697 1119.93 15.4825 1119.53 15.1378C1119.14 14.7931 1118.58 14.6207 1117.86 14.6207C1117.1 14.6207 1116.49 14.7898 1116.04 15.1278C1115.59 15.4593 1115.29 15.8769 1115.15 16.3807L1111.23 16.0625C1111.43 15.1345 1111.82 14.3324 1112.4 13.6562C1112.99 12.9735 1113.74 12.4498 1114.66 12.0852C1115.59 11.714 1116.66 11.5284 1117.88 11.5284C1118.73 11.5284 1119.54 11.6278 1120.32 11.8267C1121.1 12.0256 1121.79 12.3338 1122.4 12.7514C1123.01 13.169 1123.49 13.706 1123.84 14.3622C1124.19 15.0118 1124.37 15.7907 1124.37 16.6989V27H1120.35V24.8821H1120.23C1119.98 25.3594 1119.66 25.7803 1119.24 26.1449C1118.83 26.5028 1118.34 26.7846 1117.76 26.9901C1117.19 27.1889 1116.52 27.2884 1115.76 27.2884ZM1116.98 24.3651C1117.6 24.3651 1118.15 24.2424 1118.63 23.9972C1119.11 23.7453 1119.48 23.4072 1119.75 22.983C1120.02 22.5587 1120.16 22.0781 1120.16 21.5412V19.9205C1120.03 20.0066 1119.84 20.0862 1119.61 20.1591C1119.39 20.2254 1119.13 20.2884 1118.85 20.348C1118.56 20.401 1118.28 20.4508 1117.99 20.4972C1117.71 20.5369 1117.45 20.5734 1117.22 20.6065C1116.72 20.6795 1116.28 20.7955 1115.91 20.9545C1115.54 21.1136 1115.25 21.3291 1115.05 21.6009C1114.84 21.866 1114.74 22.1974 1114.74 22.5952C1114.74 23.1719 1114.95 23.6127 1115.37 23.9176C1115.79 24.2159 1116.33 24.3651 1116.98 24.3651ZM1127.65 27V11.7273H1131.89V27H1127.65ZM1129.78 9.75852C1129.15 9.75852 1128.61 9.54972 1128.16 9.1321C1127.71 8.70786 1127.49 8.20076 1127.49 7.61079C1127.49 7.02746 1127.71 6.52699 1128.16 6.10938C1128.61 5.68513 1129.15 5.47301 1129.78 5.47301C1130.41 5.47301 1130.95 5.68513 1131.39 6.10938C1131.84 6.52699 1132.07 7.02746 1132.07 7.61079C1132.07 8.20076 1131.84 8.70786 1131.39 9.1321C1130.95 9.54972 1130.41 9.75852 1129.78 9.75852ZM1139.52 18.1705V27H1135.28V11.7273H1139.32V14.4219H1139.5C1139.83 13.5336 1140.4 12.831 1141.2 12.3139C1141.99 11.7902 1142.96 11.5284 1144.09 11.5284C1145.15 11.5284 1146.08 11.7604 1146.86 12.2244C1147.65 12.6884 1148.27 13.3513 1148.7 14.2131C1149.14 15.0682 1149.36 16.089 1149.36 17.2756V27H1145.12V18.0312C1145.13 17.0966 1144.89 16.3674 1144.41 15.8438C1143.92 15.3134 1143.26 15.0483 1142.41 15.0483C1141.84 15.0483 1141.34 15.1709 1140.9 15.4162C1140.47 15.6615 1140.13 16.0194 1139.88 16.4901C1139.65 16.9541 1139.52 17.5142 1139.52 18.1705ZM1157.05 27.2884C1156.08 27.2884 1155.21 27.1193 1154.45 26.7812C1153.69 26.4366 1153.08 25.9295 1152.64 25.2599C1152.2 24.5838 1151.98 23.742 1151.98 22.7344C1151.98 21.8859 1152.14 21.1733 1152.45 20.5966C1152.76 20.0199 1153.19 19.5559 1153.72 19.2045C1154.26 18.8532 1154.87 18.5881 1155.55 18.4091C1156.24 18.2301 1156.96 18.1042 1157.72 18.0312C1158.61 17.9384 1159.32 17.8523 1159.87 17.7727C1160.41 17.6866 1160.81 17.5606 1161.05 17.3949C1161.3 17.2292 1161.42 16.9839 1161.42 16.6591V16.5994C1161.42 15.9697 1161.22 15.4825 1160.82 15.1378C1160.43 14.7931 1159.87 14.6207 1159.15 14.6207C1158.39 14.6207 1157.78 14.7898 1157.33 15.1278C1156.88 15.4593 1156.58 15.8769 1156.44 16.3807L1152.52 16.0625C1152.72 15.1345 1153.11 14.3324 1153.69 13.6562C1154.28 12.9735 1155.03 12.4498 1155.95 12.0852C1156.88 11.714 1157.95 11.5284 1159.17 11.5284C1160.02 11.5284 1160.83 11.6278 1161.61 11.8267C1162.39 12.0256 1163.08 12.3338 1163.69 12.7514C1164.3 13.169 1164.78 13.706 1165.13 14.3622C1165.48 15.0118 1165.65 15.7907 1165.65 16.6989V27H1161.64V24.8821H1161.52C1161.27 25.3594 1160.94 25.7803 1160.53 26.1449C1160.12 26.5028 1159.63 26.7846 1159.05 26.9901C1158.48 27.1889 1157.81 27.2884 1157.05 27.2884ZM1158.27 24.3651C1158.89 24.3651 1159.44 24.2424 1159.92 23.9972C1160.39 23.7453 1160.77 23.4072 1161.04 22.983C1161.31 22.5587 1161.45 22.0781 1161.45 21.5412V19.9205C1161.32 20.0066 1161.13 20.0862 1160.9 20.1591C1160.68 20.2254 1160.42 20.2884 1160.14 20.348C1159.85 20.401 1159.57 20.4508 1159.28 20.4972C1159 20.5369 1158.74 20.5734 1158.5 20.6065C1158.01 20.6795 1157.57 20.7955 1157.2 20.9545C1156.83 21.1136 1156.54 21.3291 1156.34 21.6009C1156.13 21.866 1156.03 22.1974 1156.03 22.5952C1156.03 23.1719 1156.24 23.6127 1156.66 23.9176C1157.08 24.2159 1157.62 24.3651 1158.27 24.3651ZM1169.02 27V6.63636H1173.26V14.2926H1173.38C1173.57 13.8816 1173.84 13.464 1174.19 13.0398C1174.55 12.6089 1175.01 12.2509 1175.58 11.9659C1176.16 11.6742 1176.88 11.5284 1177.73 11.5284C1178.84 11.5284 1179.87 11.8201 1180.81 12.4034C1181.75 12.9801 1182.51 13.8518 1183.07 15.0185C1183.63 16.1785 1183.91 17.6335 1183.91 19.3835C1183.91 21.0871 1183.64 22.5256 1183.09 23.6989C1182.55 24.8655 1181.8 25.7505 1180.86 26.3537C1179.93 26.9503 1178.88 27.2486 1177.72 27.2486C1176.9 27.2486 1176.2 27.1127 1175.62 26.8409C1175.05 26.5691 1174.58 26.2277 1174.22 25.8168C1173.86 25.3991 1173.58 24.9782 1173.38 24.554H1173.2V27H1169.02ZM1173.17 19.3636C1173.17 20.2718 1173.29 21.0639 1173.54 21.7401C1173.8 22.4162 1174.16 22.9432 1174.64 23.321C1175.12 23.6922 1175.7 23.8778 1176.38 23.8778C1177.07 23.8778 1177.65 23.6889 1178.13 23.3111C1178.61 22.9266 1178.97 22.3963 1179.21 21.7202C1179.46 21.0374 1179.59 20.2519 1179.59 19.3636C1179.59 18.482 1179.47 17.7064 1179.22 17.0369C1178.98 16.3674 1178.62 15.8437 1178.14 15.4659C1177.66 15.0881 1177.07 14.8991 1176.38 14.8991C1175.69 14.8991 1175.11 15.0814 1174.63 15.446C1174.16 15.8106 1173.8 16.3277 1173.54 16.9972C1173.29 17.6667 1173.17 18.4555 1173.17 19.3636ZM1190.98 6.63636V27H1186.74V6.63636H1190.98ZM1201.33 27.2983C1199.76 27.2983 1198.41 26.9801 1197.27 26.3438C1196.15 25.7008 1195.28 24.7926 1194.67 23.6193C1194.06 22.4394 1193.75 21.044 1193.75 19.4332C1193.75 17.8622 1194.06 16.4834 1194.67 15.2969C1195.28 14.1103 1196.14 13.1856 1197.24 12.5227C1198.36 11.8598 1199.66 11.5284 1201.16 11.5284C1202.17 11.5284 1203.11 11.6908 1203.98 12.0156C1204.85 12.3338 1205.61 12.8144 1206.26 13.4574C1206.92 14.1004 1207.43 14.9091 1207.79 15.8835C1208.16 16.8513 1208.34 17.9848 1208.34 19.2841V20.4474H1195.44V17.8224H1204.35C1204.35 17.2126 1204.22 16.6723 1203.96 16.2017C1203.69 15.7311 1203.32 15.3632 1202.85 15.098C1202.39 14.8262 1201.85 14.6903 1201.23 14.6903C1200.59 14.6903 1200.02 14.8395 1199.52 15.1378C1199.03 15.4295 1198.65 15.8239 1198.37 16.321C1198.09 16.8116 1197.95 17.3584 1197.94 17.9616V20.4574C1197.94 21.2131 1198.08 21.866 1198.36 22.4162C1198.64 22.9664 1199.04 23.3906 1199.56 23.6889C1200.08 23.9872 1200.69 24.1364 1201.4 24.1364C1201.87 24.1364 1202.3 24.0701 1202.69 23.9375C1203.08 23.8049 1203.42 23.6061 1203.7 23.3409C1203.98 23.0758 1204.19 22.7509 1204.33 22.3665L1208.25 22.625C1208.05 23.5663 1207.64 24.3883 1207.03 25.0909C1206.42 25.7869 1205.63 26.3305 1204.66 26.7216C1203.7 27.1061 1202.59 27.2983 1201.33 27.2983ZM1001.37 61.2983C999.794 61.2983 998.442 60.9801 997.309 60.3438C996.182 59.7008 995.313 58.7926 994.703 57.6193C994.094 56.4394 993.789 55.044 993.789 53.4332C993.789 51.8622 994.094 50.4834 994.703 49.2969C995.313 48.1103 996.172 47.1856 997.279 46.5227C998.392 45.8598 999.698 45.5284 1001.2 45.5284C1002.2 45.5284 1003.14 45.6908 1004.01 46.0156C1004.89 46.3338 1005.65 46.8144 1006.3 47.4574C1006.95 48.1004 1007.46 48.9091 1007.83 49.8835C1008.19 50.8513 1008.38 51.9848 1008.38 53.2841V54.4474H995.479V51.8224H1004.39C1004.39 51.2126 1004.26 50.6723 1003.99 50.2017C1003.73 49.7311 1003.36 49.3632 1002.89 49.098C1002.42 48.8262 1001.88 48.6903 1001.27 48.6903C1000.62 48.6903 1000.05 48.8395 999.556 49.1378C999.065 49.4295 998.681 49.8239 998.402 50.321C998.124 50.8116 997.981 51.3584 997.975 51.9616V54.4574C997.975 55.2131 998.114 55.866 998.392 56.4162C998.677 56.9664 999.078 57.3906 999.596 57.6889C1000.11 57.9872 1000.73 58.1364 1001.44 58.1364C1001.91 58.1364 1002.34 58.0701 1002.73 57.9375C1003.12 57.8049 1003.45 57.6061 1003.73 57.3409C1004.01 57.0758 1004.22 56.7509 1004.37 56.3665L1008.29 56.625C1008.09 57.5663 1007.68 58.3883 1007.06 59.0909C1006.45 59.7869 1005.66 60.3305 1004.7 60.7216C1003.74 61.1061 1002.62 61.2983 1001.37 61.2983ZM1015.38 40.6364V61H1011.14V40.6364H1015.38ZM1025.73 61.2983C1024.16 61.2983 1022.81 60.9801 1021.67 60.3438C1020.54 59.7008 1019.68 58.7926 1019.07 57.6193C1018.46 56.4394 1018.15 55.044 1018.15 53.4332C1018.15 51.8622 1018.46 50.4834 1019.07 49.2969C1019.68 48.1103 1020.54 47.1856 1021.64 46.5227C1022.76 45.8598 1024.06 45.5284 1025.56 45.5284C1026.57 45.5284 1027.51 45.6908 1028.37 46.0156C1029.25 46.3338 1030.01 46.8144 1030.66 47.4574C1031.32 48.1004 1031.83 48.9091 1032.19 49.8835C1032.56 50.8513 1032.74 51.9848 1032.74 53.2841V54.4474H1019.84V51.8224H1028.75C1028.75 51.2126 1028.62 50.6723 1028.35 50.2017C1028.09 49.7311 1027.72 49.3632 1027.25 49.098C1026.79 48.8262 1026.25 48.6903 1025.63 48.6903C1024.99 48.6903 1024.42 48.8395 1023.92 49.1378C1023.43 49.4295 1023.04 49.8239 1022.77 50.321C1022.49 50.8116 1022.34 51.3584 1022.34 51.9616V54.4574C1022.34 55.2131 1022.48 55.866 1022.76 56.4162C1023.04 56.9664 1023.44 57.3906 1023.96 57.6889C1024.48 57.9872 1025.09 58.1364 1025.8 58.1364C1026.27 58.1364 1026.7 58.0701 1027.09 57.9375C1027.48 57.8049 1027.82 57.6061 1028.1 57.3409C1028.37 57.0758 1028.59 56.7509 1028.73 56.3665L1032.65 56.625C1032.45 57.5663 1032.04 58.3883 1031.43 59.0909C1030.82 59.7869 1030.03 60.3305 1029.06 60.7216C1028.1 61.1061 1026.99 61.2983 1025.73 61.2983ZM1042.4 61.2983C1040.84 61.2983 1039.49 60.9669 1038.37 60.304C1037.25 59.6345 1036.38 58.7064 1035.78 57.5199C1035.18 56.3333 1034.89 54.9678 1034.89 53.4233C1034.89 51.8589 1035.19 50.4867 1035.79 49.3068C1036.4 48.1203 1037.27 47.1955 1038.39 46.5327C1039.51 45.8632 1040.84 45.5284 1042.38 45.5284C1043.72 45.5284 1044.88 45.7704 1045.88 46.2543C1046.88 46.7382 1047.68 47.4176 1048.26 48.2926C1048.84 49.1676 1049.16 50.1951 1049.22 51.375H1045.23C1045.11 50.6127 1044.82 49.9995 1044.33 49.5355C1043.86 49.0649 1043.23 48.8295 1042.45 48.8295C1041.8 48.8295 1041.22 49.0085 1040.73 49.3665C1040.25 49.7178 1039.87 50.2315 1039.6 50.9077C1039.33 51.5838 1039.19 52.4025 1039.19 53.3636C1039.19 54.3381 1039.32 55.1667 1039.59 55.8494C1039.86 56.5322 1040.24 57.0526 1040.73 57.4105C1041.22 57.7685 1041.8 57.9474 1042.45 57.9474C1042.94 57.9474 1043.37 57.848 1043.76 57.6491C1044.15 57.4503 1044.47 57.1619 1044.72 56.7841C1044.98 56.3996 1045.15 55.9389 1045.23 55.402H1049.22C1049.16 56.5687 1048.84 57.5961 1048.27 58.4844C1047.71 59.366 1046.93 60.0554 1045.93 60.5526C1044.94 61.0497 1043.76 61.2983 1042.4 61.2983ZM1060.06 45.7273V48.9091H1050.86V45.7273H1060.06ZM1052.95 42.0682H1057.19V56.3068C1057.19 56.6979 1057.25 57.0028 1057.37 57.2216C1057.48 57.4337 1057.65 57.5829 1057.86 57.669C1058.08 57.7552 1058.33 57.7983 1058.62 57.7983C1058.82 57.7983 1059.02 57.7817 1059.21 57.7486C1059.41 57.7088 1059.57 57.679 1059.67 57.6591L1060.34 60.8111C1060.13 60.8774 1059.83 60.9536 1059.44 61.0398C1059.06 61.1326 1058.59 61.1889 1058.04 61.2088C1057.02 61.2486 1056.13 61.1127 1055.36 60.8011C1054.59 60.4896 1054 60.0057 1053.58 59.3494C1053.15 58.6932 1052.94 57.8646 1052.95 56.8636V42.0682ZM1062.82 61V45.7273H1066.93V48.392H1067.08C1067.36 47.4441 1067.83 46.7282 1068.49 46.2443C1069.14 45.7538 1069.9 45.5085 1070.75 45.5085C1070.97 45.5085 1071.19 45.5218 1071.44 45.5483C1071.69 45.5748 1071.9 45.6113 1072.09 45.6577V49.4162C1071.89 49.3565 1071.61 49.3035 1071.26 49.2571C1070.91 49.2107 1070.59 49.1875 1070.3 49.1875C1069.67 49.1875 1069.12 49.3234 1068.63 49.5952C1068.14 49.8603 1067.76 50.2315 1067.47 50.7088C1067.19 51.1861 1067.06 51.7363 1067.06 52.3594V61H1062.82ZM1074.28 61V45.7273H1078.51V61H1074.28ZM1076.4 43.7585C1075.77 43.7585 1075.23 43.5497 1074.78 43.1321C1074.34 42.7079 1074.12 42.2008 1074.12 41.6108C1074.12 41.0275 1074.34 40.527 1074.78 40.1094C1075.23 39.6851 1075.77 39.473 1076.4 39.473C1077.03 39.473 1077.57 39.6851 1078.01 40.1094C1078.47 40.527 1078.69 41.0275 1078.69 41.6108C1078.69 42.2008 1078.47 42.7079 1078.01 43.1321C1077.57 43.5497 1077.03 43.7585 1076.4 43.7585ZM1088.81 61.2983C1087.24 61.2983 1085.9 60.9669 1084.77 60.304C1083.65 59.6345 1082.79 58.7064 1082.18 57.5199C1081.59 56.3333 1081.29 54.9678 1081.29 53.4233C1081.29 51.8589 1081.59 50.4867 1082.19 49.3068C1082.8 48.1203 1083.67 47.1955 1084.79 46.5327C1085.91 45.8632 1087.24 45.5284 1088.79 45.5284C1090.12 45.5284 1091.28 45.7704 1092.29 46.2543C1093.29 46.7382 1094.08 47.4176 1094.66 48.2926C1095.25 49.1676 1095.57 50.1951 1095.63 51.375H1091.63C1091.52 50.6127 1091.22 49.9995 1090.73 49.5355C1090.26 49.0649 1089.63 48.8295 1088.86 48.8295C1088.2 48.8295 1087.63 49.0085 1087.14 49.3665C1086.65 49.7178 1086.27 50.2315 1086 50.9077C1085.73 51.5838 1085.59 52.4025 1085.59 53.3636C1085.59 54.3381 1085.73 55.1667 1085.99 55.8494C1086.26 56.5322 1086.64 57.0526 1087.14 57.4105C1087.63 57.7685 1088.2 57.9474 1088.86 57.9474C1089.34 57.9474 1089.77 57.848 1090.16 57.6491C1090.55 57.4503 1090.87 57.1619 1091.12 56.7841C1091.38 56.3996 1091.55 55.9389 1091.63 55.402H1095.63C1095.56 56.5687 1095.24 57.5961 1094.67 58.4844C1094.11 59.366 1093.33 60.0554 1092.34 60.5526C1091.34 61.0497 1090.16 61.2983 1088.81 61.2983ZM1098.34 61V45.7273H1102.57V61H1098.34ZM1100.47 43.7585C1099.84 43.7585 1099.3 43.5497 1098.85 43.1321C1098.4 42.7079 1098.18 42.2008 1098.18 41.6108C1098.18 41.0275 1098.4 40.527 1098.85 40.1094C1099.3 39.6851 1099.84 39.473 1100.47 39.473C1101.1 39.473 1101.63 39.6851 1102.08 40.1094C1102.53 40.527 1102.75 41.0275 1102.75 41.6108C1102.75 42.2008 1102.53 42.7079 1102.08 43.1321C1101.63 43.5497 1101.1 43.7585 1100.47 43.7585ZM1114.09 45.7273V48.9091H1104.89V45.7273H1114.09ZM1106.98 42.0682H1111.22V56.3068C1111.22 56.6979 1111.28 57.0028 1111.4 57.2216C1111.52 57.4337 1111.68 57.5829 1111.89 57.669C1112.11 57.7552 1112.36 57.7983 1112.65 57.7983C1112.85 57.7983 1113.05 57.7817 1113.25 57.7486C1113.44 57.7088 1113.6 57.679 1113.7 57.6591L1114.37 60.8111C1114.16 60.8774 1113.86 60.9536 1113.47 61.0398C1113.09 61.1326 1112.62 61.1889 1112.07 61.2088C1111.05 61.2486 1110.16 61.1127 1109.39 60.8011C1108.63 60.4896 1108.03 60.0057 1107.61 59.3494C1107.18 58.6932 1106.98 57.8646 1106.98 56.8636V42.0682ZM1119.47 66.7273C1118.93 66.7273 1118.42 66.6842 1117.95 66.598C1117.49 66.5185 1117.11 66.4157 1116.8 66.2898L1117.76 63.1278C1118.25 63.2803 1118.7 63.3632 1119.1 63.3764C1119.5 63.3897 1119.85 63.2969 1120.14 63.098C1120.44 62.8991 1120.68 62.5611 1120.87 62.0838L1121.12 61.4375L1115.64 45.7273H1120.09L1123.25 56.9432H1123.41L1126.6 45.7273H1131.09L1125.15 62.6506C1124.87 63.4725 1124.48 64.1884 1123.99 64.7983C1123.51 65.4148 1122.89 65.8887 1122.15 66.2202C1121.41 66.5582 1120.51 66.7273 1119.47 66.7273ZM1152.44 50.0824L1148.57 50.321C1148.5 49.9896 1148.36 49.6913 1148.14 49.4261C1147.92 49.1544 1147.63 48.9389 1147.27 48.7798C1146.92 48.6141 1146.5 48.5312 1146.01 48.5312C1145.36 48.5312 1144.8 48.6705 1144.35 48.9489C1143.9 49.2206 1143.67 49.5852 1143.67 50.0426C1143.67 50.4072 1143.82 50.7154 1144.11 50.9673C1144.4 51.2192 1144.9 51.4214 1145.61 51.5739L1148.38 52.1307C1149.86 52.4356 1150.97 52.9261 1151.7 53.6023C1152.43 54.2784 1152.79 55.1667 1152.79 56.267C1152.79 57.268 1152.5 58.1463 1151.91 58.902C1151.32 59.6577 1150.52 60.2476 1149.5 60.6719C1148.49 61.0895 1147.32 61.2983 1145.99 61.2983C1143.97 61.2983 1142.36 60.8774 1141.16 60.0355C1139.97 59.187 1139.27 58.0336 1139.06 56.5753L1143.23 56.3565C1143.35 56.973 1143.66 57.4437 1144.14 57.7685C1144.63 58.0866 1145.25 58.2457 1146 58.2457C1146.74 58.2457 1147.34 58.1032 1147.79 57.8182C1148.25 57.5265 1148.48 57.152 1148.49 56.6946C1148.48 56.3101 1148.32 55.9953 1148 55.75C1147.68 55.4981 1147.19 55.3059 1146.53 55.1733L1143.88 54.6463C1142.39 54.348 1141.28 53.831 1140.55 53.0952C1139.83 52.3594 1139.47 51.4214 1139.47 50.2812C1139.47 49.3002 1139.73 48.455 1140.26 47.7457C1140.8 47.0365 1141.55 46.4896 1142.52 46.1051C1143.5 45.7206 1144.64 45.5284 1145.94 45.5284C1147.87 45.5284 1149.39 45.9361 1150.5 46.7514C1151.61 47.5668 1152.26 48.6771 1152.44 50.0824ZM1162.42 61.2983C1160.85 61.2983 1159.5 60.9801 1158.36 60.3438C1157.24 59.7008 1156.37 58.7926 1155.76 57.6193C1155.15 56.4394 1154.84 55.044 1154.84 53.4332C1154.84 51.8622 1155.15 50.4834 1155.76 49.2969C1156.37 48.1103 1157.23 47.1856 1158.33 46.5227C1159.45 45.8598 1160.75 45.5284 1162.25 45.5284C1163.26 45.5284 1164.2 45.6908 1165.06 46.0156C1165.94 46.3338 1166.7 46.8144 1167.35 47.4574C1168.01 48.1004 1168.52 48.9091 1168.88 49.8835C1169.25 50.8513 1169.43 51.9848 1169.43 53.2841V54.4474H1156.53V51.8224H1165.44C1165.44 51.2126 1165.31 50.6723 1165.05 50.2017C1164.78 49.7311 1164.41 49.3632 1163.94 49.098C1163.48 48.8262 1162.94 48.6903 1162.32 48.6903C1161.68 48.6903 1161.11 48.8395 1160.61 49.1378C1160.12 49.4295 1159.74 49.8239 1159.46 50.321C1159.18 50.8116 1159.04 51.3584 1159.03 51.9616V54.4574C1159.03 55.2131 1159.17 55.866 1159.45 56.4162C1159.73 56.9664 1160.13 57.3906 1160.65 57.6889C1161.17 57.9872 1161.78 58.1364 1162.49 58.1364C1162.96 58.1364 1163.39 58.0701 1163.78 57.9375C1164.17 57.8049 1164.51 57.6061 1164.79 57.3409C1165.06 57.0758 1165.28 56.7509 1165.42 56.3665L1169.34 56.625C1169.14 57.5663 1168.73 58.3883 1168.12 59.0909C1167.51 59.7869 1166.72 60.3305 1165.75 60.7216C1164.79 61.1061 1163.68 61.2983 1162.42 61.2983ZM1179.09 61.2983C1177.53 61.2983 1176.18 60.9669 1175.06 60.304C1173.94 59.6345 1173.08 58.7064 1172.47 57.5199C1171.88 56.3333 1171.58 54.9678 1171.58 53.4233C1171.58 51.8589 1171.88 50.4867 1172.48 49.3068C1173.09 48.1203 1173.96 47.1955 1175.08 46.5327C1176.2 45.8632 1177.53 45.5284 1179.07 45.5284C1180.41 45.5284 1181.57 45.7704 1182.57 46.2543C1183.58 46.7382 1184.37 47.4176 1184.95 48.2926C1185.53 49.1676 1185.86 50.1951 1185.92 51.375H1181.92C1181.81 50.6127 1181.51 49.9995 1181.02 49.5355C1180.55 49.0649 1179.92 48.8295 1179.14 48.8295C1178.49 48.8295 1177.91 49.0085 1177.42 49.3665C1176.94 49.7178 1176.56 50.2315 1176.29 50.9077C1176.02 51.5838 1175.88 52.4025 1175.88 53.3636C1175.88 54.3381 1176.02 55.1667 1176.28 55.8494C1176.55 56.5322 1176.93 57.0526 1177.42 57.4105C1177.91 57.7685 1178.49 57.9474 1179.14 57.9474C1179.63 57.9474 1180.06 57.848 1180.45 57.6491C1180.84 57.4503 1181.16 57.1619 1181.41 56.7841C1181.67 56.3996 1181.84 55.9389 1181.92 55.402H1185.92C1185.85 56.5687 1185.53 57.5961 1184.96 58.4844C1184.4 59.366 1183.62 60.0554 1182.62 60.5526C1181.63 61.0497 1180.45 61.2983 1179.09 61.2983ZM1196.75 45.7273V48.9091H1187.55V45.7273H1196.75ZM1189.64 42.0682H1193.88V56.3068C1193.88 56.6979 1193.94 57.0028 1194.06 57.2216C1194.18 57.4337 1194.34 57.5829 1194.55 57.669C1194.77 57.7552 1195.02 57.7983 1195.31 57.7983C1195.51 57.7983 1195.71 57.7817 1195.91 57.7486C1196.11 57.7088 1196.26 57.679 1196.36 57.6591L1197.03 60.8111C1196.82 60.8774 1196.52 60.9536 1196.13 61.0398C1195.75 61.1326 1195.28 61.1889 1194.73 61.2088C1193.71 61.2486 1192.82 61.1127 1192.05 60.8011C1191.29 60.4896 1190.69 60.0057 1190.27 59.3494C1189.84 58.6932 1189.64 57.8646 1189.64 56.8636V42.0682ZM1206.25 61.2983C1204.7 61.2983 1203.37 60.9702 1202.24 60.3139C1201.12 59.651 1200.25 58.7296 1199.64 57.5497C1199.04 56.3632 1198.73 54.9877 1198.73 53.4233C1198.73 51.8456 1199.04 50.4669 1199.64 49.2869C1200.25 48.1004 1201.12 47.179 1202.24 46.5227C1203.37 45.8598 1204.7 45.5284 1206.25 45.5284C1207.79 45.5284 1209.12 45.8598 1210.24 46.5227C1211.37 47.179 1212.24 48.1004 1212.85 49.2869C1213.46 50.4669 1213.76 51.8456 1213.76 53.4233C1213.76 54.9877 1213.46 56.3632 1212.85 57.5497C1212.24 58.7296 1211.37 59.651 1210.24 60.3139C1209.12 60.9702 1207.79 61.2983 1206.25 61.2983ZM1206.27 58.017C1206.97 58.017 1207.56 57.8182 1208.03 57.4205C1208.5 57.0161 1208.85 56.4659 1209.09 55.7699C1209.34 55.0739 1209.46 54.2817 1209.46 53.3935C1209.46 52.5052 1209.34 51.7131 1209.09 51.017C1208.85 50.321 1208.5 49.7708 1208.03 49.3665C1207.56 48.9621 1206.97 48.7599 1206.27 48.7599C1205.56 48.7599 1204.96 48.9621 1204.48 49.3665C1204 49.7708 1203.64 50.321 1203.39 51.017C1203.15 51.7131 1203.04 52.5052 1203.04 53.3935C1203.04 54.2817 1203.15 55.0739 1203.39 55.7699C1203.64 56.4659 1204 57.0161 1204.48 57.4205C1204.96 57.8182 1205.56 58.017 1206.27 58.017ZM1216.52 61V45.7273H1220.62V48.392H1220.78C1221.06 47.4441 1221.53 46.7282 1222.19 46.2443C1222.84 45.7538 1223.6 45.5085 1224.45 45.5085C1224.67 45.5085 1224.89 45.5218 1225.14 45.5483C1225.38 45.5748 1225.6 45.6113 1225.79 45.6577V49.4162C1225.59 49.3565 1225.31 49.3035 1224.96 49.2571C1224.61 49.2107 1224.29 49.1875 1224 49.1875C1223.37 49.1875 1222.82 49.3234 1222.33 49.5952C1221.84 49.8603 1221.46 50.2315 1221.17 50.7088C1220.89 51.1861 1220.75 51.7363 1220.75 52.3594V61H1216.52Z" fill="#043266"/>
<g filter="url(#filter0_d_969_1589)">
<circle cx="1109.5" cy="125.5" r="32.5" fill="white"/>
</g>
<path d="M1110 101.562C1101.39 101.562 1094.38 107.726 1094.38 115.302C1094.38 119.309 1097.01 123.436 1099.55 127.423C1101.74 130.855 1103.83 134.131 1104.48 137.5H1115.52C1116.17 134.13 1118.26 130.855 1120.45 127.423C1122.99 123.436 1125.62 119.309 1125.62 115.302C1125.62 107.726 1118.61 101.562 1110 101.562ZM1110 123.183C1111.51 124.812 1112.93 125.296 1113.58 125.44C1113.48 125.873 1113.4 126.297 1113.29 126.714C1113.1 127.567 1112.91 128.398 1112.73 129.197C1112.22 131.441 1111.73 133.688 1111.25 135.938H1108.75C1108.27 133.688 1107.77 131.441 1107.27 129.197L1106.7 126.714C1106.6 126.297 1106.51 125.873 1106.42 125.44C1107.07 125.296 1108.49 124.812 1110 123.183V123.183ZM1109.58 121.477C1109.43 121.155 1109.38 120.825 1109.53 120.582C1109.66 120.389 1109.83 120.279 1110 120.279C1110.17 120.279 1110.34 120.389 1110.47 120.582C1110.62 120.825 1110.57 121.154 1110.42 121.477C1110.31 121.705 1110.16 121.923 1110 122.133C1109.84 121.93 1109.7 121.71 1109.58 121.477V121.477ZM1119.13 126.582C1117.12 129.745 1115.2 132.752 1114.29 135.938H1111.75C1112.31 133.736 1112.86 131.532 1113.4 129.324C1113.59 128.527 1113.8 127.701 1114 126.849C1114.12 126.396 1114.22 125.929 1114.34 125.464C1114.93 125.424 1115.49 125.24 1115.93 124.836C1116.38 124.391 1116.62 123.81 1116.51 123.19C1116.47 122.893 1116.24 122.509 1115.81 122.377C1115.6 122.306 1115.38 122.301 1115.16 122.363C1114.99 122.428 1114.83 122.534 1114.7 122.672C1114.28 123.134 1114.13 123.596 1113.96 124.054C1113.88 124.284 1113.81 124.515 1113.75 124.742C1113.75 124.742 1113.09 124.793 1111.67 123.837C1110.88 123.307 1110.65 122.923 1110.42 122.67C1110.67 122.395 1110.9 122.095 1111.09 121.73C1111.19 121.526 1111.27 121.305 1111.3 121.056C1111.32 120.808 1111.28 120.527 1111.14 120.284C1110.98 120.016 1110.75 119.807 1110.46 119.691C1110.32 119.64 1110.16 119.616 1110 119.616C1109.84 119.616 1109.68 119.639 1109.54 119.691C1109.25 119.807 1109.02 120.016 1108.86 120.284C1108.72 120.527 1108.68 120.808 1108.7 121.056C1108.73 121.291 1108.81 121.519 1108.91 121.73C1109.1 122.095 1109.33 122.396 1109.58 122.67C1109.35 122.923 1109.12 123.307 1108.33 123.837C1106.91 124.794 1106.25 124.742 1106.25 124.742C1106.19 124.511 1106.12 124.281 1106.04 124.054C1105.87 123.596 1105.72 123.134 1105.3 122.672C1105.17 122.534 1105.01 122.428 1104.84 122.363C1104.62 122.301 1104.4 122.306 1104.19 122.377C1103.75 122.509 1103.53 122.893 1103.49 123.19C1103.38 123.81 1103.62 124.391 1104.07 124.836C1104.51 125.24 1105.07 125.424 1105.66 125.464C1105.78 125.93 1105.88 126.396 1106 126.849L1106.6 129.324C1107.14 131.532 1107.69 133.736 1108.25 135.938H1105.71C1104.8 132.755 1102.89 129.748 1100.86 126.579C1098.44 122.78 1095.94 118.852 1095.94 115.302C1095.94 108.588 1102.25 103.125 1110 103.125C1117.75 103.125 1124.06 108.588 1124.06 115.302C1124.06 118.853 1121.56 122.782 1119.13 126.582V126.582ZM1114.53 124.737C1114.58 124.577 1114.62 124.415 1114.68 124.259C1114.83 123.847 1115.01 123.399 1115.27 123.131C1115.33 123.062 1115.39 123.035 1115.43 123.017C1115.43 123.02 1115.5 123.008 1115.55 123.032C1115.64 123.054 1115.72 123.144 1115.75 123.316C1115.81 123.651 1115.66 124.081 1115.37 124.351C1115.17 124.542 1114.86 124.677 1114.53 124.737ZM1105.47 124.737C1105.14 124.677 1104.83 124.542 1104.63 124.35C1104.34 124.08 1104.19 123.65 1104.25 123.316C1104.28 123.142 1104.36 123.053 1104.45 123.031C1104.5 123.008 1104.57 123.02 1104.57 123.016C1104.6 123.034 1104.67 123.063 1104.73 123.13C1104.98 123.399 1105.17 123.846 1105.32 124.258C1105.38 124.415 1105.42 124.577 1105.47 124.737" fill="#1CDF8C"/>
<path d="M1105.72 138.716H1104.94V141.529H1105.54V144.03H1106.14V146.53H1107.14C1107.61 147.647 1108.71 148.437 1110 148.437C1111.29 148.437 1112.38 147.647 1112.86 146.529H1113.89V144.012L1113.98 143.98L1114.49 143.793V141.509L1114.54 141.493L1115.09 141.321V138.716H1105.72V138.716Z" fill="#1CDF8C"/>
<path d="M1247.21 393H1242.59L1249.62 372.636H1255.17L1262.19 393H1257.58L1252.48 377.29H1252.32L1247.21 393ZM1246.92 384.996H1257.82V388.357H1246.92V384.996ZM1268.8 384.17V393H1264.56V377.727H1268.6V380.422H1268.78C1269.12 379.534 1269.68 378.831 1270.48 378.314C1271.28 377.79 1272.24 377.528 1273.37 377.528C1274.43 377.528 1275.36 377.76 1276.15 378.224C1276.94 378.688 1277.55 379.351 1277.99 380.213C1278.42 381.068 1278.64 382.089 1278.64 383.276V393H1274.41V384.031C1274.41 383.097 1274.18 382.367 1273.69 381.844C1273.21 381.313 1272.54 381.048 1271.69 381.048C1271.12 381.048 1270.62 381.171 1270.18 381.416C1269.75 381.661 1269.41 382.019 1269.17 382.49C1268.93 382.954 1268.81 383.514 1268.8 384.17ZM1295.42 393.298C1293.85 393.298 1292.5 392.98 1291.37 392.344C1290.24 391.701 1289.37 390.793 1288.76 389.619C1288.15 388.439 1287.85 387.044 1287.85 385.433C1287.85 383.862 1288.15 382.483 1288.76 381.297C1289.37 380.11 1290.23 379.186 1291.34 378.523C1292.45 377.86 1293.75 377.528 1295.25 377.528C1296.26 377.528 1297.2 377.691 1298.07 378.016C1298.94 378.334 1299.7 378.814 1300.35 379.457C1301.01 380.1 1301.52 380.909 1301.89 381.884C1302.25 382.851 1302.43 383.985 1302.43 385.284V386.447H1289.54V383.822H1298.44C1298.44 383.213 1298.31 382.672 1298.05 382.202C1297.78 381.731 1297.41 381.363 1296.94 381.098C1296.48 380.826 1295.94 380.69 1295.32 380.69C1294.68 380.69 1294.11 380.839 1293.61 381.138C1293.12 381.429 1292.74 381.824 1292.46 382.321C1292.18 382.812 1292.04 383.358 1292.03 383.962V386.457C1292.03 387.213 1292.17 387.866 1292.45 388.416C1292.73 388.966 1293.14 389.391 1293.65 389.689C1294.17 389.987 1294.78 390.136 1295.49 390.136C1295.96 390.136 1296.39 390.07 1296.78 389.938C1297.18 389.805 1297.51 389.606 1297.79 389.341C1298.07 389.076 1298.28 388.751 1298.42 388.366L1302.34 388.625C1302.14 389.566 1301.74 390.388 1301.12 391.091C1300.51 391.787 1299.72 392.33 1298.75 392.722C1297.79 393.106 1296.68 393.298 1295.42 393.298ZM1313.41 377.727V380.909H1303.98V377.727H1313.41ZM1306.14 393V376.624C1306.14 375.517 1306.36 374.598 1306.79 373.869C1307.22 373.14 1307.82 372.593 1308.58 372.229C1309.33 371.864 1310.19 371.682 1311.15 371.682C1311.8 371.682 1312.4 371.732 1312.93 371.831C1313.48 371.93 1313.88 372.02 1314.15 372.099L1313.39 375.281C1313.22 375.228 1313.02 375.179 1312.77 375.132C1312.53 375.086 1312.29 375.062 1312.04 375.062C1311.41 375.062 1310.98 375.208 1310.73 375.5C1310.49 375.785 1310.37 376.186 1310.37 376.703V393H1306.14ZM1324.21 377.727V380.909H1314.78V377.727H1324.21ZM1316.94 393V376.624C1316.94 375.517 1317.16 374.598 1317.59 373.869C1318.03 373.14 1318.62 372.593 1319.38 372.229C1320.13 371.864 1320.99 371.682 1321.95 371.682C1322.6 371.682 1323.2 371.732 1323.73 371.831C1324.28 371.93 1324.68 372.02 1324.95 372.099L1324.19 375.281C1324.02 375.228 1323.82 375.179 1323.57 375.132C1323.34 375.086 1323.09 375.062 1322.84 375.062C1322.21 375.062 1321.78 375.208 1321.54 375.5C1321.29 375.785 1321.17 376.186 1321.17 376.703V393H1316.94ZM1326.8 393V377.727H1331.03V393H1326.8ZM1328.93 375.759C1328.3 375.759 1327.76 375.55 1327.3 375.132C1326.86 374.708 1326.64 374.201 1326.64 373.611C1326.64 373.027 1326.86 372.527 1327.3 372.109C1327.76 371.685 1328.3 371.473 1328.93 371.473C1329.56 371.473 1330.09 371.685 1330.54 372.109C1330.99 372.527 1331.21 373.027 1331.21 373.611C1331.21 374.201 1330.99 374.708 1330.54 375.132C1330.09 375.55 1329.56 375.759 1328.93 375.759ZM1341.33 393.298C1339.76 393.298 1338.42 392.967 1337.29 392.304C1336.17 391.634 1335.31 390.706 1334.71 389.52C1334.11 388.333 1333.81 386.968 1333.81 385.423C1333.81 383.859 1334.11 382.487 1334.72 381.307C1335.32 380.12 1336.19 379.196 1337.31 378.533C1338.43 377.863 1339.76 377.528 1341.31 377.528C1342.64 377.528 1343.81 377.77 1344.81 378.254C1345.81 378.738 1346.6 379.418 1347.18 380.293C1347.77 381.168 1348.09 382.195 1348.15 383.375H1344.15C1344.04 382.613 1343.74 382 1343.26 381.536C1342.78 381.065 1342.15 380.83 1341.38 380.83C1340.72 380.83 1340.15 381.009 1339.66 381.366C1339.17 381.718 1338.8 382.232 1338.52 382.908C1338.25 383.584 1338.12 384.402 1338.12 385.364C1338.12 386.338 1338.25 387.167 1338.51 387.849C1338.79 388.532 1339.17 389.053 1339.66 389.411C1340.15 389.768 1340.72 389.947 1341.38 389.947C1341.86 389.947 1342.3 389.848 1342.68 389.649C1343.07 389.45 1343.39 389.162 1343.64 388.784C1343.9 388.4 1344.07 387.939 1344.15 387.402H1348.15C1348.08 388.569 1347.76 389.596 1347.19 390.484C1346.63 391.366 1345.85 392.055 1344.86 392.553C1343.86 393.05 1342.69 393.298 1341.33 393.298ZM1350.86 393V377.727H1355.1V393H1350.86ZM1352.99 375.759C1352.36 375.759 1351.82 375.55 1351.37 375.132C1350.92 374.708 1350.7 374.201 1350.7 373.611C1350.7 373.027 1350.92 372.527 1351.37 372.109C1351.82 371.685 1352.36 371.473 1352.99 371.473C1353.62 371.473 1354.15 371.685 1354.6 372.109C1355.05 372.527 1355.28 373.027 1355.28 373.611C1355.28 374.201 1355.05 374.708 1354.6 375.132C1354.15 375.55 1353.62 375.759 1352.99 375.759ZM1365.45 393.298C1363.88 393.298 1362.53 392.98 1361.39 392.344C1360.27 391.701 1359.4 390.793 1358.79 389.619C1358.18 388.439 1357.87 387.044 1357.87 385.433C1357.87 383.862 1358.18 382.483 1358.79 381.297C1359.4 380.11 1360.26 379.186 1361.36 378.523C1362.48 377.86 1363.78 377.528 1365.28 377.528C1366.29 377.528 1367.23 377.691 1368.09 378.016C1368.97 378.334 1369.73 378.814 1370.38 379.457C1371.04 380.1 1371.55 380.909 1371.91 381.884C1372.28 382.851 1372.46 383.985 1372.46 385.284V386.447H1359.56V383.822H1368.47C1368.47 383.213 1368.34 382.672 1368.07 382.202C1367.81 381.731 1367.44 381.363 1366.97 381.098C1366.51 380.826 1365.97 380.69 1365.35 380.69C1364.71 380.69 1364.14 380.839 1363.64 381.138C1363.15 381.429 1362.76 381.824 1362.49 382.321C1362.21 382.812 1362.07 383.358 1362.06 383.962V386.457C1362.06 387.213 1362.2 387.866 1362.48 388.416C1362.76 388.966 1363.16 389.391 1363.68 389.689C1364.2 389.987 1364.81 390.136 1365.52 390.136C1365.99 390.136 1366.42 390.07 1366.81 389.938C1367.2 389.805 1367.54 389.606 1367.82 389.341C1368.09 389.076 1368.31 388.751 1368.45 388.366L1372.37 388.625C1372.17 389.566 1371.76 390.388 1371.15 391.091C1370.54 391.787 1369.75 392.33 1368.78 392.722C1367.82 393.106 1366.71 393.298 1365.45 393.298ZM1379.46 384.17V393H1375.22V377.727H1379.26V380.422H1379.44C1379.78 379.534 1380.34 378.831 1381.14 378.314C1381.94 377.79 1382.9 377.528 1384.03 377.528C1385.09 377.528 1386.02 377.76 1386.81 378.224C1387.6 378.688 1388.21 379.351 1388.65 380.213C1389.08 381.068 1389.3 382.089 1389.3 383.276V393H1385.07V384.031C1385.07 383.097 1384.84 382.367 1384.35 381.844C1383.87 381.313 1383.2 381.048 1382.35 381.048C1381.78 381.048 1381.28 381.171 1380.84 381.416C1380.41 381.661 1380.07 382.019 1379.83 382.49C1379.59 382.954 1379.47 383.514 1379.46 384.17ZM1400.77 377.727V380.909H1391.57V377.727H1400.77ZM1393.66 374.068H1397.89V388.307C1397.89 388.698 1397.95 389.003 1398.07 389.222C1398.19 389.434 1398.36 389.583 1398.57 389.669C1398.79 389.755 1399.04 389.798 1399.32 389.798C1399.52 389.798 1399.72 389.782 1399.92 389.749C1400.12 389.709 1400.27 389.679 1400.38 389.659L1401.04 392.811C1400.83 392.877 1400.53 392.954 1400.15 393.04C1399.76 393.133 1399.3 393.189 1398.75 393.209C1397.73 393.249 1396.83 393.113 1396.06 392.801C1395.3 392.49 1394.71 392.006 1394.28 391.349C1393.86 390.693 1393.65 389.865 1393.66 388.864V374.068ZM1416.97 393.298C1415.39 393.298 1414.04 392.98 1412.91 392.344C1411.78 391.701 1410.91 390.793 1410.3 389.619C1409.69 388.439 1409.39 387.044 1409.39 385.433C1409.39 383.862 1409.69 382.483 1410.3 381.297C1410.91 380.11 1411.77 379.186 1412.88 378.523C1413.99 377.86 1415.3 377.528 1416.8 377.528C1417.8 377.528 1418.74 377.691 1419.61 378.016C1420.48 378.334 1421.25 378.814 1421.9 379.457C1422.55 380.1 1423.06 380.909 1423.43 381.884C1423.79 382.851 1423.97 383.985 1423.97 385.284V386.447H1411.08V383.822H1419.99C1419.99 383.213 1419.86 382.672 1419.59 382.202C1419.32 381.731 1418.96 381.363 1418.49 381.098C1418.02 380.826 1417.48 380.69 1416.87 380.69C1416.22 380.69 1415.65 380.839 1415.16 381.138C1414.66 381.429 1414.28 381.824 1414 382.321C1413.72 382.812 1413.58 383.358 1413.57 383.962V386.457C1413.57 387.213 1413.71 387.866 1413.99 388.416C1414.28 388.966 1414.68 389.391 1415.2 389.689C1415.71 389.987 1416.33 390.136 1417.03 390.136C1417.51 390.136 1417.94 390.07 1418.33 389.938C1418.72 389.805 1419.05 389.606 1419.33 389.341C1419.61 389.076 1419.82 388.751 1419.97 388.366L1423.89 388.625C1423.69 389.566 1423.28 390.388 1422.66 391.091C1422.05 391.787 1421.26 392.33 1420.3 392.722C1419.33 393.106 1418.22 393.298 1416.97 393.298ZM1430.97 384.17V393H1426.74V377.727H1430.78V380.422H1430.96C1431.29 379.534 1431.86 378.831 1432.66 378.314C1433.45 377.79 1434.42 377.528 1435.55 377.528C1436.61 377.528 1437.53 377.76 1438.32 378.224C1439.11 378.688 1439.72 379.351 1440.16 380.213C1440.6 381.068 1440.82 382.089 1440.82 383.276V393H1436.58V384.031C1436.59 383.097 1436.35 382.367 1435.87 381.844C1435.38 381.313 1434.72 381.048 1433.87 381.048C1433.3 381.048 1432.79 381.171 1432.36 381.416C1431.93 381.661 1431.59 382.019 1431.34 382.49C1431.1 382.954 1430.98 383.514 1430.97 384.17ZM1451.12 393.298C1449.55 393.298 1448.19 392.98 1447.06 392.344C1445.93 391.701 1445.07 390.793 1444.46 389.619C1443.85 388.439 1443.54 387.044 1443.54 385.433C1443.54 383.862 1443.85 382.483 1444.46 381.297C1445.07 380.11 1445.92 379.186 1447.03 378.523C1448.14 377.86 1449.45 377.528 1450.95 377.528C1451.96 377.528 1452.89 377.691 1453.76 378.016C1454.64 378.334 1455.4 378.814 1456.05 379.457C1456.71 380.1 1457.22 380.909 1457.58 381.884C1457.95 382.851 1458.13 383.985 1458.13 385.284V386.447H1445.23V383.822H1454.14C1454.14 383.213 1454.01 382.672 1453.74 382.202C1453.48 381.731 1453.11 381.363 1452.64 381.098C1452.17 380.826 1451.63 380.69 1451.02 380.69C1450.37 380.69 1449.8 380.839 1449.31 381.138C1448.82 381.429 1448.43 381.824 1448.15 382.321C1447.88 382.812 1447.73 383.358 1447.73 383.962V386.457C1447.73 387.213 1447.87 387.866 1448.14 388.416C1448.43 388.966 1448.83 389.391 1449.35 389.689C1449.86 389.987 1450.48 390.136 1451.19 390.136C1451.66 390.136 1452.09 390.07 1452.48 389.938C1452.87 389.805 1453.21 389.606 1453.48 389.341C1453.76 389.076 1453.97 388.751 1454.12 388.366L1458.04 388.625C1457.84 389.566 1457.43 390.388 1456.81 391.091C1456.2 391.787 1455.42 392.33 1454.45 392.722C1453.49 393.106 1452.38 393.298 1451.12 393.298ZM1460.89 393V377.727H1465V380.392H1465.16C1465.44 379.444 1465.9 378.728 1466.56 378.244C1467.22 377.754 1467.97 377.509 1468.83 377.509C1469.04 377.509 1469.27 377.522 1469.51 377.548C1469.76 377.575 1469.97 377.611 1470.16 377.658V381.416C1469.96 381.357 1469.68 381.304 1469.33 381.257C1468.98 381.211 1468.66 381.188 1468.37 381.188C1467.75 381.188 1467.19 381.323 1466.7 381.595C1466.21 381.86 1465.83 382.232 1465.54 382.709C1465.27 383.186 1465.13 383.736 1465.13 384.359V393H1460.89ZM1478.52 399.045C1477.15 399.045 1475.97 398.857 1474.99 398.479C1474.01 398.107 1473.24 397.6 1472.66 396.957C1472.09 396.314 1471.71 395.592 1471.54 394.79L1475.46 394.263C1475.58 394.568 1475.76 394.853 1476.02 395.118C1476.28 395.383 1476.62 395.595 1477.05 395.754C1477.48 395.92 1478 396.003 1478.62 396.003C1479.54 396.003 1480.3 395.777 1480.89 395.327C1481.5 394.883 1481.8 394.137 1481.8 393.089V390.295H1481.62C1481.43 390.72 1481.16 391.121 1480.79 391.499C1480.41 391.876 1479.94 392.185 1479.35 392.423C1478.77 392.662 1478.07 392.781 1477.27 392.781C1476.12 392.781 1475.07 392.516 1474.13 391.986C1473.2 391.449 1472.45 390.63 1471.9 389.53C1471.35 388.423 1471.07 387.024 1471.07 385.334C1471.07 383.604 1471.35 382.159 1471.92 380.999C1472.48 379.839 1473.23 378.97 1474.16 378.393C1475.1 377.817 1476.14 377.528 1477.26 377.528C1478.11 377.528 1478.83 377.674 1479.4 377.966C1479.98 378.251 1480.44 378.609 1480.8 379.04C1481.15 379.464 1481.43 379.882 1481.62 380.293H1481.78V377.727H1485.99V393.149C1485.99 394.448 1485.67 395.536 1485.03 396.411C1484.39 397.286 1483.51 397.942 1482.39 398.379C1481.27 398.823 1479.98 399.045 1478.52 399.045ZM1478.61 389.599C1479.29 389.599 1479.87 389.43 1480.34 389.092C1480.82 388.748 1481.18 388.257 1481.43 387.621C1481.69 386.978 1481.82 386.209 1481.82 385.314C1481.82 384.419 1481.69 383.643 1481.44 382.987C1481.19 382.324 1480.83 381.811 1480.35 381.446C1479.87 381.081 1479.29 380.899 1478.61 380.899C1477.91 380.899 1477.33 381.088 1476.85 381.466C1476.37 381.837 1476.01 382.354 1475.76 383.017C1475.52 383.68 1475.4 384.446 1475.4 385.314C1475.4 386.196 1475.52 386.958 1475.76 387.601C1476.02 388.237 1476.38 388.731 1476.85 389.082C1477.33 389.427 1477.91 389.599 1478.61 389.599ZM1491.97 398.727C1491.43 398.727 1490.93 398.684 1490.46 398.598C1490 398.518 1489.61 398.416 1489.31 398.29L1490.26 395.128C1490.76 395.28 1491.21 395.363 1491.6 395.376C1492.01 395.39 1492.36 395.297 1492.65 395.098C1492.95 394.899 1493.19 394.561 1493.37 394.084L1493.62 393.438L1488.14 377.727H1492.6L1495.76 388.943H1495.92L1499.11 377.727H1503.59L1497.66 394.651C1497.37 395.473 1496.99 396.188 1496.5 396.798C1496.01 397.415 1495.4 397.889 1494.66 398.22C1493.91 398.558 1493.02 398.727 1491.97 398.727ZM1291.33 427.298C1289.76 427.298 1288.42 426.967 1287.29 426.304C1286.17 425.634 1285.31 424.706 1284.71 423.52C1284.11 422.333 1283.81 420.968 1283.81 419.423C1283.81 417.859 1284.11 416.487 1284.72 415.307C1285.33 414.12 1286.19 413.196 1287.31 412.533C1288.43 411.863 1289.76 411.528 1291.31 411.528C1292.64 411.528 1293.81 411.77 1294.81 412.254C1295.81 412.738 1296.6 413.418 1297.19 414.293C1297.77 415.168 1298.09 416.195 1298.15 417.375H1294.15C1294.04 416.613 1293.74 416 1293.26 415.536C1292.78 415.065 1292.15 414.83 1291.38 414.83C1290.72 414.83 1290.15 415.009 1289.66 415.366C1289.17 415.718 1288.8 416.232 1288.53 416.908C1288.25 417.584 1288.12 418.402 1288.12 419.364C1288.12 420.338 1288.25 421.167 1288.52 421.849C1288.79 422.532 1289.17 423.053 1289.66 423.411C1290.15 423.768 1290.72 423.947 1291.38 423.947C1291.86 423.947 1292.3 423.848 1292.68 423.649C1293.07 423.45 1293.39 423.162 1293.65 422.784C1293.9 422.4 1294.07 421.939 1294.15 421.402H1298.15C1298.08 422.569 1297.77 423.596 1297.2 424.484C1296.63 425.366 1295.85 426.055 1294.86 426.553C1293.86 427.05 1292.69 427.298 1291.33 427.298ZM1307.76 427.298C1306.22 427.298 1304.88 426.97 1303.76 426.314C1302.64 425.651 1301.77 424.73 1301.16 423.55C1300.55 422.363 1300.25 420.988 1300.25 419.423C1300.25 417.846 1300.55 416.467 1301.16 415.287C1301.77 414.1 1302.64 413.179 1303.76 412.523C1304.88 411.86 1306.22 411.528 1307.76 411.528C1309.31 411.528 1310.64 411.86 1311.76 412.523C1312.89 413.179 1313.76 414.1 1314.37 415.287C1314.97 416.467 1315.28 417.846 1315.28 419.423C1315.28 420.988 1314.97 422.363 1314.37 423.55C1313.76 424.73 1312.89 425.651 1311.76 426.314C1310.64 426.97 1309.31 427.298 1307.76 427.298ZM1307.78 424.017C1308.49 424.017 1309.07 423.818 1309.54 423.42C1310.01 423.016 1310.37 422.466 1310.61 421.77C1310.85 421.074 1310.97 420.282 1310.97 419.393C1310.97 418.505 1310.85 417.713 1310.61 417.017C1310.37 416.321 1310.01 415.771 1309.54 415.366C1309.07 414.962 1308.49 414.76 1307.78 414.76C1307.07 414.76 1306.48 414.962 1305.99 415.366C1305.52 415.771 1305.15 416.321 1304.91 417.017C1304.67 417.713 1304.55 418.505 1304.55 419.393C1304.55 420.282 1304.67 421.074 1304.91 421.77C1305.15 422.466 1305.52 423.016 1305.99 423.42C1306.48 423.818 1307.07 424.017 1307.78 424.017ZM1322.27 418.17V427H1318.03V411.727H1322.07V414.422H1322.25C1322.59 413.534 1323.15 412.831 1323.95 412.314C1324.75 411.79 1325.71 411.528 1326.84 411.528C1327.9 411.528 1328.83 411.76 1329.62 412.224C1330.41 412.688 1331.02 413.351 1331.46 414.213C1331.89 415.068 1332.11 416.089 1332.11 417.276V427H1327.88V418.031C1327.88 417.097 1327.65 416.367 1327.16 415.844C1326.68 415.313 1326.01 415.048 1325.16 415.048C1324.59 415.048 1324.09 415.171 1323.65 415.416C1323.22 415.661 1322.88 416.019 1322.64 416.49C1322.4 416.954 1322.28 417.514 1322.27 418.17ZM1348.16 416.082L1344.28 416.321C1344.22 415.99 1344.07 415.691 1343.85 415.426C1343.64 415.154 1343.35 414.939 1342.99 414.78C1342.64 414.614 1342.22 414.531 1341.73 414.531C1341.07 414.531 1340.52 414.67 1340.07 414.949C1339.61 415.221 1339.39 415.585 1339.39 416.043C1339.39 416.407 1339.54 416.715 1339.83 416.967C1340.12 417.219 1340.62 417.421 1341.33 417.574L1344.09 418.131C1345.58 418.436 1346.68 418.926 1347.41 419.602C1348.14 420.278 1348.51 421.167 1348.51 422.267C1348.51 423.268 1348.21 424.146 1347.62 424.902C1347.04 425.658 1346.24 426.248 1345.22 426.672C1344.2 427.089 1343.03 427.298 1341.71 427.298C1339.68 427.298 1338.07 426.877 1336.87 426.036C1335.68 425.187 1334.98 424.034 1334.78 422.575L1338.94 422.357C1339.07 422.973 1339.37 423.444 1339.86 423.768C1340.34 424.087 1340.96 424.246 1341.72 424.246C1342.46 424.246 1343.06 424.103 1343.51 423.818C1343.96 423.527 1344.2 423.152 1344.2 422.695C1344.2 422.31 1344.03 421.995 1343.71 421.75C1343.4 421.498 1342.91 421.306 1342.24 421.173L1339.6 420.646C1338.11 420.348 1337 419.831 1336.27 419.095C1335.54 418.359 1335.18 417.421 1335.18 416.281C1335.18 415.3 1335.45 414.455 1335.98 413.746C1336.52 413.036 1337.27 412.49 1338.24 412.105C1339.21 411.721 1340.35 411.528 1341.66 411.528C1343.59 411.528 1345.1 411.936 1346.21 412.751C1347.32 413.567 1347.97 414.677 1348.16 416.082ZM1360.97 420.497V411.727H1365.2V427H1361.14V424.226H1360.98C1360.63 425.121 1360.06 425.84 1359.26 426.384C1358.46 426.927 1357.49 427.199 1356.35 427.199C1355.32 427.199 1354.43 426.967 1353.65 426.503C1352.88 426.039 1352.27 425.379 1351.83 424.524C1351.4 423.669 1351.18 422.645 1351.17 421.452V411.727H1355.41V420.696C1355.42 421.598 1355.66 422.31 1356.14 422.834C1356.61 423.357 1357.25 423.619 1358.06 423.619C1358.57 423.619 1359.04 423.503 1359.49 423.271C1359.93 423.033 1360.29 422.681 1360.56 422.217C1360.84 421.753 1360.98 421.18 1360.97 420.497ZM1368.59 427V411.727H1372.63V414.422H1372.81C1373.13 413.527 1373.66 412.821 1374.4 412.304C1375.14 411.787 1376.03 411.528 1377.06 411.528C1378.11 411.528 1379 411.79 1379.74 412.314C1380.47 412.831 1380.97 413.534 1381.21 414.422H1381.37C1381.68 413.547 1382.24 412.848 1383.06 412.324C1383.88 411.794 1384.85 411.528 1385.97 411.528C1387.4 411.528 1388.56 411.982 1389.44 412.891C1390.34 413.792 1390.79 415.071 1390.79 416.729V427H1386.56V417.564C1386.56 416.715 1386.33 416.079 1385.88 415.655C1385.43 415.231 1384.87 415.018 1384.19 415.018C1383.42 415.018 1382.82 415.264 1382.39 415.754C1381.96 416.238 1381.75 416.878 1381.75 417.673V427H1377.64V417.474C1377.64 416.725 1377.43 416.129 1376.99 415.685C1376.57 415.241 1376.01 415.018 1375.31 415.018C1374.84 415.018 1374.42 415.138 1374.04 415.376C1373.67 415.608 1373.38 415.937 1373.16 416.361C1372.94 416.778 1372.83 417.269 1372.83 417.832V427H1368.59ZM1394.13 432.727V411.727H1398.31V414.293H1398.5C1398.68 413.882 1398.95 413.464 1399.3 413.04C1399.66 412.609 1400.12 412.251 1400.69 411.966C1401.27 411.674 1401.99 411.528 1402.84 411.528C1403.96 411.528 1404.98 411.82 1405.92 412.403C1406.87 412.98 1407.62 413.852 1408.18 415.018C1408.74 416.179 1409.03 417.634 1409.03 419.384C1409.03 421.087 1408.75 422.526 1408.2 423.699C1407.66 424.866 1406.92 425.75 1405.97 426.354C1405.04 426.95 1403.99 427.249 1402.83 427.249C1402.01 427.249 1401.31 427.113 1400.73 426.841C1400.16 426.569 1399.7 426.228 1399.33 425.817C1398.97 425.399 1398.69 424.978 1398.5 424.554H1398.37V432.727H1394.13ZM1398.28 419.364C1398.28 420.272 1398.4 421.064 1398.66 421.74C1398.91 422.416 1399.27 422.943 1399.75 423.321C1400.23 423.692 1400.81 423.878 1401.49 423.878C1402.18 423.878 1402.76 423.689 1403.24 423.311C1403.72 422.927 1404.08 422.396 1404.32 421.72C1404.58 421.037 1404.7 420.252 1404.7 419.364C1404.7 418.482 1404.58 417.706 1404.33 417.037C1404.09 416.367 1403.73 415.844 1403.25 415.466C1402.77 415.088 1402.19 414.899 1401.49 414.899C1400.8 414.899 1400.22 415.081 1399.74 415.446C1399.27 415.811 1398.91 416.328 1398.66 416.997C1398.4 417.667 1398.28 418.455 1398.28 419.364ZM1419.97 411.727V414.909H1410.78V411.727H1419.97ZM1412.86 408.068H1417.1V422.307C1417.1 422.698 1417.16 423.003 1417.28 423.222C1417.4 423.434 1417.56 423.583 1417.78 423.669C1418 423.755 1418.25 423.798 1418.53 423.798C1418.73 423.798 1418.93 423.782 1419.13 423.749C1419.33 423.709 1419.48 423.679 1419.59 423.659L1420.25 426.811C1420.04 426.877 1419.74 426.954 1419.36 427.04C1418.97 427.133 1418.51 427.189 1417.96 427.209C1416.93 427.249 1416.04 427.113 1415.27 426.801C1414.51 426.49 1413.92 426.006 1413.49 425.349C1413.07 424.693 1412.86 423.865 1412.86 422.864V408.068ZM1422.73 427V411.727H1426.97V427H1422.73ZM1424.86 409.759C1424.23 409.759 1423.69 409.55 1423.24 409.132C1422.8 408.708 1422.57 408.201 1422.57 407.611C1422.57 407.027 1422.8 406.527 1423.24 406.109C1423.69 405.685 1424.23 405.473 1424.86 405.473C1425.49 405.473 1426.03 405.685 1426.47 406.109C1426.92 406.527 1427.15 407.027 1427.15 407.611C1427.15 408.201 1426.92 408.708 1426.47 409.132C1426.03 409.55 1425.49 409.759 1424.86 409.759ZM1437.26 427.298C1435.72 427.298 1434.38 426.97 1433.26 426.314C1432.14 425.651 1431.27 424.73 1430.66 423.55C1430.05 422.363 1429.75 420.988 1429.75 419.423C1429.75 417.846 1430.05 416.467 1430.66 415.287C1431.27 414.1 1432.14 413.179 1433.26 412.523C1434.38 411.86 1435.72 411.528 1437.26 411.528C1438.81 411.528 1440.14 411.86 1441.26 412.523C1442.39 413.179 1443.26 414.1 1443.87 415.287C1444.47 416.467 1444.78 417.846 1444.78 419.423C1444.78 420.988 1444.47 422.363 1443.87 423.55C1443.26 424.73 1442.39 425.651 1441.26 426.314C1440.14 426.97 1438.81 427.298 1437.26 427.298ZM1437.28 424.017C1437.99 424.017 1438.57 423.818 1439.04 423.42C1439.51 423.016 1439.87 422.466 1440.11 421.77C1440.35 421.074 1440.47 420.282 1440.47 419.393C1440.47 418.505 1440.35 417.713 1440.11 417.017C1439.87 416.321 1439.51 415.771 1439.04 415.366C1438.57 414.962 1437.99 414.76 1437.28 414.76C1436.57 414.76 1435.98 414.962 1435.49 415.366C1435.02 415.771 1434.65 416.321 1434.41 417.017C1434.17 417.713 1434.05 418.505 1434.05 419.393C1434.05 420.282 1434.17 421.074 1434.41 421.77C1434.65 422.466 1435.02 423.016 1435.49 423.42C1435.98 423.818 1436.57 424.017 1437.28 424.017ZM1451.77 418.17V427H1447.53V411.727H1451.57V414.422H1451.75C1452.09 413.534 1452.65 412.831 1453.45 412.314C1454.25 411.79 1455.21 411.528 1456.34 411.528C1457.4 411.528 1458.33 411.76 1459.12 412.224C1459.91 412.688 1460.52 413.351 1460.96 414.213C1461.39 415.068 1461.61 416.089 1461.61 417.276V427H1457.38V418.031C1457.38 417.097 1457.15 416.367 1456.66 415.844C1456.18 415.313 1455.51 415.048 1454.66 415.048C1454.09 415.048 1453.59 415.171 1453.15 415.416C1452.72 415.661 1452.38 416.019 1452.14 416.49C1451.9 416.954 1451.78 417.514 1451.77 418.17Z" fill="#043266"/>
<g filter="url(#filter1_d_969_1589)">
<circle cx="1373.5" cy="491.5" r="32.5" fill="white"/>
</g>
<path d="M1382.59 473.688L1371.62 484.938L1385.69 489.625L1370.97 503.406L1375.75 506.031L1362.25 509.312L1364.78 495.438L1367.5 500.219L1376.31 491.5L1362.25 486.812L1374.44 473.688H1382.59Z" fill="#1CDF8C"/>
<path d="M552.657 401H548.043L555.073 380.636H560.621L567.641 401H563.028L557.927 385.29H557.768L552.657 401ZM552.368 392.996H563.266V396.357H552.368V392.996ZM576.573 401V380.636H580.808V388.293H580.938C581.123 387.882 581.392 387.464 581.743 387.04C582.101 386.609 582.565 386.251 583.135 385.966C583.712 385.674 584.428 385.528 585.283 385.528C586.396 385.528 587.424 385.82 588.365 386.403C589.307 386.98 590.059 387.852 590.622 389.018C591.186 390.179 591.468 391.634 591.468 393.384C591.468 395.087 591.192 396.526 590.642 397.699C590.099 398.866 589.356 399.75 588.415 400.354C587.48 400.95 586.433 401.249 585.273 401.249C584.451 401.249 583.752 401.113 583.175 400.841C582.605 400.569 582.137 400.228 581.773 399.817C581.408 399.399 581.13 398.978 580.938 398.554H580.749V401H576.573ZM580.719 393.364C580.719 394.272 580.845 395.064 581.097 395.74C581.349 396.416 581.713 396.943 582.191 397.321C582.668 397.692 583.248 397.878 583.931 397.878C584.62 397.878 585.203 397.689 585.681 397.311C586.158 396.927 586.519 396.396 586.764 395.72C587.016 395.037 587.142 394.252 587.142 393.364C587.142 392.482 587.02 391.706 586.774 391.037C586.529 390.367 586.168 389.844 585.691 389.466C585.213 389.088 584.627 388.899 583.931 388.899C583.241 388.899 582.658 389.081 582.181 389.446C581.71 389.811 581.349 390.328 581.097 390.997C580.845 391.667 580.719 392.455 580.719 393.364ZM601.254 401.298C599.683 401.298 598.331 400.98 597.197 400.344C596.07 399.701 595.202 398.793 594.592 397.619C593.982 396.439 593.677 395.044 593.677 393.433C593.677 391.862 593.982 390.483 594.592 389.297C595.202 388.11 596.06 387.186 597.167 386.523C598.281 385.86 599.587 385.528 601.085 385.528C602.093 385.528 603.031 385.691 603.899 386.016C604.774 386.334 605.536 386.814 606.186 387.457C606.842 388.1 607.353 388.909 607.717 389.884C608.082 390.851 608.264 391.985 608.264 393.284V394.447H595.368V391.822H604.277C604.277 391.213 604.144 390.672 603.879 390.202C603.614 389.731 603.246 389.363 602.775 389.098C602.311 388.826 601.771 388.69 601.155 388.69C600.512 388.69 599.942 388.839 599.444 389.138C598.954 389.429 598.569 389.824 598.291 390.321C598.013 390.812 597.87 391.358 597.863 391.962V394.457C597.863 395.213 598.003 395.866 598.281 396.416C598.566 396.966 598.967 397.391 599.484 397.689C600.001 397.987 600.614 398.136 601.324 398.136C601.794 398.136 602.225 398.07 602.616 397.938C603.007 397.805 603.342 397.606 603.621 397.341C603.899 397.076 604.111 396.751 604.257 396.366L608.175 396.625C607.976 397.566 607.568 398.388 606.952 399.091C606.342 399.787 605.553 400.33 604.585 400.722C603.624 401.106 602.514 401.298 601.254 401.298ZM619.152 385.727V388.909H609.954V385.727H619.152ZM612.042 382.068H616.278V396.307C616.278 396.698 616.338 397.003 616.457 397.222C616.577 397.434 616.742 397.583 616.954 397.669C617.173 397.755 617.425 397.798 617.71 397.798C617.909 397.798 618.108 397.782 618.307 397.749C618.506 397.709 618.658 397.679 618.764 397.659L619.43 400.811C619.218 400.877 618.92 400.954 618.535 401.04C618.151 401.133 617.684 401.189 617.133 401.209C616.113 401.249 615.218 401.113 614.449 400.801C613.686 400.49 613.093 400.006 612.669 399.349C612.245 398.693 612.036 397.865 612.042 396.864V382.068ZM630.035 385.727V388.909H620.837V385.727H630.035ZM622.925 382.068H627.161V396.307C627.161 396.698 627.221 397.003 627.34 397.222C627.459 397.434 627.625 397.583 627.837 397.669C628.056 397.755 628.308 397.798 628.593 397.798C628.792 397.798 628.991 397.782 629.189 397.749C629.388 397.709 629.541 397.679 629.647 397.659L630.313 400.811C630.101 400.877 629.803 400.954 629.418 401.04C629.034 401.133 628.566 401.189 628.016 401.209C626.995 401.249 626.1 401.113 625.331 400.801C624.569 400.49 623.976 400.006 623.552 399.349C623.127 398.693 622.919 397.865 622.925 396.864V382.068ZM639.59 401.298C638.019 401.298 636.667 400.98 635.533 400.344C634.406 399.701 633.538 398.793 632.928 397.619C632.318 396.439 632.013 395.044 632.013 393.433C632.013 391.862 632.318 390.483 632.928 389.297C633.538 388.11 634.396 387.186 635.503 386.523C636.617 385.86 637.923 385.528 639.421 385.528C640.429 385.528 641.367 385.691 642.235 386.016C643.11 386.334 643.872 386.814 644.522 387.457C645.178 388.1 645.689 388.909 646.053 389.884C646.418 390.851 646.6 391.985 646.6 393.284V394.447H633.704V391.822H642.613C642.613 391.213 642.48 390.672 642.215 390.202C641.95 389.731 641.582 389.363 641.111 389.098C640.647 388.826 640.107 388.69 639.491 388.69C638.848 388.69 638.278 388.839 637.78 389.138C637.29 389.429 636.905 389.824 636.627 390.321C636.349 390.812 636.206 391.358 636.199 391.962V394.457C636.199 395.213 636.339 395.866 636.617 396.416C636.902 396.966 637.303 397.391 637.82 397.689C638.337 397.987 638.95 398.136 639.66 398.136C640.13 398.136 640.561 398.07 640.952 397.938C641.343 397.805 641.678 397.606 641.956 397.341C642.235 397.076 642.447 396.751 642.593 396.366L646.51 396.625C646.312 397.566 645.904 398.388 645.287 399.091C644.678 399.787 643.889 400.33 642.921 400.722C641.96 401.106 640.849 401.298 639.59 401.298ZM649.364 401V385.727H653.471V388.392H653.63C653.908 387.444 654.376 386.728 655.032 386.244C655.688 385.754 656.444 385.509 657.299 385.509C657.511 385.509 657.74 385.522 657.985 385.548C658.23 385.575 658.446 385.611 658.631 385.658V389.416C658.432 389.357 658.157 389.304 657.806 389.257C657.455 389.211 657.133 389.188 656.841 389.188C656.218 389.188 655.662 389.323 655.171 389.595C654.687 389.86 654.303 390.232 654.018 390.709C653.739 391.186 653.6 391.736 653.6 392.359V401H649.364ZM670.314 401L666.158 385.727H670.444L672.81 395.989H672.949L675.415 385.727H679.621L682.127 395.929H682.256L684.583 385.727H688.858L684.712 401H680.228L677.603 391.395H677.414L674.789 401H670.314ZM697.636 401.298C696.091 401.298 694.756 400.97 693.629 400.314C692.508 399.651 691.643 398.73 691.034 397.55C690.424 396.363 690.119 394.988 690.119 393.423C690.119 391.846 690.424 390.467 691.034 389.287C691.643 388.1 692.508 387.179 693.629 386.523C694.756 385.86 696.091 385.528 697.636 385.528C699.18 385.528 700.513 385.86 701.633 386.523C702.76 387.179 703.628 388.1 704.238 389.287C704.848 390.467 705.153 391.846 705.153 393.423C705.153 394.988 704.848 396.363 704.238 397.55C703.628 398.73 702.76 399.651 701.633 400.314C700.513 400.97 699.18 401.298 697.636 401.298ZM697.656 398.017C698.358 398.017 698.945 397.818 699.416 397.42C699.886 397.016 700.241 396.466 700.48 395.77C700.725 395.074 700.847 394.282 700.847 393.393C700.847 392.505 700.725 391.713 700.48 391.017C700.241 390.321 699.886 389.771 699.416 389.366C698.945 388.962 698.358 388.76 697.656 388.76C696.946 388.76 696.35 388.962 695.866 389.366C695.389 389.771 695.027 390.321 694.782 391.017C694.544 391.713 694.424 392.505 694.424 393.393C694.424 394.282 694.544 395.074 694.782 395.77C695.027 396.466 695.389 397.016 695.866 397.42C696.35 397.818 696.946 398.017 697.656 398.017ZM707.907 401V385.727H712.014V388.392H712.173C712.451 387.444 712.919 386.728 713.575 386.244C714.231 385.754 714.987 385.509 715.842 385.509C716.054 385.509 716.283 385.522 716.528 385.548C716.773 385.575 716.989 385.611 717.174 385.658V389.416C716.975 389.357 716.7 389.304 716.349 389.257C715.998 389.211 715.676 389.188 715.384 389.188C714.761 389.188 714.204 389.323 713.714 389.595C713.23 389.86 712.846 390.232 712.561 390.709C712.282 391.186 712.143 391.736 712.143 392.359V401H707.907ZM723.6 380.636V401H719.364V380.636H723.6ZM732.621 401.249C731.461 401.249 730.41 400.95 729.469 400.354C728.534 399.75 727.792 398.866 727.242 397.699C726.698 396.526 726.426 395.087 726.426 393.384C726.426 391.634 726.708 390.179 727.271 389.018C727.835 387.852 728.584 386.98 729.519 386.403C730.46 385.82 731.491 385.528 732.611 385.528C733.466 385.528 734.179 385.674 734.749 385.966C735.325 386.251 735.789 386.609 736.141 387.04C736.499 387.464 736.771 387.882 736.956 388.293H737.085V380.636H741.311V401H737.135V398.554H736.956C736.757 398.978 736.476 399.399 736.111 399.817C735.753 400.228 735.286 400.569 734.709 400.841C734.139 401.113 733.443 401.249 732.621 401.249ZM733.963 397.878C734.646 397.878 735.223 397.692 735.693 397.321C736.171 396.943 736.535 396.416 736.787 395.74C737.046 395.064 737.175 394.272 737.175 393.364C737.175 392.455 737.049 391.667 736.797 390.997C736.545 390.328 736.181 389.811 735.703 389.446C735.226 389.081 734.646 388.899 733.963 388.899C733.267 388.899 732.681 389.088 732.203 389.466C731.726 389.844 731.365 390.367 731.119 391.037C730.874 391.706 730.752 392.482 730.752 393.364C730.752 394.252 730.874 395.037 731.119 395.72C731.371 396.396 731.733 396.927 732.203 397.311C732.681 397.689 733.267 397.878 733.963 397.878Z" fill="#043266"/>
<g filter="url(#filter2_d_969_1589)">
<circle cx="642.5" cy="465.5" r="32.5" fill="white"/>
</g>
<path d="M641.076 446.406C641.193 446.406 641.34 446.465 641.467 446.641C640.9 445.83 642.102 446.182 642.17 445.41C642.854 444.902 642.609 444.57 642.805 444.551L643.02 444.375C642.6 444.531 642.453 444.561 642.336 444.561H642.141C641.994 444.561 641.75 444.59 641.174 444.766C639.855 444.863 638.908 446.289 638.459 446.328C638 446.572 638.02 446.621 638.127 446.621C638.156 446.621 638.195 446.611 638.234 446.611C638.273 446.611 638.303 446.602 638.332 446.602C638.439 446.602 638.41 446.65 637.785 446.943C637.932 446.982 636.691 447.529 636.682 448.389C636.643 448.721 636.779 448.945 637.004 448.945C637.199 448.945 637.443 448.799 637.707 448.428C638.586 447.412 640.441 447.314 641.242 446.699C640.744 446.66 640.842 446.406 641.076 446.406ZM636.613 446.748C636.525 446.748 636.643 446.641 636.77 446.533C636.906 446.426 637.062 446.318 637.062 446.318L637.053 446.328C637.58 446.123 637.258 446.074 637.541 445.938H637.521C637.463 445.938 637.57 445.859 637.668 445.771C637.766 445.693 637.854 445.605 637.766 445.605C637.717 445.605 637.59 445.635 637.375 445.723C637.443 445.625 637.707 445.557 638.078 445.352C637.541 445.527 637.121 445.635 637.072 445.635C637.033 445.635 637.258 445.557 637.932 445.352C637.961 445.352 637.99 445.361 638.01 445.361C638.078 445.361 638.107 445.342 638.098 445.322C638.088 445.303 638.049 445.293 637.98 445.293C637.014 445.371 636.291 445.977 636.506 446.055C636.633 446.016 636.721 445.996 636.779 445.996C636.906 445.996 636.848 446.104 636.594 446.26C636.711 446.533 634.641 447.236 634.406 447.49C634.523 447.422 634.602 447.402 634.641 447.402C634.797 447.402 634.592 447.705 634.387 447.852C634.514 447.969 634.611 448.008 634.689 448.008C634.895 448.008 634.982 447.725 635.158 447.637C635.197 447.715 635.236 447.754 635.285 447.754C635.451 447.754 635.656 447.344 635.822 447.129C635.871 447.178 635.93 447.217 636.008 447.217C636.164 447.217 636.398 447.09 636.77 446.729C636.691 446.738 636.633 446.748 636.613 446.748ZM634.367 448.545C634.016 448.76 633.83 448.848 633.752 448.848C633.605 448.848 633.801 448.574 633.977 448.291C634.152 448.018 634.309 447.744 634.084 447.744C633.977 447.744 633.781 447.803 633.469 447.959C632.619 448.525 631.184 450.088 630.549 450.088H630.49C631.516 449.336 631.213 447.861 632.648 447.48C634.064 446.67 635.031 446.924 636.291 445.996C635.92 446.182 635.373 446.387 635.246 446.387C635.168 446.387 635.285 446.289 635.793 446.045C635.744 446.055 635.705 446.064 635.676 446.064C635.334 446.064 637.922 445.137 638.049 445.117C636.984 445.264 635.266 446.152 635.031 446.152C635.002 446.152 635.002 446.143 635.002 446.123C635.041 446.094 635.041 446.074 635.002 446.074C634.875 446.074 634.348 446.25 633.811 446.426C633.283 446.602 632.746 446.787 632.629 446.787C632.59 446.787 632.59 446.768 632.648 446.729C628.039 449.346 624.191 453.76 622.99 458.994C623.488 460.137 623.146 462.314 623.967 462.949C624.904 463.74 623.166 466.035 623.625 467.451C624.094 470.01 626.115 471.758 626.33 474.375C626.701 476.172 628.059 478.369 628.625 479.512C629.055 479.941 630.236 481.182 630.441 481.182C630.52 481.182 630.471 480.996 630.158 480.498C629.963 479.941 628.83 478.486 629.377 478.486C629.406 478.486 629.436 478.486 629.475 478.496C628.801 477.812 630.969 477.998 629.455 477.07C629.279 476.855 629.24 476.787 629.279 476.787C629.328 476.787 629.465 476.865 629.621 476.943C629.787 477.021 629.982 477.1 630.139 477.1C630.383 477.1 630.549 476.934 630.451 476.328C630.49 476.348 630.529 476.348 630.559 476.348C630.813 476.348 630.725 475.85 630.744 475.352C630.764 474.854 630.891 474.355 631.574 474.355C631.652 474.355 631.74 474.365 631.828 474.375C633.41 473.516 632.033 471.143 633.85 470.273C633.781 468.301 631.135 468.203 630.139 467.402C629.973 467.5 629.816 467.529 629.66 467.529C629.484 467.529 629.328 467.49 629.191 467.441C629.055 467.402 628.928 467.354 628.84 467.354C628.82 467.354 628.801 467.354 628.781 467.363C630.48 466.914 629.24 464.551 627.834 464.551H627.736C627.629 463.525 627.102 463.916 627.043 463.066C626.955 463.115 626.867 463.135 626.779 463.135C626.545 463.135 626.33 462.969 626.145 462.812C625.959 462.646 625.803 462.49 625.666 462.49C625.559 462.49 625.461 462.598 625.373 462.91C625.471 462.432 625.441 462.275 625.344 462.275C625.246 462.275 625.07 462.441 624.875 462.607C624.689 462.773 624.475 462.939 624.309 462.939H624.26C623.117 462.129 624.27 460.693 623.664 459.59C624.055 459.17 624.211 458.457 624.035 458.457C623.947 458.457 623.771 458.633 623.498 459.111C623.107 458.115 624.143 455.859 625.021 455.732C625.051 455.732 625.07 455.723 625.1 455.723C625.256 455.723 625.412 455.801 625.549 455.967C625.627 456.426 625.432 457.393 625.51 457.393C625.549 457.393 625.627 457.197 625.822 456.689C626.076 455.527 627.854 454.688 628.039 453.975C628.049 453.984 628.049 453.984 628.059 453.984C628.264 453.984 629.582 452.822 630.158 452.695C630.383 452.471 630.539 452.393 630.656 452.393C630.783 452.393 630.852 452.49 630.9 452.578C630.949 452.676 630.988 452.764 631.037 452.764C631.076 452.764 631.125 452.705 631.213 452.539C630.91 451.943 631.691 451.377 631.477 451.377C631.398 451.377 631.164 451.455 630.686 451.65C630.607 451.689 630.568 451.699 630.549 451.699C630.49 451.699 630.725 451.543 631.066 451.387C631.408 451.23 631.838 451.074 632.199 451.074C632.375 451.074 632.531 451.113 632.648 451.211C634.162 450.85 633.332 450.352 633.41 450.352H633.43C633.859 450.098 633.732 449.141 634.367 448.545ZM627.6 452.539C627.58 452.539 627.668 452.412 627.961 452.051C628.566 451.602 629.055 451.299 628.498 451.006C628.742 450.898 628.977 450.771 629.201 450.635C629.191 451.113 628.791 452.275 628.576 452.275C628.527 452.275 628.479 452.207 628.459 452.061C628.586 451.836 628.596 451.748 628.547 451.748C628.469 451.748 628.244 451.943 628.029 452.148C627.814 452.334 627.619 452.539 627.6 452.539ZM628.156 452.803C627.893 452.803 627.941 452.637 628.752 452.471C629.104 452.422 628.83 452.441 629.25 452.344C628.84 452.676 628.381 452.803 628.156 452.803ZM643.342 451.816C643.459 451.797 643.547 451.797 643.615 451.797C643.898 451.797 643.771 451.914 643.605 452.031C643.439 452.148 643.234 452.266 643.352 452.266C643.42 452.266 643.605 452.227 643.986 452.119C645.91 451.982 643.234 450.352 643.664 449.805L643.547 449.766C642.756 450.771 644.074 450.791 643.342 451.816ZM642.541 451.855C642.678 451.855 642.854 451.699 643.039 451.26C643.293 450.957 643.186 450.918 642.912 450.771C642.16 450.967 642.229 451.855 642.541 451.855ZM649.279 454.951C649.25 454.951 649.23 454.961 649.211 454.971C649.289 454.99 649.367 455.01 649.445 455.01C649.367 454.971 649.318 454.951 649.279 454.951ZM662.395 457.383C662.561 457.744 662.648 457.891 662.658 457.891C662.727 457.891 661.428 454.727 660.891 454.16C658.088 449.551 653.479 446.025 648.225 444.707H648.215C648.078 444.707 648.234 444.775 648.42 444.844C648.605 444.912 648.83 444.98 648.83 444.98C648.83 444.98 648.684 444.932 648.234 444.805C647.736 444.658 647.229 444.551 646.711 444.512C646.623 444.541 648.85 445.42 650.344 445.879C649.846 445.723 649.328 445.586 649.201 445.586C649.113 445.586 649.201 445.645 649.563 445.801C649.123 445.674 648.938 445.615 648.918 445.615C648.889 445.615 649.504 445.82 650.08 446.025C650.666 446.23 651.223 446.436 651.066 446.436C651.027 446.436 650.92 446.416 650.754 446.387C651.252 446.66 651.428 446.768 651.398 446.768C651.35 446.768 650.734 446.475 650.1 446.182C649.475 445.889 648.84 445.596 648.752 445.596C648.703 445.596 648.83 445.693 649.26 445.947C649.846 446.201 650.432 446.455 650.266 446.455C650.188 446.455 649.963 446.406 649.523 446.279C650.5 446.777 648.83 446.582 649.396 447.256C649.084 446.963 648.957 446.865 648.928 446.865C648.898 446.865 648.977 446.982 649.055 447.1C649.133 447.217 649.191 447.334 649.123 447.334H649.104C649.787 448.076 648.625 447.412 649.455 448.076C648.83 447.793 647.766 447.324 648.244 447.324C648.361 447.324 648.586 447.354 648.937 447.432C648.303 446.689 646.506 446.66 646.467 446.572C646.018 446.602 646.008 446.943 646.086 447.568C646.076 448.555 645.109 448.574 645.236 449.141C645.236 449.131 645.246 449.131 645.246 449.131C645.266 449.131 645.275 449.326 645.334 449.531C645.402 449.727 645.52 449.932 645.773 449.932C645.91 449.932 646.086 449.873 646.301 449.727C646.604 450.273 646.877 450.469 647.092 450.469C647.414 450.469 647.609 450.029 647.59 449.629C647.238 449.434 646.779 447.812 647.287 447.812C647.365 447.812 647.463 447.852 647.59 447.939C646.799 449.883 650.715 448.584 648.498 449.473C648.996 450.127 648.186 450.098 648.42 450.889C648.039 450.996 647.619 451.094 647.248 451.094C646.701 451.094 646.281 450.859 646.33 450.039C645.646 450.4 647.014 451.621 645.656 451.621H645.578C644.924 452.822 642.473 452.412 644.396 453.682C644.504 454.238 644.152 454.336 643.703 454.336C643.586 454.336 643.459 454.326 643.332 454.316C643.205 454.307 643.078 454.307 642.961 454.307C642.453 454.307 642.092 454.434 642.404 455.225C642.18 456.045 642.707 456.406 643.352 456.406C644.133 456.406 645.09 455.898 645.158 455.059C645.578 454.424 646.115 454.16 646.672 454.16C647.551 454.16 648.479 454.824 649.084 455.645C649.133 455.723 649.172 455.752 649.191 455.752C649.24 455.752 649.191 455.557 649.172 455.361C649.152 455.205 649.152 455.049 649.211 455C648.342 454.756 647.678 453.701 647.971 453.701C648.068 453.701 648.273 453.818 648.605 454.131H648.654C649.201 454.131 649.631 454.561 649.963 454.99C650.305 455.42 650.559 455.85 650.783 455.85C650.871 455.85 650.959 455.771 651.037 455.596C650.998 455.537 650.9 455.371 650.852 455.205C650.793 455 650.793 454.795 651.057 454.795C651.164 454.795 651.311 454.834 651.516 454.912C652.18 454.736 651.096 453.008 651.975 453.008C652.062 453.008 652.17 453.027 652.307 453.066C652.297 453.369 652.434 453.477 652.561 453.477C652.814 453.477 653.068 453.115 652.453 453.008C652.688 452.783 652.824 452.695 652.922 452.695C653.264 452.695 652.99 453.828 654.172 453.828C654.572 454.775 650.695 453.896 651.936 455.713C652.219 455.918 652.57 455.957 652.912 455.957C653.02 455.957 653.117 455.957 653.215 455.947C653.312 455.947 653.41 455.938 653.498 455.938C654.104 455.938 654.533 456.084 654.27 457.334C653.947 457.568 653.586 457.646 653.215 457.646C652.883 457.646 652.551 457.588 652.229 457.529C651.906 457.471 651.594 457.412 651.311 457.412C650.871 457.412 650.52 457.559 650.305 458.066C649.162 457.598 647.658 457.578 647.805 456.162C645.813 456.445 643.732 456.299 642.268 457.52C642.18 459.307 639.113 459.883 639.855 461.914C638.967 463.789 640.93 466.416 642.932 466.416C643 466.416 643.078 466.416 643.146 466.406C644.24 466.396 645.344 465.908 646.311 465.908C646.809 465.908 647.258 466.035 647.648 466.426C647.736 466.416 647.814 466.406 647.883 466.406C649.377 466.406 647.404 468.779 649.191 469.18C650.812 470.859 648.195 472.588 649.475 474.199C649.611 475.459 650.236 476.514 650.236 477.744C650.402 477.764 650.559 477.773 650.725 477.773C652.785 477.773 654.074 475.977 655.285 474.619C654.914 472.588 658.166 472.187 657.053 469.912C656.535 467.422 659.504 465.947 659.338 463.457C659.367 463.105 659.27 462.998 659.123 462.998C658.977 462.998 658.762 463.105 658.557 463.203C658.342 463.311 658.107 463.408 657.922 463.408C657.678 463.408 657.492 463.242 657.473 462.695C656.037 461.357 655.383 459.541 654.045 458.066C655.783 458.906 656.77 460.801 657.57 462.52C657.639 462.539 657.707 462.549 657.785 462.549C659.201 462.549 661.174 459.16 659.025 458.34C658.908 458.662 658.752 458.779 658.566 458.779C658.244 458.779 657.873 458.389 657.609 458.008C657.346 457.617 657.209 457.227 657.355 457.227C657.453 457.227 657.668 457.383 658.039 457.793C658.459 458.057 658.869 458.125 659.299 458.125C659.719 458.125 660.148 458.057 660.598 458.018C661.164 458.242 661.408 458.965 661.584 458.965C661.613 458.965 661.652 458.936 661.682 458.867C662.131 459.941 662.648 461.855 663.117 462.373C662.873 460.732 662.814 458.994 662.395 457.383ZM656.945 455.127C655.842 454.844 655.48 453.477 654.611 452.686C654.602 452.471 654.924 452.51 654.846 452.148C656.018 452.51 655.637 452.871 655.529 452.939C655.959 453.652 657.16 454.141 656.945 455.127ZM641.779 447.695C640.715 448.008 640.568 447.666 640.754 448.32C640.832 448.379 640.979 448.398 641.125 448.398C641.643 448.408 642.346 448.105 641.779 447.695ZM657.414 474.6C658.811 473.418 658.986 472.012 659.055 470.586C658.43 471.807 656.574 473.154 657.414 474.6ZM651.057 455.557C651.047 455.566 651.047 455.566 651.047 455.576C651.057 455.596 651.066 455.596 651.066 455.596C651.066 455.596 651.066 455.586 651.057 455.557Z" fill="#1CDF8C"/>
<defs>
<filter id="filter0_d_969_1589" x="1066" y="87" width="85" height="85" filterUnits="userSpaceOnUse" color-interpolation-filters="sRGB">
<feFlood flood-opacity="0" result="BackgroundImageFix"/>
<feColorMatrix in="SourceAlpha" type="matrix" values="0 0 0 0 0 0 0 0 0 0 0 0 0 0 0 0 0 0 127 0" result="hardAlpha"/>
<feMorphology radius="1" operator="dilate" in="SourceAlpha" result="effect1_dropShadow_969_1589"/>
<feOffset dx="-1" dy="4"/>
<feGaussianBlur stdDeviation="4.5"/>
<feComposite in2="hardAlpha" operator="out"/>
<feColorMatrix type="matrix" values="0 0 0 0 0 0 0 0 0 0 0 0 0 0 0 0 0 0 0.1 0"/>
<feBlend mode="normal" in2="BackgroundImageFix" result="effect1_dropShadow_969_1589"/>
<feBlend mode="normal" in="SourceGraphic" in2="effect1_dropShadow_969_1589" result="shape"/>
</filter>
<filter id="filter1_d_969_1589" x="1330" y="453" width="85" height="85" filterUnits="userSpaceOnUse" color-interpolation-filters="sRGB">
<feFlood flood-opacity="0" result="BackgroundImageFix"/>
<feColorMatrix in="SourceAlpha" type="matrix" values="0 0 0 0 0 0 0 0 0 0 0 0 0 0 0 0 0 0 127 0" result="hardAlpha"/>
<feMorphology radius="1" operator="dilate" in="SourceAlpha" result="effect1_dropShadow_969_1589"/>
<feOffset dx="-1" dy="4"/>
<feGaussianBlur stdDeviation="4.5"/>
<feComposite in2="hardAlpha" operator="out"/>
<feColorMatrix type="matrix" values="0 0 0 0 0 0 0 0 0 0 0 0 0 0 0 0 0 0 0.1 0"/>
<feBlend mode="normal" in2="BackgroundImageFix" result="effect1_dropShadow_969_1589"/>
<feBlend mode="normal" in="SourceGraphic" in2="effect1_dropShadow_969_1589" result="shape"/>
</filter>
<filter id="filter2_d_969_1589" x="599" y="427" width="85" height="85" filterUnits="userSpaceOnUse" color-interpolation-filters="sRGB">
<feFlood flood-opacity="0" result="BackgroundImageFix"/>
<feColorMatrix in="SourceAlpha" type="matrix" values="0 0 0 0 0 0 0 0 0 0 0 0 0 0 0 0 0 0 127 0" result="hardAlpha"/>
<feMorphology radius="1" operator="dilate" in="SourceAlpha" result="effect1_dropShadow_969_1589"/>
<feOffset dx="-1" dy="4"/>
<feGaussianBlur stdDeviation="4.5"/>
<feComposite in2="hardAlpha" operator="out"/>
<feColorMatrix type="matrix" values="0 0 0 0 0 0 0 0 0 0 0 0 0 0 0 0 0 0 0.1 0"/>
<feBlend mode="normal" in2="BackgroundImageFix" result="effect1_dropShadow_969_1589"/>
<feBlend mode="normal" in="SourceGraphic" in2="effect1_dropShadow_969_1589" result="shape"/>
</filter>
</defs>
</svg>
