<svg width="92" height="92" viewBox="0 0 92 92" fill="none" xmlns="http://www.w3.org/2000/svg">
<circle cx="46" cy="46" r="46" fill="#C4C4C4"/>
<circle cx="46" cy="46" r="46" fill="url(#paint0_linear_969_1614)"/>
<path d="M62.1136 63.1136V63.7078C62.1171 64.7053 61.9127 65.6925 61.5137 66.6067C60.9497 67.9123 60.0156 69.0241 58.8269 69.8047C57.6381 70.5854 56.2467 71.0009 54.8245 70.9997H29.2925C28.3349 71 27.3865 70.8115 26.5016 70.4452C25.6168 70.0788 24.8128 69.5417 24.1356 68.8646C23.4583 68.1874 22.9212 67.3835 22.5548 66.4987C22.1883 65.6139 21.9998 64.6655 22 63.7078V38.1723C21.9991 37.2147 22.1871 36.2663 22.5534 35.3814C22.9196 34.4966 23.4568 33.6927 24.1343 33.0159C24.8117 32.339 25.616 31.8025 26.5012 31.437C27.3863 31.0716 28.3349 30.8844 29.2925 30.8861H29.8861V47.5652L45.4351 63.1136H62.1136Z" fill="url(#paint1_linear_969_1614)"/>
<path d="M62.1136 63.1136V63.7078C62.1171 64.7053 61.9127 65.6925 61.5137 66.6067C60.9497 67.9123 60.0156 69.0241 58.8269 69.8047C57.6381 70.5854 56.2467 71.0009 54.8245 70.9997H29.2925C28.3349 71 27.3865 70.8115 26.5016 70.4452C25.6168 70.0788 24.8128 69.5417 24.1356 68.8646C23.4583 68.1874 22.9212 67.3835 22.5548 66.4987C22.1883 65.6139 21.9998 64.6655 22 63.7078V38.1723C21.9991 37.2147 22.1871 36.2663 22.5534 35.3814C22.9196 34.4966 23.4568 33.6927 24.1343 33.0159C24.8117 32.339 25.616 31.8025 26.5012 31.437C27.3863 31.0716 28.3349 30.8844 29.2925 30.8861H29.8861V47.5652L45.4351 63.1136H62.1136Z" fill="url(#paint2_linear_969_1614)"/>
<g style="mix-blend-mode:multiply" opacity="0.2">
<g style="mix-blend-mode:multiply" opacity="0.2">
<path d="M62.1135 63.1134V63.7077C62.1171 64.7052 61.9127 65.6924 61.5136 66.6066H43.4685L26.9492 50.0873V31.269C27.7041 31.014 28.4957 30.8846 29.2925 30.886H29.8861V47.5651L45.4351 63.1134H62.1135Z" fill="black"/>
</g>
</g>
<path d="M29.8848 30.884V47.5639L45.4331 63.1164H62.1171V30.884H29.8848Z" fill="url(#paint3_linear_969_1614)"/>
<path d="M70.0003 28.5935V57.52C70 58.6195 69.6759 59.6946 69.0684 60.6111C68.461 61.5276 67.5971 62.2449 66.5846 62.6735C66.502 62.7137 66.4166 62.7478 66.329 62.7756C65.7128 62.9991 65.0623 63.1134 64.4068 63.1136H45.4357L29.8867 47.5652V28.5935C29.8865 27.8588 30.0311 27.1314 30.3122 26.4526C30.5932 25.7738 31.0053 25.1571 31.5248 24.6376C32.0443 24.1182 32.6612 23.7062 33.3399 23.4252C34.0188 23.1442 34.7463 22.9997 35.4809 23H64.4068C65.1414 22.9998 65.8688 23.1444 66.5475 23.4254C67.2263 23.7064 67.8429 24.1184 68.3624 24.6379C68.8819 25.1573 69.2938 25.774 69.5748 26.4527C69.8559 27.1315 70.0005 27.8589 70.0003 28.5935Z" fill="url(#paint4_linear_969_1614)"/>
<g style="mix-blend-mode:screen" opacity="0.5">
<g style="mix-blend-mode:screen" opacity="0.5">
<path d="M70.0003 28.5935V50.5662C70.0003 50.5662 69.9559 50.0557 69.8982 49.1678C69.8405 48.2799 69.7518 47.0097 69.687 45.4895C69.6222 43.9693 69.5595 42.1886 69.5208 40.279C69.4821 38.3695 69.4701 36.3458 69.4574 34.3152C69.4638 33.2998 69.4701 32.2782 69.4764 31.2818C69.4701 30.2925 69.5208 29.2709 69.5081 28.3703C69.4945 27.523 69.273 26.692 68.8632 25.9503C68.4897 25.2766 67.981 24.6873 67.369 24.2195C66.8356 23.8246 66.2369 23.5264 65.6003 23.3387C65.0951 23.1997 64.575 23.1224 64.0512 23.1084C63.164 23.0514 62.6592 23 62.6592 23H64.4089C65.1434 23.0001 65.8706 23.1449 66.5491 23.426C67.2275 23.7072 67.8439 24.1192 68.3632 24.6386C68.8824 25.158 69.2942 25.7747 69.5752 26.4532C69.856 27.1318 70.0005 27.8591 70.0003 28.5935Z" fill="white"/>
</g>
</g>
<g style="mix-blend-mode:multiply" opacity="0.2">
<g style="mix-blend-mode:multiply" opacity="0.2">
<path d="M66.586 62.6735C66.5034 62.7137 66.418 62.7478 66.3304 62.7756C65.7141 62.9991 65.0637 63.1134 64.4082 63.1136H62.1155V63.248L61.341 63.2671L56.0348 63.3945L45.435 63.5607H45.2562L45.1224 63.4269L37.2884 55.7133C34.6895 53.1271 32.0906 50.5472 29.5107 47.9419L29.3516 47.7821V47.5652C29.3642 42.0027 29.3959 36.4479 29.4853 30.8861H29.8874V28.5935C29.8872 27.8588 30.0317 27.1314 30.3128 26.4526C30.5939 25.7738 31.006 25.1571 31.5255 24.6376C32.045 24.1182 32.6618 23.7062 33.3406 23.4252C34.0194 23.1442 34.7469 22.9997 35.4816 23H42.8636L38.4706 23.1282L36.2737 23.1852C35.5598 23.1631 34.8462 23.2406 34.1536 23.4154C32.801 23.7975 31.6517 24.6937 30.9513 25.9122C30.6051 26.5086 30.3835 27.169 30.3 27.8535C30.2496 28.5675 30.2411 29.2839 30.2747 29.9989C30.281 30.2925 30.2873 30.5925 30.2873 30.8861C30.3768 36.3712 30.4084 41.8563 30.4211 47.3413C32.9695 49.8705 35.5067 52.4122 38.0326 54.9662L45.6286 62.6735L56.0369 62.8326L61.3431 62.9608L62.1177 62.9798L63.9955 63.0305C64.4341 63.0586 64.8742 63.048 65.3108 62.9988C65.7471 62.9404 66.1751 62.8313 66.586 62.6735Z" fill="black"/>
</g>
</g>
<g style="mix-blend-mode:multiply" opacity="0.2">
<g style="mix-blend-mode:multiply" opacity="0.2">
<path d="M51.9032 70.9997H29.2925C28.3349 71 27.3865 70.8116 26.5016 70.4452C25.6168 70.0789 24.8128 69.5418 24.1356 68.8646C23.4583 68.1875 22.9212 67.3836 22.5547 66.4987C22.1883 65.6139 21.9998 64.6655 22 63.7079V40.0305C22 40.0305 22.0387 40.9304 22.1091 42.5146C22.1472 44.0912 22.2556 46.3457 22.307 49.0531C22.3584 51.7604 22.4478 54.9148 22.4795 58.2988C22.4922 59.9887 22.5112 61.7413 22.5239 63.5163C22.4943 65.2016 23.0875 66.8385 24.1898 68.1135C25.2749 69.3897 26.7993 70.2124 28.4617 70.4188C28.6532 70.4568 28.8961 70.4505 29.113 70.4702L29.2728 70.4765L29.3045 70.4829C29.3045 70.4765 29.3299 70.4829 29.3299 70.4829H29.7453C30.1861 70.4892 30.6198 70.4892 31.0606 70.4956C31.9288 70.5082 32.7913 70.5146 33.6341 70.5209C37.0181 70.5596 40.1726 70.6491 42.8799 70.6934C45.5872 70.7378 47.8418 70.8532 49.4282 70.8976C51.0033 70.9603 51.9032 70.9997 51.9032 70.9997Z" fill="black"/>
</g>
</g>
<g style="mix-blend-mode:screen" opacity="0.3">
<g style="mix-blend-mode:screen" opacity="0.3">
<path d="M67.4461 28.5934V57.5199C67.4458 57.9204 67.3659 58.3167 67.2114 58.6861C67.0568 59.0554 66.8305 59.3904 66.5456 59.6717L33.3281 26.455C33.6087 26.169 33.9437 25.942 34.3134 25.7873C34.6831 25.6326 35.0799 25.5535 35.4806 25.5545H64.4064C65.2122 25.5552 65.9849 25.8756 66.5548 26.4453C67.1246 27.0151 67.4452 27.7876 67.4461 28.5934Z" fill="white"/>
</g>
</g>
<defs>
<linearGradient id="paint0_linear_969_1614" x1="-6.33872" y1="-29.8403" x2="134.99" y2="3.87192" gradientUnits="userSpaceOnUse">
<stop offset="0.257676" stop-color="#043266"/>
<stop offset="0.420884" stop-color="#053367" stop-opacity="0.88"/>
<stop offset="0.577529" stop-color="#164E8C" stop-opacity="0.9"/>
<stop offset="0.877732" stop-color="#4293ED"/>
<stop offset="1" stop-color="#4293ED"/>
</linearGradient>
<linearGradient id="paint1_linear_969_1614" x1="23.6848" y1="69.3149" x2="48.1139" y2="44.8857" gradientUnits="userSpaceOnUse">
<stop stop-color="#EE0979"/>
<stop offset="0.322" stop-color="#F32555"/>
<stop offset="1" stop-color="#FF6A00"/>
</linearGradient>
<linearGradient id="paint2_linear_969_1614" x1="22" y1="50.9429" x2="62.1136" y2="50.9429" gradientUnits="userSpaceOnUse">
<stop stop-color="#007ADF"/>
<stop offset="1" stop-color="#00ECBC"/>
</linearGradient>
<linearGradient id="paint3_linear_969_1614" x1="23.6961" y1="69.305" x2="48.1282" y2="44.8729" gradientUnits="userSpaceOnUse">
<stop stop-color="#EE0979"/>
<stop offset="0.322" stop-color="#F32555"/>
<stop offset="1" stop-color="#FF6A00"/>
</linearGradient>
<linearGradient id="paint4_linear_969_1614" x1="29.8867" y1="43.0568" x2="70.0003" y2="43.0568" gradientUnits="userSpaceOnUse">
<stop stop-color="#43E97B"/>
<stop offset="1" stop-color="#38F9D7"/>
</linearGradient>
</defs>
</svg>
