<svg width="326" height="362" viewBox="0 0 326 362" fill="none" xmlns="http://www.w3.org/2000/svg">
<path d="M127.5 1.50016C106 78.5002 294.394 13.0001 305.5 96.0001C316.606 179 10.4999 157.5 17 262.5C23.5001 367.5 273.5 345.5 273.5 345.5" stroke="#9D9D9F" stroke-width="0.471464" stroke-dasharray="4.71 4.71"/>
<path d="M211.799 115H209.822L212.835 106.273H215.213L218.221 115H216.244L214.058 108.267H213.99L211.799 115ZM211.676 111.57H216.346V113.01H211.676V111.57ZM222.049 115V106.273H223.864V109.554H223.92C223.999 109.378 224.114 109.199 224.265 109.017C224.418 108.832 224.617 108.679 224.862 108.557C225.109 108.432 225.416 108.369 225.782 108.369C226.259 108.369 226.7 108.494 227.103 108.744C227.506 108.991 227.829 109.365 228.07 109.865C228.312 110.362 228.433 110.986 228.433 111.736C228.433 112.466 228.315 113.082 228.079 113.585C227.846 114.085 227.528 114.464 227.124 114.723C226.724 114.979 226.275 115.107 225.778 115.107C225.425 115.107 225.126 115.048 224.879 114.932C224.634 114.815 224.434 114.669 224.278 114.493C224.121 114.314 224.002 114.134 223.92 113.952H223.839V115H222.049ZM223.826 111.727C223.826 112.116 223.88 112.456 223.988 112.746C224.096 113.036 224.252 113.261 224.457 113.423C224.661 113.582 224.91 113.662 225.202 113.662C225.498 113.662 225.748 113.581 225.952 113.419C226.157 113.254 226.312 113.027 226.417 112.737C226.525 112.445 226.579 112.108 226.579 111.727C226.579 111.349 226.526 111.017 226.421 110.73C226.316 110.443 226.161 110.219 225.957 110.057C225.752 109.895 225.501 109.814 225.202 109.814C224.907 109.814 224.657 109.892 224.452 110.048C224.251 110.205 224.096 110.426 223.988 110.713C223.88 111 223.826 111.338 223.826 111.727ZM232.627 115.128C231.954 115.128 231.374 114.991 230.888 114.719C230.405 114.443 230.033 114.054 229.772 113.551C229.51 113.045 229.38 112.447 229.38 111.757C229.38 111.084 229.51 110.493 229.772 109.984C230.033 109.476 230.401 109.08 230.875 108.795C231.353 108.511 231.912 108.369 232.554 108.369C232.986 108.369 233.388 108.439 233.76 108.578C234.135 108.714 234.462 108.92 234.74 109.196C235.022 109.472 235.24 109.818 235.397 110.236C235.553 110.651 235.631 111.136 235.631 111.693V112.192H230.104V111.067H233.922C233.922 110.805 233.865 110.574 233.752 110.372C233.638 110.17 233.481 110.013 233.279 109.899C233.08 109.783 232.848 109.724 232.584 109.724C232.309 109.724 232.064 109.788 231.851 109.916C231.641 110.041 231.476 110.21 231.357 110.423C231.238 110.634 231.177 110.868 231.174 111.126V112.196C231.174 112.52 231.233 112.8 231.353 113.036C231.475 113.271 231.647 113.453 231.868 113.581C232.09 113.709 232.353 113.773 232.657 113.773C232.858 113.773 233.043 113.744 233.211 113.688C233.378 113.631 233.522 113.545 233.641 113.432C233.76 113.318 233.851 113.179 233.914 113.014L235.593 113.125C235.508 113.528 235.333 113.881 235.069 114.182C234.807 114.48 234.469 114.713 234.054 114.881C233.642 115.045 233.167 115.128 232.627 115.128ZM240.297 108.455V109.818H236.356V108.455H240.297ZM237.25 106.886H239.066V112.989C239.066 113.156 239.091 113.287 239.142 113.381C239.194 113.472 239.265 113.536 239.356 113.572C239.449 113.609 239.557 113.628 239.679 113.628C239.765 113.628 239.85 113.621 239.935 113.607C240.02 113.589 240.086 113.577 240.131 113.568L240.417 114.919C240.326 114.947 240.198 114.98 240.033 115.017C239.868 115.057 239.668 115.081 239.432 115.089C238.995 115.107 238.611 115.048 238.282 114.915C237.955 114.781 237.701 114.574 237.519 114.293C237.337 114.011 237.248 113.656 237.25 113.227V106.886ZM244.961 108.455V109.818H241.02V108.455H244.961ZM241.914 106.886H243.73V112.989C243.73 113.156 243.755 113.287 243.807 113.381C243.858 113.472 243.929 113.536 244.02 113.572C244.113 113.609 244.221 113.628 244.343 113.628C244.429 113.628 244.514 113.621 244.599 113.607C244.684 113.589 244.75 113.577 244.795 113.568L245.081 114.919C244.99 114.947 244.862 114.98 244.697 115.017C244.532 115.057 244.332 115.081 244.096 115.089C243.659 115.107 243.275 115.048 242.946 114.915C242.619 114.781 242.365 114.574 242.183 114.293C242.001 114.011 241.912 113.656 241.914 113.227V106.886ZM249.057 115.128C248.383 115.128 247.804 114.991 247.318 114.719C246.835 114.443 246.463 114.054 246.201 113.551C245.94 113.045 245.809 112.447 245.809 111.757C245.809 111.084 245.94 110.493 246.201 109.984C246.463 109.476 246.831 109.08 247.305 108.795C247.782 108.511 248.342 108.369 248.984 108.369C249.416 108.369 249.818 108.439 250.19 108.578C250.565 108.714 250.892 108.92 251.17 109.196C251.451 109.472 251.67 109.818 251.826 110.236C251.983 110.651 252.061 111.136 252.061 111.693V112.192H246.534V111.067H250.352C250.352 110.805 250.295 110.574 250.182 110.372C250.068 110.17 249.91 110.013 249.708 109.899C249.51 109.783 249.278 109.724 249.014 109.724C248.738 109.724 248.494 109.788 248.281 109.916C248.071 110.041 247.906 110.21 247.787 110.423C247.667 110.634 247.606 110.868 247.603 111.126V112.196C247.603 112.52 247.663 112.8 247.782 113.036C247.905 113.271 248.076 113.453 248.298 113.581C248.52 113.709 248.782 113.773 249.086 113.773C249.288 113.773 249.473 113.744 249.64 113.688C249.808 113.631 249.951 113.545 250.071 113.432C250.19 113.318 250.281 113.179 250.343 113.014L252.022 113.125C251.937 113.528 251.762 113.881 251.498 114.182C251.237 114.48 250.899 114.713 250.484 114.881C250.072 115.045 249.596 115.128 249.057 115.128ZM253.245 115V108.455H255.005V109.597H255.074C255.193 109.19 255.393 108.884 255.674 108.676C255.956 108.466 256.28 108.361 256.646 108.361C256.737 108.361 256.835 108.366 256.94 108.378C257.045 108.389 257.137 108.405 257.217 108.425V110.036C257.132 110.01 257.014 109.987 256.863 109.967C256.713 109.947 256.575 109.938 256.45 109.938C256.183 109.938 255.944 109.996 255.734 110.112C255.527 110.226 255.362 110.385 255.24 110.589C255.12 110.794 255.061 111.03 255.061 111.297V115H253.245ZM262.224 115L260.443 108.455H262.28L263.294 112.852H263.353L264.41 108.455H266.213L267.287 112.827H267.342L268.339 108.455H270.172L268.395 115H266.473L265.348 110.884H265.267L264.142 115H262.224ZM273.933 115.128C273.271 115.128 272.699 114.987 272.216 114.706C271.736 114.422 271.365 114.027 271.104 113.521C270.842 113.013 270.712 112.423 270.712 111.753C270.712 111.077 270.842 110.486 271.104 109.98C271.365 109.472 271.736 109.077 272.216 108.795C272.699 108.511 273.271 108.369 273.933 108.369C274.595 108.369 275.166 108.511 275.646 108.795C276.129 109.077 276.501 109.472 276.763 109.98C277.024 110.486 277.155 111.077 277.155 111.753C277.155 112.423 277.024 113.013 276.763 113.521C276.501 114.027 276.129 114.422 275.646 114.706C275.166 114.987 274.595 115.128 273.933 115.128ZM273.942 113.722C274.243 113.722 274.494 113.636 274.696 113.466C274.898 113.293 275.05 113.057 275.152 112.759C275.257 112.46 275.31 112.121 275.31 111.74C275.31 111.359 275.257 111.02 275.152 110.722C275.05 110.423 274.898 110.187 274.696 110.014C274.494 109.841 274.243 109.754 273.942 109.754C273.638 109.754 273.382 109.841 273.175 110.014C272.97 110.187 272.815 110.423 272.71 110.722C272.608 111.02 272.557 111.359 272.557 111.74C272.557 112.121 272.608 112.46 272.71 112.759C272.815 113.057 272.97 113.293 273.175 113.466C273.382 113.636 273.638 113.722 273.942 113.722ZM278.335 115V108.455H280.095V109.597H280.163C280.283 109.19 280.483 108.884 280.764 108.676C281.045 108.466 281.369 108.361 281.736 108.361C281.827 108.361 281.925 108.366 282.03 108.378C282.135 108.389 282.227 108.405 282.307 108.425V110.036C282.222 110.01 282.104 109.987 281.953 109.967C281.803 109.947 281.665 109.938 281.54 109.938C281.273 109.938 281.034 109.996 280.824 110.112C280.617 110.226 280.452 110.385 280.33 110.589C280.21 110.794 280.151 111.03 280.151 111.297V115H278.335ZM285.061 106.273V115H283.245V106.273H285.061ZM288.927 115.107C288.43 115.107 287.979 114.979 287.576 114.723C287.175 114.464 286.857 114.085 286.621 113.585C286.389 113.082 286.272 112.466 286.272 111.736C286.272 110.986 286.393 110.362 286.634 109.865C286.876 109.365 287.197 108.991 287.597 108.744C288.001 108.494 288.443 108.369 288.923 108.369C289.289 108.369 289.595 108.432 289.839 108.557C290.086 108.679 290.285 108.832 290.435 109.017C290.589 109.199 290.705 109.378 290.785 109.554H290.84V106.273H292.651V115H290.862V113.952H290.785C290.7 114.134 290.579 114.314 290.423 114.493C290.269 114.669 290.069 114.815 289.822 114.932C289.577 115.048 289.279 115.107 288.927 115.107ZM289.502 113.662C289.795 113.662 290.042 113.582 290.244 113.423C290.448 113.261 290.604 113.036 290.712 112.746C290.823 112.456 290.879 112.116 290.879 111.727C290.879 111.338 290.825 111 290.717 110.713C290.609 110.426 290.452 110.205 290.248 110.048C290.043 109.892 289.795 109.814 289.502 109.814C289.204 109.814 288.952 109.895 288.748 110.057C288.543 110.219 288.389 110.443 288.283 110.73C288.178 111.017 288.126 111.349 288.126 111.727C288.126 112.108 288.178 112.445 288.283 112.737C288.391 113.027 288.546 113.254 288.748 113.419C288.952 113.581 289.204 113.662 289.502 113.662Z" fill="#043266"/>
<g filter="url(#filter0_d_997_1609)">
<circle cx="250" cy="142.03" r="15" fill="white"/>
</g>
<path d="M249.651 133.35C249.707 133.35 249.776 133.378 249.835 133.461C249.568 133.079 250.135 133.244 250.167 132.881C250.489 132.641 250.374 132.485 250.466 132.476L250.567 132.393C250.37 132.466 250.3 132.48 250.245 132.48H250.153C250.084 132.48 249.969 132.494 249.697 132.577C249.076 132.623 248.629 133.295 248.417 133.314C248.201 133.429 248.21 133.452 248.261 133.452C248.275 133.452 248.293 133.447 248.311 133.447C248.33 133.447 248.344 133.442 248.357 133.442C248.408 133.442 248.394 133.465 248.1 133.604C248.169 133.622 247.584 133.88 247.579 134.285C247.561 134.442 247.625 134.547 247.731 134.547C247.823 134.547 247.939 134.478 248.063 134.303C248.477 133.825 249.352 133.779 249.73 133.488C249.495 133.47 249.541 133.35 249.651 133.35ZM247.547 133.512C247.506 133.512 247.561 133.461 247.621 133.41C247.685 133.36 247.759 133.309 247.759 133.309L247.754 133.314C248.003 133.217 247.851 133.194 247.985 133.129H247.975C247.948 133.129 247.998 133.093 248.044 133.051C248.09 133.014 248.132 132.973 248.09 132.973C248.067 132.973 248.008 132.987 247.906 133.028C247.939 132.982 248.063 132.95 248.238 132.853C247.985 132.936 247.787 132.987 247.764 132.987C247.745 132.987 247.851 132.95 248.169 132.853C248.183 132.853 248.196 132.858 248.206 132.858C248.238 132.858 248.252 132.849 248.247 132.839C248.242 132.83 248.224 132.825 248.192 132.825C247.736 132.862 247.395 133.148 247.497 133.185C247.556 133.166 247.598 133.157 247.625 133.157C247.685 133.157 247.658 133.208 247.538 133.281C247.593 133.41 246.617 133.742 246.507 133.861C246.562 133.829 246.599 133.82 246.617 133.82C246.691 133.82 246.594 133.963 246.497 134.032C246.557 134.087 246.603 134.105 246.64 134.105C246.737 134.105 246.778 133.972 246.861 133.93C246.88 133.967 246.898 133.986 246.921 133.986C246.999 133.986 247.096 133.792 247.174 133.691C247.197 133.714 247.225 133.733 247.262 133.733C247.335 133.733 247.446 133.673 247.621 133.502C247.584 133.507 247.556 133.512 247.547 133.512ZM246.488 134.359C246.322 134.46 246.235 134.501 246.198 134.501C246.129 134.501 246.221 134.372 246.304 134.239C246.387 134.11 246.461 133.981 246.355 133.981C246.304 133.981 246.212 134.009 246.065 134.082C245.664 134.349 244.987 135.086 244.688 135.086H244.66C245.144 134.732 245.001 134.036 245.678 133.857C246.345 133.475 246.801 133.594 247.395 133.157C247.22 133.244 246.962 133.341 246.903 133.341C246.866 133.341 246.921 133.295 247.16 133.18C247.137 133.185 247.119 133.189 247.105 133.189C246.944 133.189 248.164 132.752 248.224 132.743C247.722 132.812 246.912 133.231 246.801 133.231C246.787 133.231 246.787 133.226 246.787 133.217C246.806 133.203 246.806 133.194 246.787 133.194C246.728 133.194 246.479 133.277 246.226 133.36C245.977 133.442 245.724 133.53 245.669 133.53C245.65 133.53 245.65 133.521 245.678 133.502C243.505 134.736 241.691 136.817 241.124 139.285C241.359 139.824 241.198 140.851 241.585 141.15C242.027 141.523 241.207 142.605 241.424 143.272C241.645 144.479 242.598 145.303 242.699 146.537C242.874 147.384 243.514 148.42 243.781 148.958C243.984 149.161 244.541 149.746 244.637 149.746C244.674 149.746 244.651 149.658 244.504 149.423C244.412 149.161 243.878 148.475 244.135 148.475C244.149 148.475 244.163 148.475 244.182 148.48C243.864 148.157 244.886 148.245 244.172 147.807C244.089 147.706 244.071 147.674 244.089 147.674C244.112 147.674 244.177 147.711 244.251 147.748C244.329 147.784 244.421 147.821 244.495 147.821C244.61 147.821 244.688 147.743 244.642 147.457C244.66 147.467 244.679 147.467 244.693 147.467C244.812 147.467 244.771 147.232 244.78 146.997C244.789 146.762 244.849 146.527 245.171 146.527C245.208 146.527 245.25 146.532 245.291 146.537C246.037 146.131 245.388 145.013 246.244 144.603C246.212 143.673 244.964 143.627 244.495 143.249C244.416 143.295 244.343 143.309 244.269 143.309C244.186 143.309 244.112 143.291 244.048 143.268C243.984 143.249 243.924 143.226 243.882 143.226C243.873 143.226 243.864 143.226 243.855 143.231C244.656 143.019 244.071 141.905 243.408 141.905H243.362C243.311 141.421 243.063 141.606 243.035 141.205C242.994 141.228 242.952 141.237 242.911 141.237C242.8 141.237 242.699 141.159 242.612 141.085C242.524 141.007 242.45 140.933 242.386 140.933C242.335 140.933 242.289 140.984 242.248 141.131C242.294 140.906 242.28 140.832 242.234 140.832C242.188 140.832 242.105 140.91 242.013 140.989C241.926 141.067 241.824 141.145 241.746 141.145H241.723C241.184 140.763 241.728 140.086 241.442 139.566C241.626 139.368 241.7 139.032 241.617 139.032C241.576 139.032 241.493 139.115 241.364 139.34C241.18 138.871 241.668 137.807 242.082 137.747C242.096 137.747 242.105 137.743 242.119 137.743C242.193 137.743 242.266 137.78 242.331 137.858C242.368 138.074 242.275 138.53 242.312 138.53C242.331 138.53 242.368 138.438 242.46 138.199C242.579 137.651 243.417 137.255 243.505 136.919C243.509 136.923 243.509 136.923 243.514 136.923C243.611 136.923 244.232 136.375 244.504 136.315C244.61 136.21 244.683 136.173 244.739 136.173C244.798 136.173 244.831 136.219 244.854 136.26C244.877 136.306 244.895 136.348 244.918 136.348C244.937 136.348 244.96 136.32 245.001 136.242C244.858 135.961 245.227 135.694 245.125 135.694C245.089 135.694 244.978 135.731 244.752 135.823C244.716 135.841 244.697 135.846 244.688 135.846C244.66 135.846 244.771 135.772 244.932 135.698C245.093 135.625 245.296 135.551 245.466 135.551C245.549 135.551 245.623 135.57 245.678 135.616C246.392 135.445 246 135.21 246.037 135.21H246.046C246.249 135.091 246.189 134.64 246.488 134.359ZM243.298 136.242C243.288 136.242 243.33 136.182 243.468 136.012C243.753 135.8 243.984 135.657 243.721 135.519C243.836 135.468 243.947 135.408 244.053 135.344C244.048 135.57 243.859 136.117 243.758 136.117C243.735 136.117 243.712 136.085 243.703 136.016C243.763 135.91 243.767 135.869 243.744 135.869C243.707 135.869 243.601 135.961 243.5 136.058C243.399 136.145 243.307 136.242 243.298 136.242ZM243.56 136.366C243.436 136.366 243.459 136.288 243.841 136.21C244.007 136.187 243.878 136.196 244.076 136.15C243.882 136.306 243.666 136.366 243.56 136.366ZM250.719 135.901C250.775 135.892 250.816 135.892 250.848 135.892C250.982 135.892 250.922 135.947 250.844 136.002C250.765 136.058 250.669 136.113 250.724 136.113C250.756 136.113 250.844 136.094 251.023 136.044C251.93 135.979 250.669 135.21 250.871 134.953L250.816 134.934C250.443 135.408 251.065 135.418 250.719 135.901ZM250.342 135.919C250.406 135.919 250.489 135.846 250.577 135.639C250.696 135.496 250.646 135.477 250.517 135.408C250.162 135.5 250.195 135.919 250.342 135.919ZM253.519 137.379C253.505 137.379 253.496 137.384 253.487 137.388C253.523 137.397 253.56 137.407 253.597 137.407C253.56 137.388 253.537 137.379 253.519 137.379ZM259.702 138.525C259.78 138.696 259.822 138.765 259.826 138.765C259.859 138.765 259.246 137.273 258.993 137.006C257.672 134.833 255.499 133.171 253.021 132.549H253.017C252.952 132.549 253.026 132.581 253.114 132.614C253.201 132.646 253.307 132.678 253.307 132.678C253.307 132.678 253.238 132.655 253.026 132.595C252.791 132.526 252.552 132.476 252.308 132.457C252.266 132.471 253.316 132.885 254.021 133.102C253.786 133.028 253.542 132.964 253.482 132.964C253.44 132.964 253.482 132.991 253.652 133.065C253.445 133.005 253.358 132.977 253.348 132.977C253.335 132.977 253.625 133.074 253.896 133.171C254.173 133.267 254.435 133.364 254.361 133.364C254.343 133.364 254.292 133.355 254.214 133.341C254.449 133.47 254.532 133.521 254.518 133.521C254.495 133.521 254.205 133.383 253.905 133.244C253.611 133.106 253.312 132.968 253.27 132.968C253.247 132.968 253.307 133.014 253.51 133.134C253.786 133.254 254.062 133.373 253.984 133.373C253.947 133.373 253.841 133.35 253.634 133.291C254.094 133.525 253.307 133.433 253.574 133.751C253.427 133.613 253.367 133.567 253.353 133.567C253.339 133.567 253.376 133.622 253.413 133.677C253.45 133.733 253.477 133.788 253.445 133.788H253.436C253.758 134.138 253.21 133.825 253.602 134.138C253.307 134.004 252.805 133.783 253.031 133.783C253.086 133.783 253.192 133.797 253.358 133.834C253.058 133.484 252.211 133.47 252.193 133.429C251.981 133.442 251.976 133.604 252.013 133.898C252.009 134.363 251.553 134.372 251.613 134.64C251.613 134.635 251.617 134.635 251.617 134.635C251.626 134.635 251.631 134.727 251.659 134.824C251.691 134.916 251.746 135.012 251.866 135.012C251.93 135.012 252.013 134.985 252.114 134.916C252.257 135.174 252.386 135.266 252.487 135.266C252.639 135.266 252.731 135.058 252.722 134.87C252.556 134.778 252.34 134.013 252.579 134.013C252.616 134.013 252.662 134.032 252.722 134.073C252.349 134.989 254.196 134.377 253.15 134.796C253.385 135.105 253.003 135.091 253.114 135.464C252.934 135.514 252.736 135.56 252.561 135.56C252.303 135.56 252.105 135.45 252.128 135.063C251.806 135.233 252.451 135.809 251.811 135.809H251.774C251.465 136.375 250.31 136.182 251.217 136.78C251.267 137.043 251.102 137.089 250.89 137.089C250.835 137.089 250.775 137.084 250.715 137.08C250.655 137.075 250.595 137.075 250.54 137.075C250.3 137.075 250.13 137.135 250.277 137.508C250.172 137.895 250.42 138.065 250.724 138.065C251.092 138.065 251.544 137.826 251.576 137.43C251.774 137.13 252.027 137.006 252.289 137.006C252.704 137.006 253.141 137.319 253.427 137.706C253.45 137.743 253.468 137.757 253.477 137.757C253.5 137.757 253.477 137.664 253.468 137.572C253.459 137.499 253.459 137.425 253.487 137.402C253.077 137.287 252.764 136.79 252.902 136.79C252.948 136.79 253.045 136.845 253.201 136.992H253.224C253.482 136.992 253.684 137.195 253.841 137.397C254.002 137.6 254.122 137.803 254.228 137.803C254.269 137.803 254.311 137.766 254.347 137.683C254.329 137.655 254.283 137.577 254.26 137.499C254.232 137.402 254.232 137.305 254.357 137.305C254.407 137.305 254.476 137.324 254.573 137.361C254.886 137.278 254.375 136.463 254.789 136.463C254.831 136.463 254.882 136.472 254.946 136.49C254.941 136.633 255.006 136.684 255.066 136.684C255.185 136.684 255.305 136.513 255.015 136.463C255.126 136.357 255.19 136.315 255.236 136.315C255.397 136.315 255.268 136.85 255.825 136.85C256.014 137.296 254.186 136.882 254.771 137.738C254.905 137.835 255.07 137.853 255.231 137.853C255.282 137.853 255.328 137.853 255.374 137.849C255.42 137.849 255.466 137.844 255.508 137.844C255.793 137.844 255.996 137.913 255.871 138.502C255.72 138.613 255.549 138.65 255.374 138.65C255.218 138.65 255.061 138.622 254.909 138.594C254.757 138.567 254.61 138.539 254.476 138.539C254.269 138.539 254.103 138.608 254.002 138.848C253.463 138.627 252.754 138.618 252.824 137.95C251.884 138.083 250.904 138.014 250.213 138.59C250.172 139.432 248.726 139.704 249.076 140.662C248.657 141.546 249.582 142.784 250.526 142.784C250.558 142.784 250.595 142.784 250.627 142.78C251.143 142.775 251.663 142.545 252.119 142.545C252.354 142.545 252.566 142.605 252.75 142.789C252.791 142.784 252.828 142.78 252.86 142.78C253.565 142.78 252.635 143.898 253.477 144.087C254.242 144.879 253.008 145.694 253.611 146.454C253.675 147.048 253.97 147.545 253.97 148.125C254.048 148.134 254.122 148.139 254.2 148.139C255.172 148.139 255.779 147.292 256.35 146.652C256.175 145.694 257.709 145.505 257.184 144.433C256.94 143.258 258.339 142.563 258.261 141.389C258.275 141.223 258.229 141.173 258.16 141.173C258.091 141.173 257.989 141.223 257.893 141.269C257.791 141.32 257.681 141.366 257.593 141.366C257.478 141.366 257.391 141.288 257.382 141.03C256.705 140.399 256.396 139.543 255.766 138.848C256.585 139.244 257.05 140.137 257.428 140.947C257.46 140.956 257.492 140.961 257.529 140.961C258.197 140.961 259.127 139.363 258.114 138.977C258.058 139.129 257.985 139.184 257.897 139.184C257.745 139.184 257.57 139 257.446 138.82C257.322 138.636 257.257 138.452 257.326 138.452C257.372 138.452 257.474 138.525 257.649 138.719C257.847 138.843 258.04 138.875 258.243 138.875C258.441 138.875 258.643 138.843 258.855 138.825C259.122 138.931 259.237 139.271 259.32 139.271C259.334 139.271 259.352 139.257 259.366 139.225C259.578 139.732 259.822 140.634 260.043 140.878C259.928 140.105 259.9 139.285 259.702 138.525ZM257.133 137.462C256.613 137.328 256.442 136.684 256.033 136.311C256.028 136.21 256.18 136.228 256.143 136.058C256.696 136.228 256.516 136.398 256.465 136.431C256.668 136.767 257.234 136.997 257.133 137.462ZM249.983 133.958C249.481 134.105 249.412 133.944 249.499 134.253C249.536 134.28 249.605 134.29 249.674 134.29C249.918 134.294 250.25 134.151 249.983 133.958ZM257.354 146.643C258.012 146.085 258.095 145.422 258.127 144.75C257.833 145.326 256.958 145.961 257.354 146.643ZM254.357 137.664C254.352 137.669 254.352 137.669 254.352 137.674C254.357 137.683 254.361 137.683 254.361 137.683C254.361 137.683 254.361 137.678 254.357 137.664Z" fill="#1CDF8C"/>
<path d="M24.6374 162H22.6601L25.6729 153.273H28.0507L31.0593 162H29.082L26.8959 155.267H26.8277L24.6374 162ZM24.5138 158.57H29.1843V160.01H24.5138V158.57ZM40.299 157.321L38.637 157.423C38.6086 157.281 38.5475 157.153 38.4538 157.04C38.36 156.923 38.2365 156.831 38.0831 156.763C37.9325 156.692 37.7521 156.656 37.5419 156.656C37.2606 156.656 37.0234 156.716 36.8302 156.835C36.637 156.952 36.5404 157.108 36.5404 157.304C36.5404 157.46 36.6029 157.592 36.7279 157.7C36.8529 157.808 37.0674 157.895 37.3714 157.96L38.5561 158.199C39.1924 158.33 39.6669 158.54 39.9794 158.83C40.2919 159.119 40.4481 159.5 40.4481 159.972C40.4481 160.401 40.3217 160.777 40.0689 161.101C39.8189 161.425 39.4751 161.678 39.0376 161.859C38.6029 162.038 38.1015 162.128 37.5333 162.128C36.6669 162.128 35.9765 161.947 35.4623 161.587C34.951 161.223 34.6512 160.729 34.5632 160.104L36.3487 160.01C36.4027 160.274 36.5333 160.476 36.7407 160.615C36.9481 160.751 37.2137 160.82 37.5376 160.82C37.8558 160.82 38.1115 160.759 38.3046 160.636C38.5007 160.511 38.6001 160.351 38.6029 160.155C38.6001 159.99 38.5305 159.855 38.3941 159.75C38.2578 159.642 38.0475 159.56 37.7635 159.503L36.6299 159.277C35.9907 159.149 35.5149 158.928 35.2024 158.612C34.8927 158.297 34.7379 157.895 34.7379 157.406C34.7379 156.986 34.8515 156.624 35.0788 156.32C35.3089 156.016 35.6314 155.781 36.0461 155.616C36.4637 155.452 36.9524 155.369 37.512 155.369C38.3387 155.369 38.9893 155.544 39.4637 155.893C39.941 156.243 40.2194 156.719 40.299 157.321ZM45.7887 159.213V155.455H47.604V162H45.8611V160.811H45.7929C45.6452 161.195 45.3995 161.503 45.0557 161.736C44.7148 161.969 44.2986 162.085 43.8071 162.085C43.3696 162.085 42.9847 161.986 42.6523 161.787C42.3199 161.588 42.06 161.305 41.8725 160.939C41.6878 160.572 41.5941 160.134 41.5912 159.622V155.455H43.4066V159.298C43.4094 159.685 43.5131 159.99 43.7176 160.214C43.9222 160.439 44.1963 160.551 44.5401 160.551C44.7588 160.551 44.9634 160.501 45.1537 160.402C45.3441 160.3 45.4975 160.149 45.614 159.95C45.7333 159.751 45.7915 159.506 45.7887 159.213ZM54.5021 157.321L52.8402 157.423C52.8118 157.281 52.7507 157.153 52.6569 157.04C52.5632 156.923 52.4396 156.831 52.2862 156.763C52.1356 156.692 51.9552 156.656 51.745 156.656C51.4637 156.656 51.2265 156.716 51.0333 156.835C50.8402 156.952 50.7436 157.108 50.7436 157.304C50.7436 157.46 50.8061 157.592 50.9311 157.7C51.0561 157.808 51.2706 157.895 51.5745 157.96L52.7592 158.199C53.3956 158.33 53.87 158.54 54.1825 158.83C54.495 159.119 54.6512 159.5 54.6512 159.972C54.6512 160.401 54.5248 160.777 54.272 161.101C54.022 161.425 53.6782 161.678 53.2407 161.859C52.8061 162.038 52.3046 162.128 51.7365 162.128C50.87 162.128 50.1796 161.947 49.6654 161.587C49.1541 161.223 48.8544 160.729 48.7663 160.104L50.5518 160.01C50.6058 160.274 50.7365 160.476 50.9439 160.615C51.1512 160.751 51.4169 160.82 51.7407 160.82C52.0589 160.82 52.3146 160.759 52.5078 160.636C52.7038 160.511 52.8032 160.351 52.8061 160.155C52.8032 159.99 52.7336 159.855 52.5973 159.75C52.4609 159.642 52.2507 159.56 51.9666 159.503L50.8331 159.277C50.1939 159.149 49.718 158.928 49.4055 158.612C49.0958 158.297 48.941 157.895 48.941 157.406C48.941 156.986 49.0546 156.624 49.2819 156.32C49.512 156.016 49.8345 155.781 50.2493 155.616C50.6669 155.452 51.1555 155.369 51.7152 155.369C52.5419 155.369 53.1924 155.544 53.6669 155.893C54.1441 156.243 54.4225 156.719 54.5021 157.321ZM59.2759 155.455V156.818H55.3341V155.455H59.2759ZM56.229 153.886H58.0444V159.989C58.0444 160.156 58.0699 160.287 58.1211 160.381C58.1722 160.472 58.2432 160.536 58.3341 160.572C58.4279 160.609 58.5358 160.628 58.658 160.628C58.7432 160.628 58.8284 160.621 58.9137 160.607C58.9989 160.589 59.0642 160.577 59.1097 160.568L59.3952 161.919C59.3043 161.947 59.1765 161.98 59.0117 162.017C58.8469 162.057 58.6466 162.081 58.4108 162.089C57.9733 162.107 57.5898 162.048 57.2603 161.915C56.9336 161.781 56.6793 161.574 56.4975 161.293C56.3157 161.011 56.2262 160.656 56.229 160.227V153.886ZM62.3249 162.124C61.9073 162.124 61.5351 162.051 61.2084 161.906C60.8817 161.759 60.6232 161.541 60.4328 161.254C60.2453 160.964 60.1516 160.604 60.1516 160.172C60.1516 159.808 60.2184 159.503 60.3519 159.256C60.4854 159.009 60.6672 158.81 60.8973 158.659C61.1274 158.509 61.3888 158.395 61.6814 158.318C61.9769 158.241 62.2865 158.188 62.6104 158.156C62.9911 158.116 63.2979 158.08 63.5309 158.045C63.7638 158.009 63.9328 157.955 64.038 157.884C64.1431 157.812 64.1956 157.707 64.1956 157.568V157.543C64.1956 157.273 64.1104 157.064 63.9399 156.916C63.7723 156.768 63.5337 156.695 63.224 156.695C62.8973 156.695 62.6374 156.767 62.4442 156.912C62.251 157.054 62.1232 157.233 62.0607 157.449L60.3817 157.312C60.4669 156.915 60.6346 156.571 60.8846 156.281C61.1346 155.989 61.457 155.764 61.8519 155.608C62.2496 155.449 62.7098 155.369 63.2326 155.369C63.5962 155.369 63.9442 155.412 64.2766 155.497C64.6118 155.582 64.9087 155.714 65.1672 155.893C65.4286 156.072 65.6346 156.303 65.7851 156.584C65.9357 156.862 66.011 157.196 66.011 157.585V162H64.2894V161.092H64.2382C64.1331 161.297 63.9925 161.477 63.8164 161.634C63.6402 161.787 63.4286 161.908 63.1814 161.996C62.9343 162.081 62.6488 162.124 62.3249 162.124ZM62.8448 160.871C63.1118 160.871 63.3476 160.818 63.5522 160.713C63.7567 160.605 63.9172 160.46 64.0337 160.278C64.1502 160.097 64.2084 159.891 64.2084 159.661V158.966C64.1516 159.003 64.0735 159.037 63.974 159.068C63.8774 159.097 63.7681 159.124 63.6459 159.149C63.5238 159.172 63.4016 159.193 63.2794 159.213C63.1573 159.23 63.0465 159.246 62.9471 159.26C62.734 159.291 62.5479 159.341 62.3888 159.409C62.2297 159.477 62.1061 159.57 62.0181 159.686C61.93 159.8 61.886 159.942 61.886 160.112C61.886 160.359 61.9755 160.548 62.1544 160.679C62.3363 160.807 62.5664 160.871 62.8448 160.871ZM67.4193 162V155.455H69.2347V162H67.4193ZM68.3313 154.611C68.0614 154.611 67.8299 154.521 67.6367 154.342C67.4463 154.161 67.3512 153.943 67.3512 153.69C67.3512 153.44 67.4463 153.226 67.6367 153.047C67.8299 152.865 68.0614 152.774 68.3313 152.774C68.6012 152.774 68.8313 152.865 69.0216 153.047C69.2148 153.226 69.3114 153.44 69.3114 153.69C69.3114 153.943 69.2148 154.161 69.0216 154.342C68.8313 154.521 68.6012 154.611 68.3313 154.611ZM72.5042 158.216V162H70.6889V155.455H72.419V156.609H72.4957C72.6406 156.229 72.8835 155.928 73.2244 155.706C73.5653 155.482 73.9787 155.369 74.4644 155.369C74.919 155.369 75.3153 155.469 75.6534 155.668C75.9914 155.866 76.2542 156.151 76.4417 156.52C76.6292 156.886 76.723 157.324 76.723 157.832V162H74.9076V158.156C74.9105 157.756 74.8082 157.443 74.6008 157.219C74.3934 156.991 74.1079 156.878 73.7443 156.878C73.5 156.878 73.284 156.93 73.0965 157.036C72.9119 157.141 72.767 157.294 72.6619 157.496C72.5596 157.695 72.5071 157.935 72.5042 158.216ZM80.0202 162.124C79.6026 162.124 79.2304 162.051 78.9037 161.906C78.577 161.759 78.3185 161.541 78.1282 161.254C77.9407 160.964 77.8469 160.604 77.8469 160.172C77.8469 159.808 77.9137 159.503 78.0472 159.256C78.1807 159.009 78.3625 158.81 78.5926 158.659C78.8228 158.509 79.0841 158.395 79.3767 158.318C79.6722 158.241 79.9818 158.188 80.3057 158.156C80.6864 158.116 80.9932 158.08 81.2262 158.045C81.4591 158.009 81.6282 157.955 81.7333 157.884C81.8384 157.812 81.8909 157.707 81.8909 157.568V157.543C81.8909 157.273 81.8057 157.064 81.6353 156.916C81.4676 156.768 81.229 156.695 80.9193 156.695C80.5926 156.695 80.3327 156.767 80.1395 156.912C79.9463 157.054 79.8185 157.233 79.756 157.449L78.077 157.312C78.1622 156.915 78.3299 156.571 78.5799 156.281C78.8299 155.989 79.1523 155.764 79.5472 155.608C79.9449 155.449 80.4051 155.369 80.9279 155.369C81.2915 155.369 81.6395 155.412 81.9719 155.497C82.3071 155.582 82.604 155.714 82.8625 155.893C83.1239 156.072 83.3299 156.303 83.4804 156.584C83.631 156.862 83.7063 157.196 83.7063 157.585V162H81.9847V161.092H81.9336C81.8284 161.297 81.6878 161.477 81.5117 161.634C81.3355 161.787 81.1239 161.908 80.8767 161.996C80.6296 162.081 80.3441 162.124 80.0202 162.124ZM80.5401 160.871C80.8071 160.871 81.0429 160.818 81.2475 160.713C81.452 160.605 81.6125 160.46 81.729 160.278C81.8455 160.097 81.9037 159.891 81.9037 159.661V158.966C81.8469 159.003 81.7688 159.037 81.6693 159.068C81.5728 159.097 81.4634 159.124 81.3412 159.149C81.2191 159.172 81.0969 159.193 80.9747 159.213C80.8526 159.23 80.7418 159.246 80.6424 159.26C80.4293 159.291 80.2432 159.341 80.0841 159.409C79.925 159.477 79.8014 159.57 79.7134 159.686C79.6253 159.8 79.5813 159.942 79.5813 160.112C79.5813 160.359 79.6708 160.548 79.8497 160.679C80.0316 160.807 80.2617 160.871 80.5401 160.871ZM85.1488 162V153.273H86.9641V156.554H87.0195C87.099 156.378 87.2141 156.199 87.3647 156.017C87.5181 155.832 87.7169 155.679 87.9613 155.557C88.2084 155.432 88.5152 155.369 88.8817 155.369C89.359 155.369 89.7993 155.494 90.2027 155.744C90.6061 155.991 90.9286 156.365 91.1701 156.865C91.4115 157.362 91.5323 157.986 91.5323 158.736C91.5323 159.466 91.4144 160.082 91.1786 160.585C90.9456 161.085 90.6274 161.464 90.224 161.723C89.8235 161.979 89.3746 162.107 88.8774 162.107C88.5252 162.107 88.2255 162.048 87.9783 161.932C87.734 161.815 87.5337 161.669 87.3774 161.493C87.2212 161.314 87.1019 161.134 87.0195 160.952H86.9385V162H85.1488ZM86.9257 158.727C86.9257 159.116 86.9797 159.456 87.0877 159.746C87.1956 160.036 87.3519 160.261 87.5564 160.423C87.761 160.582 88.0095 160.662 88.3022 160.662C88.5976 160.662 88.8476 160.581 89.0522 160.419C89.2567 160.254 89.4115 160.027 89.5166 159.737C89.6246 159.445 89.6786 159.108 89.6786 158.727C89.6786 158.349 89.626 158.017 89.5209 157.73C89.4158 157.443 89.261 157.219 89.0564 157.057C88.8519 156.895 88.6005 156.814 88.3022 156.814C88.0067 156.814 87.7567 156.892 87.5522 157.048C87.3505 157.205 87.1956 157.426 87.0877 157.713C86.9797 158 86.9257 158.338 86.9257 158.727ZM94.5589 153.273V162H92.7436V153.273H94.5589ZM98.9961 162.128C98.3228 162.128 97.7432 161.991 97.2574 161.719C96.7745 161.443 96.4023 161.054 96.1409 160.551C95.8796 160.045 95.7489 159.447 95.7489 158.757C95.7489 158.084 95.8796 157.493 96.1409 156.984C96.4023 156.476 96.7702 156.08 97.2446 155.795C97.7219 155.511 98.2816 155.369 98.9236 155.369C99.3554 155.369 99.7574 155.439 100.13 155.578C100.505 155.714 100.831 155.92 101.11 156.196C101.391 156.472 101.61 156.818 101.766 157.236C101.922 157.651 102 158.136 102 158.693V159.192H96.4733V158.067H100.292C100.292 157.805 100.235 157.574 100.121 157.372C100.007 157.17 99.8497 157.013 99.648 156.899C99.4492 156.783 99.2176 156.724 98.9534 156.724C98.6779 156.724 98.4336 156.788 98.2205 156.916C98.0103 157.041 97.8455 157.21 97.7262 157.423C97.6068 157.634 97.5458 157.868 97.5429 158.126V159.196C97.5429 159.52 97.6026 159.8 97.7219 160.036C97.8441 160.271 98.0159 160.453 98.2375 160.581C98.4591 160.709 98.7219 160.773 99.0259 160.773C99.2276 160.773 99.4122 160.744 99.5799 160.688C99.7475 160.631 99.8909 160.545 100.01 160.432C100.13 160.318 100.22 160.179 100.283 160.014L101.962 160.125C101.877 160.528 101.702 160.881 101.438 161.182C101.176 161.48 100.838 161.713 100.424 161.881C100.012 162.045 99.5358 162.128 98.9961 162.128ZM13.2968 177.128C12.6235 177.128 12.044 176.991 11.5582 176.719C11.0752 176.443 10.7031 176.054 10.4417 175.551C10.1804 175.045 10.0497 174.447 10.0497 173.757C10.0497 173.084 10.1804 172.493 10.4417 171.984C10.7031 171.476 11.071 171.08 11.5454 170.795C12.0227 170.511 12.5823 170.369 13.2244 170.369C13.6562 170.369 14.0582 170.439 14.4304 170.578C14.8054 170.714 15.1321 170.92 15.4105 171.196C15.6917 171.472 15.9105 171.818 16.0667 172.236C16.223 172.651 16.3011 173.136 16.3011 173.693V174.192H10.7741V173.067H14.5923C14.5923 172.805 14.5355 172.574 14.4218 172.372C14.3082 172.17 14.1505 172.013 13.9488 171.899C13.75 171.783 13.5184 171.724 13.2542 171.724C12.9787 171.724 12.7343 171.788 12.5213 171.916C12.311 172.041 12.1463 172.21 12.027 172.423C11.9076 172.634 11.8466 172.868 11.8437 173.126V174.196C11.8437 174.52 11.9034 174.8 12.0227 175.036C12.1448 175.271 12.3167 175.453 12.5383 175.581C12.7599 175.709 13.0227 175.773 13.3267 175.773C13.5284 175.773 13.713 175.744 13.8806 175.688C14.0483 175.631 14.1917 175.545 14.311 175.432C14.4304 175.318 14.5213 175.179 14.5838 175.014L16.2627 175.125C16.1775 175.528 16.0028 175.881 15.7386 176.182C15.4772 176.48 15.1392 176.713 14.7244 176.881C14.3125 177.045 13.8366 177.128 13.2968 177.128ZM19.3011 168.273V177H17.4858V168.273H19.3011ZM23.7382 177.128C23.0649 177.128 22.4854 176.991 21.9996 176.719C21.5167 176.443 21.1445 176.054 20.8831 175.551C20.6218 175.045 20.4911 174.447 20.4911 173.757C20.4911 173.084 20.6218 172.493 20.8831 171.984C21.1445 171.476 21.5124 171.08 21.9868 170.795C22.4641 170.511 23.0238 170.369 23.6658 170.369C24.0976 170.369 24.4996 170.439 24.8718 170.578C25.2468 170.714 25.5735 170.92 25.8519 171.196C26.1331 171.472 26.3519 171.818 26.5081 172.236C26.6644 172.651 26.7425 173.136 26.7425 173.693V174.192H21.2155V173.067H25.0337C25.0337 172.805 24.9769 172.574 24.8632 172.372C24.7496 172.17 24.5919 172.013 24.3902 171.899C24.1914 171.783 23.9598 171.724 23.6956 171.724C23.4201 171.724 23.1757 171.788 22.9627 171.916C22.7524 172.041 22.5877 172.21 22.4684 172.423C22.349 172.634 22.288 172.868 22.2851 173.126V174.196C22.2851 174.52 22.3448 174.8 22.4641 175.036C22.5863 175.271 22.7581 175.453 22.9797 175.581C23.2013 175.709 23.4641 175.773 23.7681 175.773C23.9698 175.773 24.1544 175.744 24.3221 175.688C24.4897 175.631 24.6331 175.545 24.7524 175.432C24.8718 175.318 24.9627 175.179 25.0252 175.014L26.7042 175.125C26.6189 175.528 26.4442 175.881 26.18 176.182C25.9186 176.48 25.5806 176.713 25.1658 176.881C24.7539 177.045 24.278 177.128 23.7382 177.128ZM30.8846 177.128C30.2141 177.128 29.6374 176.986 29.1544 176.702C28.6743 176.415 28.305 176.017 28.0465 175.509C27.7908 175 27.663 174.415 27.663 173.753C27.663 173.082 27.7922 172.494 28.0507 171.989C28.3121 171.48 28.6828 171.084 29.163 170.8C29.6431 170.513 30.2141 170.369 30.876 170.369C31.4471 170.369 31.9471 170.473 32.376 170.68C32.805 170.888 33.1445 171.179 33.3945 171.554C33.6445 171.929 33.7823 172.369 33.8078 172.875H32.0948C32.0465 172.548 31.9186 172.286 31.7113 172.087C31.5067 171.885 31.2382 171.784 30.9059 171.784C30.6246 171.784 30.3789 171.861 30.1686 172.014C29.9613 172.165 29.7993 172.385 29.6828 172.675C29.5664 172.964 29.5081 173.315 29.5081 173.727C29.5081 174.145 29.5649 174.5 29.6786 174.793C29.7951 175.085 29.9584 175.308 30.1686 175.462C30.3789 175.615 30.6246 175.692 30.9059 175.692C31.1132 175.692 31.2993 175.649 31.4641 175.564C31.6317 175.479 31.7695 175.355 31.8774 175.193C31.9882 175.028 32.0607 174.831 32.0948 174.601H33.8078C33.7794 175.101 33.6431 175.541 33.3988 175.922C33.1573 176.3 32.8235 176.595 32.3973 176.808C31.9712 177.021 31.4669 177.128 30.8846 177.128ZM38.4517 170.455V171.818H34.5099V170.455H38.4517ZM35.4048 168.886H37.2201V174.989C37.2201 175.156 37.2457 175.287 37.2968 175.381C37.348 175.472 37.419 175.536 37.5099 175.572C37.6037 175.609 37.7116 175.628 37.8338 175.628C37.919 175.628 38.0042 175.621 38.0895 175.607C38.1747 175.589 38.24 175.577 38.2855 175.568L38.571 176.919C38.4801 176.947 38.3522 176.98 38.1875 177.017C38.0227 177.057 37.8224 177.081 37.5866 177.089C37.1491 177.107 36.7656 177.048 36.436 176.915C36.1093 176.781 35.8551 176.574 35.6733 176.293C35.4914 176.011 35.402 175.656 35.4048 175.227V168.886ZM39.6342 177V170.455H41.3941V171.597H41.4623C41.5816 171.19 41.7819 170.884 42.0632 170.676C42.3444 170.466 42.6683 170.361 43.0348 170.361C43.1257 170.361 43.2237 170.366 43.3288 170.378C43.4339 170.389 43.5262 170.405 43.6058 170.425V172.036C43.5206 172.01 43.4027 171.987 43.2521 171.967C43.1015 171.947 42.9637 171.938 42.8387 171.938C42.5717 171.938 42.3331 171.996 42.1228 172.112C41.9154 172.226 41.7507 172.385 41.6285 172.589C41.5092 172.794 41.4495 173.03 41.4495 173.297V177H39.6342ZM44.5444 177V170.455H46.3597V177H44.5444ZM45.4563 169.611C45.1864 169.611 44.9549 169.521 44.7617 169.342C44.5713 169.161 44.4762 168.943 44.4762 168.69C44.4762 168.44 44.5713 168.226 44.7617 168.047C44.9549 167.865 45.1864 167.774 45.4563 167.774C45.7262 167.774 45.9563 167.865 46.1466 168.047C46.3398 168.226 46.4364 168.44 46.4364 168.69C46.4364 168.943 46.3398 169.161 46.1466 169.342C45.9563 169.521 45.7262 169.611 45.4563 169.611ZM50.7713 177.128C50.1008 177.128 49.5241 176.986 49.0412 176.702C48.561 176.415 48.1917 176.017 47.9332 175.509C47.6775 175 47.5497 174.415 47.5497 173.753C47.5497 173.082 47.6789 172.494 47.9375 171.989C48.1988 171.48 48.5696 171.084 49.0497 170.8C49.5298 170.513 50.1008 170.369 50.7627 170.369C51.3338 170.369 51.8338 170.473 52.2627 170.68C52.6917 170.888 53.0312 171.179 53.2812 171.554C53.5312 171.929 53.669 172.369 53.6946 172.875H51.9815C51.9332 172.548 51.8054 172.286 51.598 172.087C51.3934 171.885 51.125 171.784 50.7926 171.784C50.5113 171.784 50.2656 171.861 50.0554 172.014C49.848 172.165 49.686 172.385 49.5696 172.675C49.4531 172.964 49.3948 173.315 49.3948 173.727C49.3948 174.145 49.4517 174.5 49.5653 174.793C49.6818 175.085 49.8451 175.308 50.0554 175.462C50.2656 175.615 50.5113 175.692 50.7926 175.692C51 175.692 51.186 175.649 51.3508 175.564C51.5184 175.479 51.6562 175.355 51.7642 175.193C51.875 175.028 51.9474 174.831 51.9815 174.601H53.6946C53.6662 175.101 53.5298 175.541 53.2855 175.922C53.044 176.3 52.7102 176.595 52.2841 176.808C51.8579 177.021 51.3537 177.128 50.7713 177.128ZM54.8569 177V170.455H56.6722V177H54.8569ZM55.7688 169.611C55.4989 169.611 55.2674 169.521 55.0742 169.342C54.8838 169.161 54.7887 168.943 54.7887 168.69C54.7887 168.44 54.8838 168.226 55.0742 168.047C55.2674 167.865 55.4989 167.774 55.7688 167.774C56.0387 167.774 56.2688 167.865 56.4591 168.047C56.6523 168.226 56.7489 168.44 56.7489 168.69C56.7489 168.943 56.6523 169.161 56.4591 169.342C56.2688 169.521 56.0387 169.611 55.7688 169.611ZM61.6079 170.455V171.818H57.6662V170.455H61.6079ZM58.561 168.886H60.3764V174.989C60.3764 175.156 60.402 175.287 60.4531 175.381C60.5042 175.472 60.5752 175.536 60.6662 175.572C60.7599 175.609 60.8679 175.628 60.99 175.628C61.0752 175.628 61.1605 175.621 61.2457 175.607C61.3309 175.589 61.3963 175.577 61.4417 175.568L61.7272 176.919C61.6363 176.947 61.5085 176.98 61.3437 177.017C61.1789 177.057 60.9787 177.081 60.7429 177.089C60.3054 177.107 59.9218 177.048 59.5923 176.915C59.2656 176.781 59.0113 176.574 58.8295 176.293C58.6477 176.011 58.5582 175.656 58.561 175.227V168.886ZM63.9112 179.455C63.6811 179.455 63.4652 179.436 63.2635 179.399C63.0646 179.365 62.8998 179.321 62.7691 179.267L63.1782 177.912C63.3913 177.977 63.5831 178.013 63.7535 178.018C63.9268 178.024 64.076 177.984 64.201 177.899C64.3288 177.814 64.4325 177.669 64.512 177.464L64.6186 177.188L62.2706 170.455H64.1796L65.5348 175.261H65.6029L66.9708 170.455H68.8927L66.3487 177.707C66.2265 178.06 66.0603 178.366 65.8501 178.628C65.6427 178.892 65.3799 179.095 65.0618 179.237C64.7436 179.382 64.36 179.455 63.9112 179.455ZM78.0451 172.321L76.3831 172.423C76.3547 172.281 76.2936 172.153 76.1999 172.04C76.1061 171.923 75.9826 171.831 75.8291 171.763C75.6786 171.692 75.4982 171.656 75.288 171.656C75.0067 171.656 74.7695 171.716 74.5763 171.835C74.3831 171.952 74.2865 172.108 74.2865 172.304C74.2865 172.46 74.349 172.592 74.474 172.7C74.599 172.808 74.8135 172.895 75.1175 172.96L76.3022 173.199C76.9385 173.33 77.413 173.54 77.7255 173.83C78.038 174.119 78.1942 174.5 78.1942 174.972C78.1942 175.401 78.0678 175.777 77.8149 176.101C77.5649 176.425 77.2212 176.678 76.7837 176.859C76.349 177.038 75.8476 177.128 75.2794 177.128C74.413 177.128 73.7226 176.947 73.2084 176.587C72.697 176.223 72.3973 175.729 72.3093 175.104L74.0948 175.01C74.1488 175.274 74.2794 175.476 74.4868 175.615C74.6942 175.751 74.9598 175.82 75.2837 175.82C75.6019 175.82 75.8576 175.759 76.0507 175.636C76.2468 175.511 76.3462 175.351 76.349 175.155C76.3462 174.99 76.2766 174.855 76.1402 174.75C76.0039 174.642 75.7936 174.56 75.5095 174.503L74.376 174.277C73.7368 174.149 73.261 173.928 72.9485 173.612C72.6388 173.297 72.484 172.895 72.484 172.406C72.484 171.986 72.5976 171.624 72.8249 171.32C73.055 171.016 73.3774 170.781 73.7922 170.616C74.2098 170.452 74.6985 170.369 75.2581 170.369C76.0848 170.369 76.7354 170.544 77.2098 170.893C77.6871 171.243 77.9655 171.719 78.0451 172.321ZM82.3203 177.128C81.647 177.128 81.0674 176.991 80.5816 176.719C80.0987 176.443 79.7265 176.054 79.4652 175.551C79.2038 175.045 79.0731 174.447 79.0731 173.757C79.0731 173.084 79.2038 172.493 79.4652 171.984C79.7265 171.476 80.0944 171.08 80.5689 170.795C81.0461 170.511 81.6058 170.369 82.2478 170.369C82.6796 170.369 83.0816 170.439 83.4538 170.578C83.8288 170.714 84.1555 170.92 84.4339 171.196C84.7152 171.472 84.9339 171.818 85.0902 172.236C85.2464 172.651 85.3245 173.136 85.3245 173.693V174.192H79.7975V173.067H83.6157C83.6157 172.805 83.5589 172.574 83.4453 172.372C83.3316 172.17 83.174 172.013 82.9723 171.899C82.7734 171.783 82.5419 171.724 82.2777 171.724C82.0021 171.724 81.7578 171.788 81.5447 171.916C81.3345 172.041 81.1697 172.21 81.0504 172.423C80.9311 172.634 80.87 172.868 80.8671 173.126V174.196C80.8671 174.52 80.9268 174.8 81.0461 175.036C81.1683 175.271 81.3402 175.453 81.5617 175.581C81.7833 175.709 82.0461 175.773 82.3501 175.773C82.5518 175.773 82.7365 175.744 82.9041 175.688C83.0717 175.631 83.2152 175.545 83.3345 175.432C83.4538 175.318 83.5447 175.179 83.6072 175.014L85.2862 175.125C85.201 175.528 85.0262 175.881 84.762 176.182C84.5007 176.48 84.1626 176.713 83.7478 176.881C83.3359 177.045 82.86 177.128 82.3203 177.128ZM89.4666 177.128C88.7961 177.128 88.2194 176.986 87.7365 176.702C87.2564 176.415 86.887 176.017 86.6285 175.509C86.3728 175 86.245 174.415 86.245 173.753C86.245 173.082 86.3742 172.494 86.6328 171.989C86.8941 171.48 87.2649 171.084 87.745 170.8C88.2251 170.513 88.7961 170.369 89.4581 170.369C90.0291 170.369 90.5291 170.473 90.9581 170.68C91.387 170.888 91.7265 171.179 91.9765 171.554C92.2265 171.929 92.3643 172.369 92.3899 172.875H90.6768C90.6285 172.548 90.5007 172.286 90.2933 172.087C90.0887 171.885 89.8203 171.784 89.4879 171.784C89.2066 171.784 88.9609 171.861 88.7507 172.014C88.5433 172.165 88.3814 172.385 88.2649 172.675C88.1484 172.964 88.0902 173.315 88.0902 173.727C88.0902 174.145 88.147 174.5 88.2606 174.793C88.3771 175.085 88.5404 175.308 88.7507 175.462C88.9609 175.615 89.2066 175.692 89.4879 175.692C89.6953 175.692 89.8814 175.649 90.0461 175.564C90.2137 175.479 90.3515 175.355 90.4595 175.193C90.5703 175.028 90.6427 174.831 90.6768 174.601H92.3899C92.3615 175.101 92.2251 175.541 91.9808 175.922C91.7393 176.3 91.4055 176.595 90.9794 176.808C90.5532 177.021 90.049 177.128 89.4666 177.128ZM97.0337 170.455V171.818H93.0919V170.455H97.0337ZM93.9868 168.886H95.8022V174.989C95.8022 175.156 95.8277 175.287 95.8789 175.381C95.93 175.472 96.001 175.536 96.0919 175.572C96.1857 175.609 96.2936 175.628 96.4158 175.628C96.501 175.628 96.5863 175.621 96.6715 175.607C96.7567 175.589 96.822 175.577 96.8675 175.568L97.153 176.919C97.0621 176.947 96.9343 176.98 96.7695 177.017C96.6047 177.057 96.4044 177.081 96.1686 177.089C95.7311 177.107 95.3476 177.048 95.0181 176.915C94.6914 176.781 94.4371 176.574 94.2553 176.293C94.0735 176.011 93.984 175.656 93.9868 175.227V168.886ZM101.103 177.128C100.441 177.128 99.8689 176.987 99.386 176.706C98.9059 176.422 98.5351 176.027 98.2738 175.521C98.0124 175.013 97.8817 174.423 97.8817 173.753C97.8817 173.077 98.0124 172.486 98.2738 171.98C98.5351 171.472 98.9059 171.077 99.386 170.795C99.8689 170.511 100.441 170.369 101.103 170.369C101.765 170.369 102.336 170.511 102.816 170.795C103.299 171.077 103.671 171.472 103.933 171.98C104.194 172.486 104.325 173.077 104.325 173.753C104.325 174.423 104.194 175.013 103.933 175.521C103.671 176.027 103.299 176.422 102.816 176.706C102.336 176.987 101.765 177.128 101.103 177.128ZM101.112 175.722C101.413 175.722 101.664 175.636 101.866 175.466C102.068 175.293 102.22 175.057 102.322 174.759C102.427 174.46 102.48 174.121 102.48 173.74C102.48 173.359 102.427 173.02 102.322 172.722C102.22 172.423 102.068 172.187 101.866 172.014C101.664 171.841 101.413 171.754 101.112 171.754C100.808 171.754 100.552 171.841 100.345 172.014C100.14 172.187 99.9854 172.423 99.8803 172.722C99.778 173.02 99.7269 173.359 99.7269 173.74C99.7269 174.121 99.778 174.46 99.8803 174.759C99.9854 175.057 100.14 175.293 100.345 175.466C100.552 175.636 100.808 175.722 101.112 175.722ZM105.505 177V170.455H107.265V171.597H107.333C107.453 171.19 107.653 170.884 107.934 170.676C108.216 170.466 108.539 170.361 108.906 170.361C108.997 170.361 109.095 170.366 109.2 170.378C109.305 170.389 109.397 170.405 109.477 170.425V172.036C109.392 172.01 109.274 171.987 109.123 171.967C108.973 171.947 108.835 171.938 108.71 171.938C108.443 171.938 108.204 171.996 107.994 172.112C107.787 172.226 107.622 172.385 107.5 172.589C107.38 172.794 107.321 173.03 107.321 173.297V177H105.505Z" fill="#043266"/>
<g filter="url(#filter1_d_997_1609)">
<circle cx="60" cy="204.06" r="15" fill="white"/>
</g>
<path d="M60.2307 193.011C56.2546 193.011 53.0192 195.856 53.0192 199.353C53.0192 201.202 54.2336 203.107 55.4065 204.947C56.4172 206.531 57.3825 208.043 57.6839 209.598H62.7771C63.0793 208.043 64.0434 206.531 65.0538 204.947C66.2275 203.107 67.4422 201.202 67.4422 199.353C67.4422 195.856 64.2068 193.011 60.2307 193.011ZM60.2307 202.99C60.9273 203.742 61.5836 203.965 61.8836 204.032C61.8385 204.232 61.7978 204.427 61.7505 204.62C61.6618 205.014 61.5753 205.397 61.4913 205.766C61.2572 206.802 61.0294 207.839 60.808 208.877H59.6531C59.4311 207.839 59.2033 206.802 58.9698 205.766L58.7098 204.62C58.6626 204.427 58.6218 204.232 58.5775 204.032C58.8778 203.965 59.5341 203.742 60.2307 202.99V202.99ZM60.0364 202.203C59.9675 202.054 59.9426 201.902 60.0133 201.79C60.0724 201.701 60.1507 201.65 60.2311 201.65C60.3115 201.65 60.389 201.701 60.4489 201.79C60.5192 201.902 60.4946 202.054 60.4258 202.203C60.3749 202.308 60.3053 202.408 60.2307 202.505C60.1553 202.412 60.0901 202.31 60.0364 202.203V202.203ZM64.4462 204.559C63.5148 206.019 62.6293 207.407 62.2095 208.877H61.0391C61.2986 207.861 61.5526 206.843 61.801 205.825C61.8897 205.456 61.9835 205.075 62.079 204.682C62.1324 204.473 62.1796 204.258 62.2319 204.043C62.5045 204.025 62.7652 203.939 62.9686 203.753C63.177 203.548 63.2855 203.28 63.2368 202.993C63.2148 202.856 63.1121 202.679 62.9138 202.618C62.8168 202.586 62.7121 202.583 62.6138 202.611C62.5318 202.642 62.458 202.691 62.3981 202.754C62.2059 202.968 62.136 203.181 62.0574 203.392C62.0206 203.498 61.9903 203.605 61.9615 203.71C61.9615 203.71 61.655 203.733 60.9995 203.292C60.6353 203.047 60.5303 202.87 60.4247 202.753C60.5386 202.627 60.6479 202.488 60.7326 202.319C60.7777 202.225 60.8156 202.123 60.8285 202.009C60.8415 201.894 60.8202 201.764 60.7546 201.652C60.6846 201.528 60.5746 201.432 60.4427 201.378C60.3771 201.355 60.3039 201.344 60.2307 201.344C60.1575 201.344 60.0836 201.355 60.0187 201.378C59.8866 201.432 59.7765 201.528 59.7061 201.652C59.6404 201.764 59.6195 201.894 59.6321 202.009C59.6467 202.117 59.6794 202.222 59.7288 202.319C59.8132 202.488 59.9224 202.627 60.0367 202.753C59.9311 202.87 59.8254 203.047 59.4612 203.292C58.8057 203.734 58.4992 203.71 58.4992 203.71C58.4709 203.603 58.4392 203.497 58.404 203.392C58.3243 203.181 58.2555 202.968 58.0633 202.754C58.0034 202.691 57.9296 202.642 57.8477 202.611C57.7493 202.583 57.6446 202.586 57.5477 202.618C57.3483 202.679 57.2462 202.856 57.2246 202.993C57.1752 203.28 57.2844 203.548 57.4928 203.753C57.6969 203.939 57.9569 204.025 58.2295 204.043C58.2811 204.258 58.3279 204.473 58.3824 204.682L58.6604 205.825C58.909 206.843 59.163 207.861 59.4223 208.877H58.2519C57.8329 207.408 56.9469 206.02 56.013 204.558C54.8956 202.804 53.7403 200.991 53.7403 199.353C53.7403 196.254 56.6516 193.733 60.2307 193.733C63.8094 193.733 66.7211 196.254 66.7211 199.353C66.7211 200.992 65.5647 202.805 64.4462 204.559V204.559ZM62.3217 203.708C62.343 203.634 62.3646 203.559 62.3898 203.487C62.458 203.297 62.5449 203.09 62.6632 202.966C62.6913 202.935 62.7201 202.922 62.7349 202.914C62.7349 202.915 62.7702 202.909 62.7926 202.92C62.8326 202.931 62.8708 202.972 62.8856 203.052C62.9145 203.206 62.8413 203.405 62.7089 203.529C62.6159 203.617 62.4724 203.68 62.3217 203.708ZM58.139 203.708C57.9883 203.68 57.8448 203.617 57.7525 203.529C57.6194 203.404 57.5469 203.206 57.5758 203.051C57.5906 202.971 57.6284 202.93 57.6688 202.92C57.6915 202.909 57.7265 202.915 57.7265 202.913C57.7406 202.922 57.7701 202.935 57.7968 202.966C57.9158 203.09 58.0023 203.296 58.0708 203.486C58.0961 203.559 58.1181 203.634 58.139 203.708" fill="#1CDF8C"/>
<path d="M58.2547 210.159H57.8942V211.457H58.1711V212.612H58.448V213.766H58.9117C59.1299 214.281 59.6347 214.646 60.2307 214.646C60.8264 214.646 61.3308 214.281 61.5497 213.765H62.0282V212.604L62.0686 212.589L62.3047 212.502V211.448L62.3282 211.441L62.5809 211.362V210.159H58.2547V210.159Z" fill="#1CDF8C"/>
<path d="M214.589 298H212.612L215.624 289.273H218.002L221.011 298H219.034L216.847 291.267H216.779L214.589 298ZM214.465 294.57H219.136V296.01H214.465V294.57ZM223.843 294.216V298H222.027V291.455H223.757V292.609H223.834C223.979 292.229 224.222 291.928 224.563 291.706C224.904 291.482 225.317 291.369 225.803 291.369C226.257 291.369 226.654 291.469 226.992 291.668C227.33 291.866 227.593 292.151 227.78 292.52C227.968 292.886 228.061 293.324 228.061 293.832V298H226.246V294.156C226.249 293.756 226.146 293.443 225.939 293.219C225.732 292.991 225.446 292.878 225.083 292.878C224.838 292.878 224.622 292.93 224.435 293.036C224.25 293.141 224.105 293.294 224 293.496C223.898 293.695 223.845 293.935 223.843 294.216ZM235.252 298.128C234.579 298.128 233.999 297.991 233.514 297.719C233.031 297.443 232.659 297.054 232.397 296.551C232.136 296.045 232.005 295.447 232.005 294.757C232.005 294.084 232.136 293.493 232.397 292.984C232.659 292.476 233.026 292.08 233.501 291.795C233.978 291.511 234.538 291.369 235.18 291.369C235.612 291.369 236.014 291.439 236.386 291.578C236.761 291.714 237.088 291.92 237.366 292.196C237.647 292.472 237.866 292.818 238.022 293.236C238.178 293.651 238.257 294.136 238.257 294.693V295.192H232.73V294.067H236.548C236.548 293.805 236.491 293.574 236.377 293.372C236.264 293.17 236.106 293.013 235.904 292.899C235.705 292.783 235.474 292.724 235.21 292.724C234.934 292.724 234.69 292.788 234.477 292.916C234.267 293.041 234.102 293.21 233.982 293.423C233.863 293.634 233.802 293.868 233.799 294.126V295.196C233.799 295.52 233.859 295.8 233.978 296.036C234.1 296.271 234.272 296.453 234.494 296.581C234.715 296.709 234.978 296.773 235.282 296.773C235.484 296.773 235.669 296.744 235.836 296.688C236.004 296.631 236.147 296.545 236.267 296.432C236.386 296.318 236.477 296.179 236.539 296.014L238.218 296.125C238.133 296.528 237.958 296.881 237.694 297.182C237.433 297.48 237.095 297.713 236.68 297.881C236.268 298.045 235.792 298.128 235.252 298.128ZM242.961 291.455V292.818H238.921V291.455H242.961ZM239.846 298V290.982C239.846 290.507 239.938 290.114 240.123 289.801C240.311 289.489 240.566 289.254 240.89 289.098C241.214 288.942 241.582 288.864 241.994 288.864C242.272 288.864 242.526 288.885 242.757 288.928C242.99 288.97 243.163 289.009 243.276 289.043L242.953 290.406C242.882 290.384 242.794 290.362 242.688 290.342C242.586 290.322 242.481 290.312 242.373 290.312C242.106 290.312 241.92 290.375 241.815 290.5C241.71 290.622 241.657 290.794 241.657 291.016V298H239.846ZM247.59 291.455V292.818H243.55V291.455H247.59ZM244.475 298V290.982C244.475 290.507 244.567 290.114 244.752 289.801C244.939 289.489 245.195 289.254 245.519 289.098C245.843 288.942 246.211 288.864 246.623 288.864C246.901 288.864 247.155 288.885 247.385 288.928C247.618 288.97 247.792 289.009 247.905 289.043L247.581 290.406C247.51 290.384 247.422 290.362 247.317 290.342C247.215 290.322 247.11 290.312 247.002 290.312C246.735 290.312 246.549 290.375 246.444 290.5C246.339 290.622 246.286 290.794 246.286 291.016V298H244.475ZM248.699 298V291.455H250.514V298H248.699ZM249.611 290.611C249.341 290.611 249.11 290.521 248.916 290.342C248.726 290.161 248.631 289.943 248.631 289.69C248.631 289.44 248.726 289.226 248.916 289.047C249.11 288.865 249.341 288.774 249.611 288.774C249.881 288.774 250.111 288.865 250.301 289.047C250.494 289.226 250.591 289.44 250.591 289.69C250.591 289.943 250.494 290.161 250.301 290.342C250.111 290.521 249.881 290.611 249.611 290.611ZM254.926 298.128C254.256 298.128 253.679 297.986 253.196 297.702C252.716 297.415 252.346 297.017 252.088 296.509C251.832 296 251.704 295.415 251.704 294.753C251.704 294.082 251.834 293.494 252.092 292.989C252.354 292.48 252.724 292.084 253.204 291.8C253.684 291.513 254.256 291.369 254.917 291.369C255.488 291.369 255.988 291.473 256.417 291.68C256.846 291.888 257.186 292.179 257.436 292.554C257.686 292.929 257.824 293.369 257.849 293.875H256.136C256.088 293.548 255.96 293.286 255.753 293.087C255.548 292.885 255.28 292.784 254.947 292.784C254.666 292.784 254.42 292.861 254.21 293.014C254.003 293.165 253.841 293.385 253.724 293.675C253.608 293.964 253.55 294.315 253.55 294.727C253.55 295.145 253.606 295.5 253.72 295.793C253.836 296.085 254 296.308 254.21 296.462C254.42 296.615 254.666 296.692 254.947 296.692C255.155 296.692 255.341 296.649 255.506 296.564C255.673 296.479 255.811 296.355 255.919 296.193C256.03 296.028 256.102 295.831 256.136 295.601H257.849C257.821 296.101 257.684 296.541 257.44 296.922C257.199 297.3 256.865 297.595 256.439 297.808C256.013 298.021 255.508 298.128 254.926 298.128ZM259.012 298V291.455H260.827V298H259.012ZM259.923 290.611C259.654 290.611 259.422 290.521 259.229 290.342C259.039 290.161 258.943 289.943 258.943 289.69C258.943 289.44 259.039 289.226 259.229 289.047C259.422 288.865 259.654 288.774 259.923 288.774C260.193 288.774 260.423 288.865 260.614 289.047C260.807 289.226 260.904 289.44 260.904 289.69C260.904 289.943 260.807 290.161 260.614 290.342C260.423 290.521 260.193 290.611 259.923 290.611ZM265.264 298.128C264.591 298.128 264.011 297.991 263.525 297.719C263.042 297.443 262.67 297.054 262.409 296.551C262.148 296.045 262.017 295.447 262.017 294.757C262.017 294.084 262.148 293.493 262.409 292.984C262.67 292.476 263.038 292.08 263.513 291.795C263.99 291.511 264.55 291.369 265.192 291.369C265.623 291.369 266.025 291.439 266.398 291.578C266.773 291.714 267.099 291.92 267.378 292.196C267.659 292.472 267.878 292.818 268.034 293.236C268.19 293.651 268.268 294.136 268.268 294.693V295.192H262.741V294.067H266.559C266.559 293.805 266.503 293.574 266.389 293.372C266.275 293.17 266.118 293.013 265.916 292.899C265.717 292.783 265.486 292.724 265.221 292.724C264.946 292.724 264.702 292.788 264.488 292.916C264.278 293.041 264.113 293.21 263.994 293.423C263.875 293.634 263.814 293.868 263.811 294.126V295.196C263.811 295.52 263.871 295.8 263.99 296.036C264.112 296.271 264.284 296.453 264.506 296.581C264.727 296.709 264.99 296.773 265.294 296.773C265.496 296.773 265.68 296.744 265.848 296.688C266.015 296.631 266.159 296.545 266.278 296.432C266.398 296.318 266.488 296.179 266.551 296.014L268.23 296.125C268.145 296.528 267.97 296.881 267.706 297.182C267.444 297.48 267.106 297.713 266.692 297.881C266.28 298.045 265.804 298.128 265.264 298.128ZM271.268 294.216V298H269.453V291.455H271.183V292.609H271.26C271.405 292.229 271.648 291.928 271.988 291.706C272.329 291.482 272.743 291.369 273.229 291.369C273.683 291.369 274.079 291.469 274.417 291.668C274.756 291.866 275.018 292.151 275.206 292.52C275.393 292.886 275.487 293.324 275.487 293.832V298H273.672V294.156C273.675 293.756 273.572 293.443 273.365 293.219C273.157 292.991 272.872 292.878 272.508 292.878C272.264 292.878 272.048 292.93 271.861 293.036C271.676 293.141 271.531 293.294 271.426 293.496C271.324 293.695 271.271 293.935 271.268 294.216ZM280.399 291.455V292.818H276.458V291.455H280.399ZM277.352 289.886H279.168V295.989C279.168 296.156 279.193 296.287 279.244 296.381C279.296 296.472 279.367 296.536 279.458 296.572C279.551 296.609 279.659 296.628 279.781 296.628C279.867 296.628 279.952 296.621 280.037 296.607C280.122 296.589 280.188 296.577 280.233 296.568L280.519 297.919C280.428 297.947 280.3 297.98 280.135 298.017C279.97 298.057 279.77 298.081 279.534 298.089C279.097 298.107 278.713 298.048 278.384 297.915C278.057 297.781 277.803 297.574 277.621 297.293C277.439 297.011 277.35 296.656 277.352 296.227V289.886ZM287.342 298.128C286.669 298.128 286.089 297.991 285.604 297.719C285.121 297.443 284.748 297.054 284.487 296.551C284.226 296.045 284.095 295.447 284.095 294.757C284.095 294.084 284.226 293.493 284.487 292.984C284.748 292.476 285.116 292.08 285.591 291.795C286.068 291.511 286.628 291.369 287.27 291.369C287.702 291.369 288.104 291.439 288.476 291.578C288.851 291.714 289.177 291.92 289.456 292.196C289.737 292.472 289.956 292.818 290.112 293.236C290.268 293.651 290.346 294.136 290.346 294.693V295.192H284.819V294.067H288.638C288.638 293.805 288.581 293.574 288.467 293.372C288.354 293.17 288.196 293.013 287.994 292.899C287.795 292.783 287.564 292.724 287.3 292.724C287.024 292.724 286.78 292.788 286.567 292.916C286.356 293.041 286.192 293.21 286.072 293.423C285.953 293.634 285.892 293.868 285.889 294.126V295.196C285.889 295.52 285.949 295.8 286.068 296.036C286.19 296.271 286.362 296.453 286.584 296.581C286.805 296.709 287.068 296.773 287.372 296.773C287.574 296.773 287.758 296.744 287.926 296.688C288.094 296.631 288.237 296.545 288.356 296.432C288.476 296.318 288.567 296.179 288.629 296.014L290.308 296.125C290.223 296.528 290.048 296.881 289.784 297.182C289.523 297.48 289.184 297.713 288.77 297.881C288.358 298.045 287.882 298.128 287.342 298.128ZM293.346 294.216V298H291.531V291.455H293.261V292.609H293.338C293.483 292.229 293.726 291.928 294.067 291.706C294.407 291.482 294.821 291.369 295.307 291.369C295.761 291.369 296.157 291.469 296.496 291.668C296.834 291.866 297.096 292.151 297.284 292.52C297.471 292.886 297.565 293.324 297.565 293.832V298H295.75V294.156C295.753 293.756 295.65 293.443 295.443 293.219C295.236 292.991 294.95 292.878 294.586 292.878C294.342 292.878 294.126 292.93 293.939 293.036C293.754 293.141 293.609 293.294 293.504 293.496C293.402 293.695 293.349 293.935 293.346 294.216ZM301.979 298.128C301.306 298.128 300.726 297.991 300.24 297.719C299.757 297.443 299.385 297.054 299.124 296.551C298.862 296.045 298.732 295.447 298.732 294.757C298.732 294.084 298.862 293.493 299.124 292.984C299.385 292.476 299.753 292.08 300.227 291.795C300.705 291.511 301.264 291.369 301.906 291.369C302.338 291.369 302.74 291.439 303.112 291.578C303.487 291.714 303.814 291.92 304.093 292.196C304.374 292.472 304.593 292.818 304.749 293.236C304.905 293.651 304.983 294.136 304.983 294.693V295.192H299.456V294.067H303.274C303.274 293.805 303.218 293.574 303.104 293.372C302.99 293.17 302.833 293.013 302.631 292.899C302.432 292.783 302.2 292.724 301.936 292.724C301.661 292.724 301.416 292.788 301.203 292.916C300.993 293.041 300.828 293.21 300.709 293.423C300.59 293.634 300.529 293.868 300.526 294.126V295.196C300.526 295.52 300.585 295.8 300.705 296.036C300.827 296.271 300.999 296.453 301.22 296.581C301.442 296.709 301.705 296.773 302.009 296.773C302.21 296.773 302.395 296.744 302.563 296.688C302.73 296.631 302.874 296.545 302.993 296.432C303.112 296.318 303.203 296.179 303.266 296.014L304.945 296.125C304.86 296.528 304.685 296.881 304.421 297.182C304.159 297.48 303.821 297.713 303.406 297.881C302.994 298.045 302.519 298.128 301.979 298.128ZM306.168 298V291.455H307.928V292.597H307.996C308.115 292.19 308.316 291.884 308.597 291.676C308.878 291.466 309.202 291.361 309.568 291.361C309.659 291.361 309.757 291.366 309.862 291.378C309.968 291.389 310.06 291.405 310.139 291.425V293.036C310.054 293.01 309.936 292.987 309.786 292.967C309.635 292.947 309.497 292.938 309.372 292.938C309.105 292.938 308.867 292.996 308.656 293.112C308.449 293.226 308.284 293.385 308.162 293.589C308.043 293.794 307.983 294.03 307.983 294.297V298H306.168ZM313.722 300.591C313.134 300.591 312.63 300.51 312.209 300.348C311.792 300.189 311.459 299.972 311.212 299.696C310.965 299.42 310.805 299.111 310.731 298.767L312.41 298.541C312.461 298.672 312.542 298.794 312.653 298.908C312.763 299.021 312.91 299.112 313.091 299.18C313.276 299.251 313.501 299.287 313.765 299.287C314.16 299.287 314.485 299.19 314.741 298.997C314.999 298.807 315.128 298.487 315.128 298.038V296.841H315.052C314.972 297.023 314.853 297.195 314.694 297.357C314.535 297.518 314.33 297.651 314.08 297.753C313.83 297.855 313.532 297.906 313.185 297.906C312.694 297.906 312.246 297.793 311.843 297.565C311.442 297.335 311.123 296.984 310.884 296.513C310.648 296.038 310.53 295.439 310.53 294.714C310.53 293.973 310.651 293.354 310.893 292.857C311.134 292.359 311.455 291.987 311.856 291.74C312.259 291.493 312.701 291.369 313.181 291.369C313.547 291.369 313.854 291.432 314.101 291.557C314.349 291.679 314.547 291.832 314.698 292.017C314.851 292.199 314.969 292.378 315.052 292.554H315.12V291.455H316.922V298.064C316.922 298.621 316.786 299.087 316.513 299.462C316.241 299.837 315.863 300.118 315.38 300.305C314.9 300.496 314.347 300.591 313.722 300.591ZM313.76 296.543C314.053 296.543 314.3 296.47 314.502 296.325C314.706 296.178 314.863 295.967 314.971 295.695C315.081 295.419 315.137 295.089 315.137 294.706C315.137 294.322 315.083 293.99 314.975 293.709C314.867 293.425 314.711 293.205 314.506 293.048C314.302 292.892 314.053 292.814 313.76 292.814C313.462 292.814 313.211 292.895 313.006 293.057C312.802 293.216 312.647 293.437 312.542 293.722C312.437 294.006 312.384 294.334 312.384 294.706C312.384 295.084 312.437 295.411 312.542 295.686C312.65 295.959 312.805 296.17 313.006 296.321C313.211 296.469 313.462 296.543 313.76 296.543ZM319.488 300.455C319.258 300.455 319.042 300.436 318.84 300.399C318.641 300.365 318.476 300.321 318.346 300.267L318.755 298.912C318.968 298.977 319.16 299.013 319.33 299.018C319.503 299.024 319.653 298.984 319.778 298.899C319.905 298.814 320.009 298.669 320.089 298.464L320.195 298.188L317.847 291.455H319.756L321.111 296.261H321.18L322.547 291.455H324.469L321.925 298.707C321.803 299.06 321.637 299.366 321.427 299.628C321.219 299.892 320.956 300.095 320.638 300.237C320.32 300.382 319.937 300.455 319.488 300.455ZM233.498 313.128C232.828 313.128 232.251 312.986 231.768 312.702C231.288 312.415 230.919 312.017 230.66 311.509C230.404 311 230.277 310.415 230.277 309.753C230.277 309.082 230.406 308.494 230.664 307.989C230.926 307.48 231.297 307.084 231.777 306.8C232.257 306.513 232.828 306.369 233.49 306.369C234.061 306.369 234.561 306.473 234.99 306.68C235.419 306.888 235.758 307.179 236.008 307.554C236.258 307.929 236.396 308.369 236.422 308.875H234.708C234.66 308.548 234.532 308.286 234.325 308.087C234.12 307.885 233.852 307.784 233.52 307.784C233.238 307.784 232.993 307.861 232.782 308.014C232.575 308.165 232.413 308.385 232.297 308.675C232.18 308.964 232.122 309.315 232.122 309.727C232.122 310.145 232.179 310.5 232.292 310.793C232.409 311.085 232.572 311.308 232.782 311.462C232.993 311.615 233.238 311.692 233.52 311.692C233.727 311.692 233.913 311.649 234.078 311.564C234.245 311.479 234.383 311.355 234.491 311.193C234.602 311.028 234.674 310.831 234.708 310.601H236.422C236.393 311.101 236.257 311.541 236.012 311.922C235.771 312.3 235.437 312.595 235.011 312.808C234.585 313.021 234.081 313.128 233.498 313.128ZM240.541 313.128C239.879 313.128 239.307 312.987 238.824 312.706C238.344 312.422 237.973 312.027 237.712 311.521C237.45 311.013 237.32 310.423 237.32 309.753C237.32 309.077 237.45 308.486 237.712 307.98C237.973 307.472 238.344 307.077 238.824 306.795C239.307 306.511 239.879 306.369 240.541 306.369C241.203 306.369 241.774 306.511 242.254 306.795C242.737 307.077 243.109 307.472 243.371 307.98C243.632 308.486 243.763 309.077 243.763 309.753C243.763 310.423 243.632 311.013 243.371 311.521C243.109 312.027 242.737 312.422 242.254 312.706C241.774 312.987 241.203 313.128 240.541 313.128ZM240.55 311.722C240.851 311.722 241.102 311.636 241.304 311.466C241.506 311.293 241.658 311.057 241.76 310.759C241.865 310.46 241.918 310.121 241.918 309.74C241.918 309.359 241.865 309.02 241.76 308.722C241.658 308.423 241.506 308.187 241.304 308.014C241.102 307.841 240.851 307.754 240.55 307.754C240.246 307.754 239.99 307.841 239.783 308.014C239.578 308.187 239.423 308.423 239.318 308.722C239.216 309.02 239.165 309.359 239.165 309.74C239.165 310.121 239.216 310.46 239.318 310.759C239.423 311.057 239.578 311.293 239.783 311.466C239.99 311.636 240.246 311.722 240.55 311.722ZM246.759 309.216V313H244.943V306.455H246.673V307.609H246.75C246.895 307.229 247.138 306.928 247.479 306.706C247.82 306.482 248.233 306.369 248.719 306.369C249.173 306.369 249.57 306.469 249.908 306.668C250.246 306.866 250.509 307.151 250.696 307.52C250.884 307.886 250.977 308.324 250.977 308.832V313H249.162V309.156C249.165 308.756 249.063 308.443 248.855 308.219C248.648 307.991 248.362 307.878 247.999 307.878C247.754 307.878 247.538 307.93 247.351 308.036C247.166 308.141 247.021 308.294 246.916 308.496C246.814 308.695 246.761 308.935 246.759 309.216ZM257.854 308.321L256.192 308.423C256.164 308.281 256.103 308.153 256.009 308.04C255.915 307.923 255.792 307.831 255.638 307.763C255.488 307.692 255.307 307.656 255.097 307.656C254.816 307.656 254.578 307.716 254.385 307.835C254.192 307.952 254.096 308.108 254.096 308.304C254.096 308.46 254.158 308.592 254.283 308.7C254.408 308.808 254.623 308.895 254.926 308.96L256.111 309.199C256.748 309.33 257.222 309.54 257.534 309.83C257.847 310.119 258.003 310.5 258.003 310.972C258.003 311.401 257.877 311.777 257.624 312.101C257.374 312.425 257.03 312.678 256.593 312.859C256.158 313.038 255.657 313.128 255.088 313.128C254.222 313.128 253.532 312.947 253.017 312.587C252.506 312.223 252.206 311.729 252.118 311.104L253.904 311.01C253.958 311.274 254.088 311.476 254.296 311.615C254.503 311.751 254.769 311.82 255.093 311.82C255.411 311.82 255.667 311.759 255.86 311.636C256.056 311.511 256.155 311.351 256.158 311.155C256.155 310.99 256.086 310.855 255.949 310.75C255.813 310.642 255.603 310.56 255.319 310.503L254.185 310.277C253.546 310.149 253.07 309.928 252.757 309.612C252.448 309.297 252.293 308.895 252.293 308.406C252.293 307.986 252.407 307.624 252.634 307.32C252.864 307.016 253.186 306.781 253.601 306.616C254.019 306.452 254.507 306.369 255.067 306.369C255.894 306.369 256.544 306.544 257.019 306.893C257.496 307.243 257.775 307.719 257.854 308.321ZM263.344 310.213V306.455H265.159V313H263.416V311.811H263.348C263.2 312.195 262.955 312.503 262.611 312.736C262.27 312.969 261.854 313.085 261.362 313.085C260.925 313.085 260.54 312.986 260.207 312.787C259.875 312.588 259.615 312.305 259.428 311.939C259.243 311.572 259.149 311.134 259.146 310.622V306.455H260.962V310.298C260.964 310.685 261.068 310.99 261.273 311.214C261.477 311.439 261.751 311.551 262.095 311.551C262.314 311.551 262.518 311.501 262.709 311.402C262.899 311.3 263.053 311.149 263.169 310.95C263.288 310.751 263.347 310.506 263.344 310.213ZM266.611 313V306.455H268.341V307.609H268.418C268.554 307.226 268.782 306.923 269.1 306.702C269.418 306.48 269.799 306.369 270.242 306.369C270.691 306.369 271.073 306.482 271.388 306.706C271.703 306.928 271.914 307.229 272.019 307.609H272.087C272.221 307.234 272.462 306.935 272.811 306.71C273.164 306.483 273.58 306.369 274.06 306.369C274.671 306.369 275.167 306.564 275.547 306.953C275.931 307.339 276.123 307.888 276.123 308.598V313H274.311V308.956C274.311 308.592 274.215 308.32 274.022 308.138C273.828 307.956 273.587 307.865 273.297 307.865C272.968 307.865 272.711 307.97 272.526 308.18C272.341 308.388 272.249 308.662 272.249 309.003V313H270.489V308.918C270.489 308.597 270.397 308.341 270.212 308.151C270.03 307.96 269.79 307.865 269.492 307.865C269.29 307.865 269.108 307.916 268.946 308.018C268.787 308.118 268.661 308.259 268.567 308.44C268.473 308.619 268.426 308.83 268.426 309.071V313H266.611ZM277.556 315.455V306.455H279.346V307.554H279.427C279.507 307.378 279.622 307.199 279.772 307.017C279.926 306.832 280.125 306.679 280.369 306.557C280.616 306.432 280.923 306.369 281.289 306.369C281.767 306.369 282.207 306.494 282.61 306.744C283.014 306.991 283.336 307.365 283.578 307.865C283.819 308.362 283.94 308.986 283.94 309.736C283.94 310.466 283.822 311.082 283.586 311.585C283.353 312.085 283.035 312.464 282.632 312.723C282.231 312.979 281.782 313.107 281.285 313.107C280.933 313.107 280.633 313.048 280.386 312.932C280.142 312.815 279.941 312.669 279.785 312.493C279.629 312.314 279.51 312.134 279.427 311.952H279.372V315.455H277.556ZM279.333 309.727C279.333 310.116 279.387 310.456 279.495 310.746C279.603 311.036 279.76 311.261 279.964 311.423C280.169 311.582 280.417 311.662 280.71 311.662C281.005 311.662 281.255 311.581 281.46 311.419C281.664 311.254 281.819 311.027 281.924 310.737C282.032 310.445 282.086 310.108 282.086 309.727C282.086 309.349 282.034 309.017 281.929 308.73C281.824 308.443 281.669 308.219 281.464 308.057C281.26 307.895 281.008 307.814 280.71 307.814C280.414 307.814 280.164 307.892 279.96 308.048C279.758 308.205 279.603 308.426 279.495 308.713C279.387 309 279.333 309.338 279.333 309.727ZM288.632 306.455V307.818H284.69V306.455H288.632ZM285.585 304.886H287.4V310.989C287.4 311.156 287.426 311.287 287.477 311.381C287.528 311.472 287.599 311.536 287.69 311.572C287.784 311.609 287.892 311.628 288.014 311.628C288.099 311.628 288.184 311.621 288.27 311.607C288.355 311.589 288.42 311.577 288.466 311.568L288.751 312.919C288.66 312.947 288.532 312.98 288.368 313.017C288.203 313.057 288.002 313.081 287.767 313.089C287.329 313.107 286.946 313.048 286.616 312.915C286.289 312.781 286.035 312.574 285.853 312.293C285.672 312.011 285.582 311.656 285.585 311.227V304.886ZM289.814 313V306.455H291.63V313H289.814ZM290.726 305.611C290.456 305.611 290.225 305.521 290.032 305.342C289.841 305.161 289.746 304.943 289.746 304.69C289.746 304.44 289.841 304.226 290.032 304.047C290.225 303.865 290.456 303.774 290.726 303.774C290.996 303.774 291.226 303.865 291.417 304.047C291.61 304.226 291.706 304.44 291.706 304.69C291.706 304.943 291.61 305.161 291.417 305.342C291.226 305.521 290.996 305.611 290.726 305.611ZM296.041 313.128C295.379 313.128 294.807 312.987 294.324 312.706C293.844 312.422 293.473 312.027 293.212 311.521C292.95 311.013 292.82 310.423 292.82 309.753C292.82 309.077 292.95 308.486 293.212 307.98C293.473 307.472 293.844 307.077 294.324 306.795C294.807 306.511 295.379 306.369 296.041 306.369C296.703 306.369 297.274 306.511 297.754 306.795C298.237 307.077 298.609 307.472 298.871 307.98C299.132 308.486 299.263 309.077 299.263 309.753C299.263 310.423 299.132 311.013 298.871 311.521C298.609 312.027 298.237 312.422 297.754 312.706C297.274 312.987 296.703 313.128 296.041 313.128ZM296.05 311.722C296.351 311.722 296.602 311.636 296.804 311.466C297.006 311.293 297.158 311.057 297.26 310.759C297.365 310.46 297.418 310.121 297.418 309.74C297.418 309.359 297.365 309.02 297.26 308.722C297.158 308.423 297.006 308.187 296.804 308.014C296.602 307.841 296.351 307.754 296.05 307.754C295.746 307.754 295.49 307.841 295.283 308.014C295.078 308.187 294.923 308.423 294.818 308.722C294.716 309.02 294.665 309.359 294.665 309.74C294.665 310.121 294.716 310.46 294.818 310.759C294.923 311.057 295.078 311.293 295.283 311.466C295.49 311.636 295.746 311.722 296.05 311.722ZM302.259 309.216V313H300.443V306.455H302.173V307.609H302.25C302.395 307.229 302.638 306.928 302.979 306.706C303.32 306.482 303.733 306.369 304.219 306.369C304.673 306.369 305.07 306.469 305.408 306.668C305.746 306.866 306.009 307.151 306.196 307.52C306.384 307.886 306.477 308.324 306.477 308.832V313H304.662V309.156C304.665 308.756 304.563 308.443 304.355 308.219C304.148 307.991 303.862 307.878 303.499 307.878C303.254 307.878 303.038 307.93 302.851 308.036C302.666 308.141 302.521 308.294 302.416 308.496C302.314 308.695 302.261 308.935 302.259 309.216Z" fill="#043266"/>
<g filter="url(#filter2_d_997_1609)">
<circle cx="268.504" cy="340.06" r="15" fill="white"/>
</g>
<path d="M272.701 331.838L267.638 337.031L274.129 339.194L267.335 345.555L269.542 346.766L263.311 348.281L264.48 341.877L265.734 344.084L269.802 340.06L263.311 337.896L268.936 331.838H272.701Z" fill="#1CDF8C"/>
<defs>
<filter id="filter0_d_997_1609" x="229.814" y="124.201" width="39.4293" height="39.4293" filterUnits="userSpaceOnUse" color-interpolation-filters="sRGB">
<feFlood flood-opacity="0" result="BackgroundImageFix"/>
<feColorMatrix in="SourceAlpha" type="matrix" values="0 0 0 0 0 0 0 0 0 0 0 0 0 0 0 0 0 0 127 0" result="hardAlpha"/>
<feMorphology radius="0.471464" operator="dilate" in="SourceAlpha" result="effect1_dropShadow_997_1609"/>
<feOffset dx="-0.471464" dy="1.88586"/>
<feGaussianBlur stdDeviation="2.12159"/>
<feComposite in2="hardAlpha" operator="out"/>
<feColorMatrix type="matrix" values="0 0 0 0 0 0 0 0 0 0 0 0 0 0 0 0 0 0 0.1 0"/>
<feBlend mode="normal" in2="BackgroundImageFix" result="effect1_dropShadow_997_1609"/>
<feBlend mode="normal" in="SourceGraphic" in2="effect1_dropShadow_997_1609" result="shape"/>
</filter>
<filter id="filter1_d_997_1609" x="39.8139" y="186.231" width="39.4293" height="39.4293" filterUnits="userSpaceOnUse" color-interpolation-filters="sRGB">
<feFlood flood-opacity="0" result="BackgroundImageFix"/>
<feColorMatrix in="SourceAlpha" type="matrix" values="0 0 0 0 0 0 0 0 0 0 0 0 0 0 0 0 0 0 127 0" result="hardAlpha"/>
<feMorphology radius="0.471464" operator="dilate" in="SourceAlpha" result="effect1_dropShadow_997_1609"/>
<feOffset dx="-0.471464" dy="1.88586"/>
<feGaussianBlur stdDeviation="2.12159"/>
<feComposite in2="hardAlpha" operator="out"/>
<feColorMatrix type="matrix" values="0 0 0 0 0 0 0 0 0 0 0 0 0 0 0 0 0 0 0.1 0"/>
<feBlend mode="normal" in2="BackgroundImageFix" result="effect1_dropShadow_997_1609"/>
<feBlend mode="normal" in="SourceGraphic" in2="effect1_dropShadow_997_1609" result="shape"/>
</filter>
<filter id="filter2_d_997_1609" x="248.318" y="322.231" width="39.4293" height="39.4293" filterUnits="userSpaceOnUse" color-interpolation-filters="sRGB">
<feFlood flood-opacity="0" result="BackgroundImageFix"/>
<feColorMatrix in="SourceAlpha" type="matrix" values="0 0 0 0 0 0 0 0 0 0 0 0 0 0 0 0 0 0 127 0" result="hardAlpha"/>
<feMorphology radius="0.471464" operator="dilate" in="SourceAlpha" result="effect1_dropShadow_997_1609"/>
<feOffset dx="-0.471464" dy="1.88586"/>
<feGaussianBlur stdDeviation="2.12159"/>
<feComposite in2="hardAlpha" operator="out"/>
<feColorMatrix type="matrix" values="0 0 0 0 0 0 0 0 0 0 0 0 0 0 0 0 0 0 0.1 0"/>
<feBlend mode="normal" in2="BackgroundImageFix" result="effect1_dropShadow_997_1609"/>
<feBlend mode="normal" in="SourceGraphic" in2="effect1_dropShadow_997_1609" result="shape"/>
</filter>
</defs>
</svg>
