<svg width="92" height="92" viewBox="0 0 92 92" fill="none" xmlns="http://www.w3.org/2000/svg">
<circle cx="46" cy="46" r="46" fill="#C4C4C4"/>
<circle cx="46" cy="46" r="46" fill="url(#paint0_linear_969_1655)"/>
<path d="M70.8776 34.0364C70.7877 34.3574 70.6914 34.6784 70.5951 34.993C70.5904 35.0179 70.5818 35.0417 70.5694 35.0637C70.563 35.0894 70.5565 35.115 70.5501 35.1343C70.5373 35.1701 70.5266 35.2065 70.518 35.2435C70.4666 35.404 70.4153 35.5581 70.3639 35.7057C70.3254 35.8213 70.2869 35.9369 70.2483 36.046C70.2309 36.1094 70.2094 36.1715 70.1841 36.2322C70.1752 36.274 70.1623 36.3149 70.1457 36.3542V36.3606C70.1457 36.3671 70.1392 36.3735 70.1328 36.3863C70.1252 36.4008 70.1188 36.4159 70.1135 36.4313C70.1071 36.4441 70.1007 36.4634 70.0942 36.4762C70.0236 36.6752 69.953 36.8807 69.8759 37.0797C69.7989 37.2788 69.7219 37.4907 69.6384 37.6897C69.4971 38.0557 69.343 38.4216 69.1889 38.7812C69.1183 38.9545 69.0413 39.1279 68.9578 39.2948C68.8872 39.4682 68.8101 39.6416 68.7267 39.8085C68.7138 39.8342 68.701 39.8663 68.6881 39.892C68.5084 40.2836 68.3157 40.6688 68.1167 41.0477C68.0906 41.1095 68.0607 41.1695 68.0268 41.2274C67.8149 41.6384 67.5966 42.0364 67.3655 42.4345C67.3592 42.4611 67.3459 42.4855 67.327 42.5051C67.2178 42.7106 67.0959 42.9096 66.9803 43.1022C66.8262 43.3655 66.6721 43.6223 66.5051 43.8791C66.4666 43.9433 66.4281 44.0075 66.3831 44.0718C66.2484 44.2901 66.1006 44.5148 65.953 44.7331C65.664 45.1697 65.3688 45.5999 65.0541 46.0236C65.0391 46.0522 65.0196 46.0783 64.9963 46.1007C64.9492 46.1743 64.8977 46.2451 64.8422 46.3125C64.8358 46.3254 64.8229 46.3382 64.8165 46.3511C64.7716 46.4153 64.7202 46.4795 64.6753 46.5373C64.6303 46.595 64.5918 46.6528 64.5469 46.7106C64.5405 46.7235 64.5276 46.7363 64.5212 46.7491C64.4827 46.8005 64.4441 46.8454 64.3992 46.8968C64.3093 47.0188 64.2194 47.1344 64.1231 47.2499C64.0732 47.3211 64.0196 47.3898 63.9626 47.4554C63.9241 47.5068 63.8855 47.5581 63.8406 47.6095C63.7957 47.6609 63.7507 47.7186 63.7058 47.77C63.6737 47.815 63.6351 47.8599 63.603 47.8984L63.5902 47.9113C63.526 47.9883 63.4682 48.0654 63.4041 48.136C63.2627 48.3029 63.1215 48.4699 62.9738 48.6368C62.9417 48.6753 62.916 48.7074 62.8839 48.7395C62.858 48.7732 62.8301 48.8053 62.8005 48.8358C62.6464 49.0156 62.4859 49.189 62.3189 49.3687C62.2804 49.4137 62.2419 49.4586 62.1969 49.5036C62.152 49.5485 62.107 49.5999 62.0621 49.6448C61.9722 49.7411 61.8823 49.8374 61.786 49.9337C61.7445 49.984 61.6995 50.0312 61.6512 50.075C61.4329 50.3061 61.2017 50.5373 60.9642 50.7684C60.8614 50.8712 60.7523 50.9803 60.6367 51.0895C60.0396 51.6673 59.4232 52.2195 58.7812 52.7588C58.7636 52.7758 58.7442 52.7908 58.7234 52.8038C58.6207 52.8936 58.5115 52.9835 58.4024 53.0734C58.3125 53.1505 58.2162 53.2275 58.1199 53.3046C58.0942 53.3238 58.0685 53.3431 58.0492 53.3559C57.8887 53.4908 57.7218 53.6192 57.5613 53.7412C57.3237 53.9274 57.0861 54.1071 56.8486 54.2805C56.7844 54.3319 56.7138 54.3768 56.6495 54.4217C56.6255 54.4431 56.5997 54.4624 56.5725 54.4795C56.5604 54.4937 56.545 54.5048 56.5276 54.5116C56.4762 54.5502 56.4248 54.5887 56.3735 54.6208C56.2129 54.7363 56.0588 54.8455 55.8983 54.9546C55.8265 55.0104 55.7515 55.0618 55.6736 55.1087C55.4811 55.2372 55.2948 55.3656 55.1022 55.4876C55.0188 55.5453 54.9417 55.5967 54.8582 55.6481C54.7747 55.6994 54.6913 55.7572 54.6078 55.8086C54.4922 55.8792 54.3767 55.9563 54.2611 56.0205C54.1966 56.0693 54.1278 56.1122 54.0556 56.1489L53.9593 56.2067C53.9208 56.2323 53.8759 56.258 53.8373 56.2837C53.3173 56.5919 52.7908 56.8872 52.2579 57.1762C52.0396 57.2917 51.8148 57.4073 51.5901 57.5229C51.5508 57.5468 51.5101 57.5682 51.4681 57.5871C51.4617 57.5871 51.4617 57.5935 51.4553 57.5935C51.526 57.3238 51.5901 57.0478 51.6543 56.7717C51.7057 56.5534 51.7571 56.3351 51.802 56.1168C51.9112 55.6352 52.001 55.1473 52.0845 54.6529V54.6336C52.0869 54.6311 52.0888 54.628 52.0899 54.6248C52.091 54.6214 52.0914 54.6179 52.0909 54.6144C52.1038 54.5502 52.1166 54.4795 52.123 54.4153C52.1423 54.3062 52.1616 54.2034 52.1744 54.0943C52.2322 53.7476 52.2836 53.3944 52.3286 53.0413C52.3286 53.0221 52.3349 53.0028 52.3349 52.9835C52.3734 52.6753 52.412 52.3672 52.4441 52.059C52.4505 52.0204 52.4505 51.9755 52.4569 51.937L52.4762 51.6866C52.5083 51.3399 52.5339 50.9867 52.5596 50.64V50.6079C52.5853 50.2098 52.6046 49.8053 52.6174 49.4073C52.6303 49.0092 52.6367 48.5983 52.6367 48.1938C52.6367 47.8599 52.6303 47.5325 52.6238 47.205C52.6174 47.0573 52.6174 46.9161 52.6046 46.7684C52.5982 46.5052 52.5853 46.2419 52.5725 45.9787C52.5596 45.831 52.5532 45.6769 52.5404 45.5292C52.5339 45.4329 52.5275 45.343 52.5211 45.2467C52.5083 45.0669 52.4954 44.8936 52.4762 44.7202L52.4569 44.5276C52.4505 44.4185 52.4376 44.3029 52.4248 44.1873C52.4216 44.1292 52.4152 44.0714 52.4055 44.014C52.3863 43.7828 52.3542 43.5453 52.3221 43.3141C52.2835 42.9995 52.2386 42.6785 52.1872 42.3639C52.1551 42.1392 52.1166 41.9209 52.0781 41.6961C52.046 41.4971 52.0139 41.3045 51.9754 41.1054C51.9368 40.9064 51.8919 40.6945 51.847 40.4891V40.4762C51.8213 40.3542 51.7956 40.2258 51.7699 40.1038C51.7635 40.0717 51.7571 40.046 51.7506 40.0139C51.725 39.8984 51.6993 39.7764 51.6672 39.6608C51.6617 39.6217 51.6531 39.5831 51.6415 39.5452C51.5901 39.3334 51.5452 39.1279 51.4938 38.9224C51.481 38.8775 51.4746 38.839 51.4617 38.8005C51.4103 38.6014 51.359 38.4024 51.3012 38.1969C51.2755 38.107 51.2498 38.0107 51.2241 37.9144L51.1278 37.587C51.1022 37.4907 51.0765 37.3943 51.0444 37.3045C51.0389 37.2737 51.0302 37.2437 51.0187 37.2146C50.9994 37.1504 50.9802 37.0926 50.9609 37.0284C50.9545 37.0155 50.9545 36.9963 50.9481 36.9834C50.8967 36.8165 50.8518 36.656 50.794 36.4955C50.7811 36.4569 50.7683 36.4248 50.7554 36.3863C50.7426 36.3478 50.7298 36.2964 50.7105 36.2451C50.6463 36.0332 50.5757 35.8213 50.4922 35.6158C50.4729 35.5452 50.4408 35.4746 50.4152 35.404C50.408 35.39 50.4036 35.3747 50.4024 35.359C50.3253 35.1343 50.2418 34.9096 50.1519 34.6913V34.6849C50.107 34.5629 50.062 34.4409 50.0107 34.3189C49.9721 34.2097 49.9272 34.0942 49.8758 33.985C49.7859 33.7539 49.6896 33.5292 49.5933 33.3044L49.5548 33.2081C49.4778 33.0283 49.3943 32.8422 49.3108 32.656L49.2723 32.5789C49.253 32.534 49.2338 32.4954 49.2145 32.4505C49.2081 32.4441 49.2081 32.4312 49.2017 32.4248C49.1182 32.2258 49.0219 32.0267 48.9256 31.8277C48.9158 31.8113 48.9072 31.7941 48.8999 31.7763C48.8742 31.725 48.8421 31.6672 48.8164 31.6094C48.5468 31.0508 48.2643 30.5051 47.9625 29.9657C47.8726 29.7988 47.7827 29.6319 47.6864 29.4713C47.6479 29.3943 47.6029 29.3173 47.558 29.2402C47.4745 29.099 47.3911 28.9641 47.3076 28.8229C47.2691 28.7522 47.2241 28.6816 47.1792 28.611C47.0058 28.3156 46.826 28.0267 46.6399 27.7378C46.4151 27.3911 46.1904 27.0572 45.9593 26.7169C45.8886 26.6206 45.818 26.5243 45.7475 26.4216C45.7132 26.3651 45.6746 26.3115 45.6318 26.2611C45.5035 26.0749 45.3686 25.8951 45.2337 25.7089C45.1824 25.6318 45.1246 25.5612 45.0668 25.4842L44.9512 25.3301C44.765 25.0861 44.5788 24.8421 44.3862 24.6045L44.1551 24.3156C44.078 24.2193 44.001 24.123 43.9175 24.0267C43.8662 23.9625 43.8148 23.9047 43.7634 23.8405C43.5837 23.6222 43.3975 23.4103 43.2048 23.1984C43.0058 22.9673 42.8003 22.7362 42.5885 22.5115C42.3894 22.2867 42.1775 22.0684 41.9592 21.8501C41.7538 21.6254 41.5355 21.4135 41.3172 21.2017C41.3108 21.1952 41.3108 21.1952 41.3108 21.1888L41.3043 21.1824C41.0925 20.9705 40.8742 20.7651 40.6494 20.5596C40.5339 20.444 40.4183 20.3413 40.3027 20.2321L42.5859 18.9101C43.6244 18.3138 44.801 18 45.9984 18C47.1959 18 48.3726 18.3138 49.411 18.9101L53.5394 21.2922C53.5468 21.2949 53.5534 21.2993 53.5587 21.305H53.5651L53.5715 21.3114L66.0724 28.5282L67.5877 29.4014C68.436 29.8933 69.1688 30.5617 69.7364 31.3613C70.3039 32.161 70.6932 33.0733 70.8776 34.0364Z" fill="url(#paint1_linear_969_1655)"/>
<path d="M70.8776 34.0364C70.7877 34.3574 70.6914 34.6784 70.5951 34.993C70.5904 35.0179 70.5818 35.0417 70.5694 35.0637C70.563 35.0894 70.5565 35.115 70.5501 35.1343C70.5373 35.1701 70.5266 35.2065 70.518 35.2435C70.4666 35.404 70.4153 35.5581 70.3639 35.7057C70.3254 35.8213 70.2869 35.9369 70.2483 36.046C70.2309 36.1094 70.2094 36.1715 70.1841 36.2322C70.1752 36.274 70.1623 36.3149 70.1457 36.3542V36.3606C70.1457 36.3671 70.1392 36.3735 70.1328 36.3863C70.1252 36.4008 70.1188 36.4159 70.1135 36.4313C70.1071 36.4441 70.1007 36.4634 70.0942 36.4762C70.0236 36.6752 69.953 36.8807 69.8759 37.0797C69.7989 37.2788 69.7219 37.4907 69.6384 37.6897C69.4971 38.0557 69.343 38.4216 69.1889 38.7812C69.1183 38.9545 69.0413 39.1279 68.9578 39.2948C68.8872 39.4682 68.8101 39.6416 68.7267 39.8085C68.7138 39.8342 68.701 39.8663 68.6881 39.892C68.5084 40.2836 68.3157 40.6688 68.1167 41.0477C68.0906 41.1095 68.0607 41.1695 68.0268 41.2274C67.8149 41.6384 67.5966 42.0364 67.3655 42.4345C67.3592 42.4611 67.3459 42.4855 67.327 42.5051C67.2178 42.7106 67.0959 42.9096 66.9803 43.1022C66.8262 43.3655 66.6721 43.6223 66.5051 43.8791C66.4666 43.9433 66.4281 44.0075 66.3831 44.0718C66.2484 44.2901 66.1006 44.5148 65.953 44.7331C65.664 45.1697 65.3688 45.5999 65.0541 46.0236C65.0391 46.0522 65.0196 46.0783 64.9963 46.1007C64.9492 46.1743 64.8977 46.2451 64.8422 46.3125C64.8358 46.3254 64.8229 46.3382 64.8165 46.3511C64.7716 46.4153 64.7202 46.4795 64.6753 46.5373C64.6303 46.595 64.5918 46.6528 64.5469 46.7106C64.5405 46.7235 64.5276 46.7363 64.5212 46.7491C64.4827 46.8005 64.4441 46.8454 64.3992 46.8968C64.3093 47.0188 64.2194 47.1344 64.1231 47.2499C64.0732 47.3211 64.0196 47.3898 63.9626 47.4554C63.9241 47.5068 63.8855 47.5581 63.8406 47.6095C63.7957 47.6609 63.7507 47.7186 63.7058 47.77C63.6737 47.815 63.6351 47.8599 63.603 47.8984L63.5902 47.9113C63.526 47.9883 63.4682 48.0654 63.4041 48.136C63.2627 48.3029 63.1215 48.4699 62.9738 48.6368C62.9417 48.6753 62.916 48.7074 62.8839 48.7395C62.858 48.7732 62.8301 48.8053 62.8005 48.8358C62.6464 49.0156 62.4859 49.189 62.3189 49.3687C62.2804 49.4137 62.2419 49.4586 62.1969 49.5036C62.152 49.5485 62.107 49.5999 62.0621 49.6448C61.9722 49.7411 61.8823 49.8374 61.786 49.9337C61.7445 49.984 61.6995 50.0312 61.6512 50.075C61.4329 50.3061 61.2017 50.5373 60.9642 50.7684C60.8614 50.8712 60.7523 50.9803 60.6367 51.0895C60.0396 51.6673 59.4232 52.2195 58.7812 52.7588C58.7636 52.7758 58.7442 52.7908 58.7234 52.8038C58.6207 52.8936 58.5115 52.9835 58.4024 53.0734C58.3125 53.1505 58.2162 53.2275 58.1199 53.3046C58.0942 53.3238 58.0685 53.3431 58.0492 53.3559C57.8887 53.4908 57.7218 53.6192 57.5613 53.7412C57.3237 53.9274 57.0861 54.1071 56.8486 54.2805C56.7844 54.3319 56.7138 54.3768 56.6495 54.4217C56.6255 54.4431 56.5997 54.4624 56.5725 54.4795C56.5604 54.4937 56.545 54.5048 56.5276 54.5116C56.4762 54.5502 56.4248 54.5887 56.3735 54.6208C56.2129 54.7363 56.0588 54.8455 55.8983 54.9546C55.8265 55.0104 55.7515 55.0618 55.6736 55.1087C55.4811 55.2372 55.2948 55.3656 55.1022 55.4876C55.0188 55.5453 54.9417 55.5967 54.8582 55.6481C54.7747 55.6994 54.6913 55.7572 54.6078 55.8086C54.4922 55.8792 54.3767 55.9563 54.2611 56.0205C54.1966 56.0693 54.1278 56.1122 54.0556 56.1489L53.9593 56.2067C53.9208 56.2323 53.8759 56.258 53.8373 56.2837C53.3173 56.5919 52.7908 56.8872 52.2579 57.1762C52.0396 57.2917 51.8148 57.4073 51.5901 57.5229C51.5508 57.5468 51.5101 57.5682 51.4681 57.5871C51.4617 57.5871 51.4617 57.5935 51.4553 57.5935C51.526 57.3238 51.5901 57.0478 51.6543 56.7717C51.7057 56.5534 51.7571 56.3351 51.802 56.1168C51.9112 55.6352 52.001 55.1473 52.0845 54.6529V54.6336C52.0869 54.6311 52.0888 54.628 52.0899 54.6248C52.091 54.6214 52.0914 54.6179 52.0909 54.6144C52.1038 54.5502 52.1166 54.4795 52.123 54.4153C52.1423 54.3062 52.1616 54.2034 52.1744 54.0943C52.2322 53.7476 52.2836 53.3944 52.3286 53.0413C52.3286 53.0221 52.3349 53.0028 52.3349 52.9835C52.3734 52.6753 52.412 52.3672 52.4441 52.059C52.4505 52.0204 52.4505 51.9755 52.4569 51.937L52.4762 51.6866C52.5083 51.3399 52.5339 50.9867 52.5596 50.64V50.6079C52.5853 50.2098 52.6046 49.8053 52.6174 49.4073C52.6303 49.0092 52.6367 48.5983 52.6367 48.1938C52.6367 47.8599 52.6303 47.5325 52.6238 47.205C52.6174 47.0573 52.6174 46.9161 52.6046 46.7684C52.5982 46.5052 52.5853 46.2419 52.5725 45.9787C52.5596 45.831 52.5532 45.6769 52.5404 45.5292C52.5339 45.4329 52.5275 45.343 52.5211 45.2467C52.5083 45.0669 52.4954 44.8936 52.4762 44.7202L52.4569 44.5276C52.4505 44.4185 52.4376 44.3029 52.4248 44.1873C52.4216 44.1292 52.4152 44.0714 52.4055 44.014C52.3863 43.7828 52.3542 43.5453 52.3221 43.3141C52.2835 42.9995 52.2386 42.6785 52.1872 42.3639C52.1551 42.1392 52.1166 41.9209 52.0781 41.6961C52.046 41.4971 52.0139 41.3045 51.9754 41.1054C51.9368 40.9064 51.8919 40.6945 51.847 40.4891V40.4762C51.8213 40.3542 51.7956 40.2258 51.7699 40.1038C51.7635 40.0717 51.7571 40.046 51.7506 40.0139C51.725 39.8984 51.6993 39.7764 51.6672 39.6608C51.6617 39.6217 51.6531 39.5831 51.6415 39.5452C51.5901 39.3334 51.5452 39.1279 51.4938 38.9224C51.481 38.8775 51.4746 38.839 51.4617 38.8005C51.4103 38.6014 51.359 38.4024 51.3012 38.1969C51.2755 38.107 51.2498 38.0107 51.2241 37.9144L51.1278 37.587C51.1022 37.4907 51.0765 37.3943 51.0444 37.3045C51.0389 37.2737 51.0302 37.2437 51.0187 37.2146C50.9994 37.1504 50.9802 37.0926 50.9609 37.0284C50.9545 37.0155 50.9545 36.9963 50.9481 36.9834C50.8967 36.8165 50.8518 36.656 50.794 36.4955C50.7811 36.4569 50.7683 36.4248 50.7554 36.3863C50.7426 36.3478 50.7298 36.2964 50.7105 36.2451C50.6463 36.0332 50.5757 35.8213 50.4922 35.6158C50.4729 35.5452 50.4408 35.4746 50.4152 35.404C50.408 35.39 50.4036 35.3747 50.4024 35.359C50.3253 35.1343 50.2418 34.9096 50.1519 34.6913V34.6849C50.107 34.5629 50.062 34.4409 50.0107 34.3189C49.9721 34.2097 49.9272 34.0942 49.8758 33.985C49.7859 33.7539 49.6896 33.5292 49.5933 33.3044L49.5548 33.2081C49.4778 33.0283 49.3943 32.8422 49.3108 32.656L49.2723 32.5789C49.253 32.534 49.2338 32.4954 49.2145 32.4505C49.2081 32.4441 49.2081 32.4312 49.2017 32.4248C49.1182 32.2258 49.0219 32.0267 48.9256 31.8277C48.9158 31.8113 48.9072 31.7941 48.8999 31.7763C48.8742 31.725 48.8421 31.6672 48.8164 31.6094C48.5468 31.0508 48.2643 30.5051 47.9625 29.9657C47.8726 29.7988 47.7827 29.6319 47.6864 29.4713C47.6479 29.3943 47.6029 29.3173 47.558 29.2402C47.4745 29.099 47.3911 28.9641 47.3076 28.8229C47.2691 28.7522 47.2241 28.6816 47.1792 28.611C47.0058 28.3156 46.826 28.0267 46.6399 27.7378C46.4151 27.3911 46.1904 27.0572 45.9593 26.7169C45.8886 26.6206 45.818 26.5243 45.7475 26.4216C45.7132 26.3651 45.6746 26.3115 45.6318 26.2611C45.5035 26.0749 45.3686 25.8951 45.2337 25.7089C45.1824 25.6318 45.1246 25.5612 45.0668 25.4842L44.9512 25.3301C44.765 25.0861 44.5788 24.8421 44.3862 24.6045L44.1551 24.3156C44.078 24.2193 44.001 24.123 43.9175 24.0267C43.8662 23.9625 43.8148 23.9047 43.7634 23.8405C43.5837 23.6222 43.3975 23.4103 43.2048 23.1984C43.0058 22.9673 42.8003 22.7362 42.5885 22.5115C42.3894 22.2867 42.1775 22.0684 41.9592 21.8501C41.7538 21.6254 41.5355 21.4135 41.3172 21.2017C41.3108 21.1952 41.3108 21.1952 41.3108 21.1888L41.3043 21.1824C41.0925 20.9705 40.8742 20.7651 40.6494 20.5596C40.5339 20.444 40.4183 20.3413 40.3027 20.2321L42.5859 18.9101C43.6244 18.3138 44.801 18 45.9984 18C47.1959 18 48.3726 18.3138 49.411 18.9101L53.5394 21.2922C53.5468 21.2949 53.5534 21.2993 53.5587 21.305H53.5651L53.5715 21.3114L66.0724 28.5282L67.5877 29.4014C68.436 29.8933 69.1688 30.5617 69.7364 31.3613C70.3039 32.161 70.6932 33.0733 70.8776 34.0364Z" fill="url(#paint2_linear_969_1655)"/>
<path d="M52.6368 48.1938C52.6368 48.5983 52.6304 49.0028 52.6175 49.4073C52.6047 49.8054 52.5854 50.2098 52.5597 50.6079V50.64C52.5341 50.9868 52.5084 51.3399 52.4763 51.6866L52.457 51.937C52.4506 51.9755 52.4506 52.0205 52.4442 52.059C52.4121 52.3672 52.3735 52.6754 52.335 52.9836C52.335 53.0028 52.3286 53.0221 52.3286 53.0413C52.2837 53.3945 52.2323 53.7476 52.1745 54.0943C52.1617 54.2035 52.1424 54.3062 52.1231 54.4153C52.1167 54.4795 52.1039 54.5502 52.091 54.6144C52.0914 54.6178 52.0911 54.6214 52.09 54.6247C52.0889 54.6281 52.0871 54.6311 52.0846 54.6336V54.6529C52.0012 55.1473 51.9113 55.6353 51.8021 56.1168C51.7572 56.3351 51.7058 56.5534 51.6544 56.7717C51.5902 57.0478 51.526 57.3239 51.4554 57.5935C46.176 60.2672 40.3394 61.6554 34.4216 61.6449C34.0749 61.6449 33.7346 61.6385 33.3879 61.6321C33.2723 61.6257 33.1503 61.6257 33.0283 61.6192H32.9705L32.2193 61.5807C32.0973 61.5743 31.9689 61.5679 31.8469 61.555C31.6993 61.5486 31.558 61.5357 31.4103 61.5229C31.1792 61.5101 30.9416 61.4844 30.7105 61.4651C30.6399 61.4587 30.5692 61.4523 30.4986 61.4395C30.428 61.4395 30.3574 61.4266 30.2803 61.4202C30.2033 61.4138 30.1134 61.4009 30.0363 61.3881C30.0169 61.3923 29.9966 61.3901 29.9785 61.3816C29.8309 61.3688 29.6832 61.3496 29.5355 61.3303L29.1246 61.2725C28.932 61.2533 28.7458 61.2212 28.5596 61.1891C28.3413 61.157 28.1294 61.1248 27.9175 61.0798C27.9111 61.082 27.9042 61.0825 27.8975 61.0814C27.8908 61.0803 27.8845 61.0775 27.879 61.0735C27.5901 61.0285 27.3076 60.9771 27.0315 60.9193C26.9987 60.9138 26.9664 60.9052 26.9352 60.8937C26.8934 60.892 26.8521 60.8833 26.8132 60.868C26.5114 60.8102 26.2097 60.746 25.9143 60.6818C25.8701 60.6681 25.8251 60.6574 25.7795 60.6497C25.6516 60.6244 25.5251 60.5923 25.4007 60.5534C25.131 60.4892 24.8613 60.4186 24.5981 60.348C24.2899 60.2709 23.9881 60.1874 23.6864 60.0975V60.0911C23.6763 60.0865 23.6653 60.0843 23.6543 60.0847H23.6453L23.6389 60.0782H23.6324C23.6224 60.0736 23.6114 60.0714 23.6003 60.0719L23.5939 60.0655C22.984 59.8857 22.3868 59.6931 21.7897 59.4812C21.272 58.4994 21.0009 57.4064 21 56.2966V35.3205C21.0003 34.1209 21.316 32.9425 21.9156 31.9034C22.5151 30.8644 23.3773 30.0013 24.4157 29.4007L40.3003 20.2321C40.4159 20.3413 40.5314 20.444 40.647 20.5596C40.8717 20.765 41.09 20.9705 41.3019 21.1824L41.3083 21.1888C41.3083 21.1952 41.3083 21.1952 41.3147 21.2016C41.533 21.4135 41.7449 21.6318 41.9568 21.8501C42.1687 22.0684 42.3806 22.2867 42.586 22.5114C42.7915 22.7362 43.0033 22.9673 43.2024 23.1984C43.395 23.4103 43.5812 23.6222 43.761 23.8405C43.8123 23.9047 43.8637 23.9625 43.9151 24.0267C43.9985 24.123 44.0756 24.2193 44.1526 24.3156L44.3838 24.6045C44.5764 24.8421 44.7626 25.0861 44.9488 25.3301L45.0644 25.4842C45.1221 25.5612 45.1799 25.6318 45.2313 25.7088C45.3661 25.895 45.501 26.0749 45.6294 26.2611C45.6721 26.3114 45.7107 26.3651 45.7449 26.4216C45.8156 26.5179 45.8862 26.6142 45.9568 26.7169C46.188 27.0572 46.4127 27.3911 46.6374 27.7378C46.8172 28.0267 47.0034 28.3157 47.1767 28.611C47.2217 28.6816 47.2666 28.7523 47.3051 28.8229C47.3758 28.932 47.44 29.0476 47.5042 29.1632C47.5234 29.1889 47.5363 29.2145 47.5555 29.2402C47.6005 29.3172 47.6454 29.3943 47.684 29.4714C47.7803 29.6319 47.8702 29.7988 47.96 29.9658C48.2618 30.5051 48.5443 31.0508 48.814 31.6094C48.8397 31.6672 48.8718 31.725 48.8974 31.7764C48.9047 31.7941 48.9133 31.8112 48.9231 31.8277C49.0194 32.0203 49.1093 32.2258 49.1992 32.4248C49.2056 32.4313 49.2056 32.444 49.2121 32.4505C49.2313 32.4954 49.2506 32.534 49.2698 32.5789C49.3661 32.7908 49.456 32.9963 49.5523 33.2082L49.5909 33.3045C49.6872 33.5292 49.7835 33.7539 49.8734 33.985C49.9183 34.0942 49.9633 34.2098 50.0082 34.3189C50.0532 34.4409 50.1045 34.5629 50.1495 34.6849V34.6913C50.2393 34.916 50.3164 35.1343 50.3999 35.359C50.4011 35.3747 50.4055 35.39 50.4127 35.404C50.4384 35.4746 50.4705 35.5452 50.4898 35.6159C50.5732 35.8213 50.6438 36.0332 50.7081 36.2451C50.7273 36.2965 50.7402 36.3414 50.753 36.3863C50.7658 36.4313 50.7787 36.457 50.7915 36.4955C50.8493 36.656 50.8942 36.8165 50.9456 36.9834C50.952 36.9962 50.952 37.0156 50.9585 37.0284C50.9777 37.0926 50.997 37.1504 51.0162 37.2146C51.0277 37.2436 51.0363 37.2737 51.0419 37.3044C51.074 37.3943 51.0997 37.4906 51.1254 37.5869L51.2217 37.9144C51.2474 38.0107 51.2731 38.1071 51.2987 38.1969C51.3565 38.4024 51.4079 38.6014 51.4593 38.8005C51.4721 38.839 51.4785 38.8775 51.4914 38.9225C51.5427 39.1279 51.5877 39.3334 51.639 39.5453C51.6507 39.583 51.6592 39.6217 51.6647 39.6608C51.6968 39.7764 51.7225 39.8983 51.7482 40.0139C51.7482 40.0267 51.7546 40.0397 51.7546 40.0589C51.7597 40.0736 51.764 40.0886 51.7674 40.1039C51.7931 40.2259 51.8188 40.3542 51.8445 40.4762V40.4891C51.8894 40.6946 51.9344 40.9 51.9729 41.1055C52.0114 41.3109 52.0435 41.4971 52.0756 41.6962C52.1142 41.9209 52.1527 42.1392 52.1848 42.3639C52.2362 42.6785 52.2811 42.9995 52.3196 43.3142C52.3517 43.5453 52.3838 43.7829 52.4031 44.014C52.4127 44.0713 52.4191 44.1292 52.4223 44.1873C52.4352 44.3029 52.448 44.412 52.4544 44.5276L52.4737 44.7203C52.493 44.8936 52.5058 45.067 52.5187 45.2467C52.5251 45.3431 52.5315 45.4329 52.5379 45.5293C52.5508 45.6769 52.5572 45.831 52.57 45.9787C52.5829 46.2419 52.5957 46.5052 52.6021 46.7684C52.615 46.9097 52.615 47.0574 52.6214 47.205C52.6304 47.5325 52.6368 47.8599 52.6368 48.1938Z" fill="url(#paint3_linear_969_1655)"/>
<path d="M52.6368 48.1938C52.6368 48.5983 52.6304 49.0028 52.6175 49.4073C52.6047 49.8054 52.5854 50.2098 52.5597 50.6079V50.64C52.5341 50.9868 52.5084 51.3399 52.4763 51.6866L52.457 51.937C52.4506 51.9755 52.4506 52.0205 52.4442 52.059C52.4121 52.3672 52.3735 52.6754 52.335 52.9836C52.335 53.0028 52.3286 53.0221 52.3286 53.0413C52.2837 53.3945 52.2323 53.7476 52.1745 54.0943C52.1617 54.2035 52.1424 54.3062 52.1231 54.4153C52.1167 54.4795 52.1039 54.5502 52.091 54.6144C52.0914 54.6178 52.0911 54.6214 52.09 54.6247C52.0889 54.6281 52.0871 54.6311 52.0846 54.6336V54.6529C52.0012 55.1473 51.9113 55.6353 51.8021 56.1168C51.7572 56.3351 51.7058 56.5534 51.6544 56.7717C51.5902 57.0478 51.526 57.3239 51.4554 57.5935C46.176 60.2672 40.3394 61.6554 34.4216 61.6449C34.0749 61.6449 33.7346 61.6385 33.3879 61.6321C33.2723 61.6257 33.1503 61.6257 33.0283 61.6192H32.9705L32.2193 61.5807C32.0973 61.5743 31.9689 61.5679 31.8469 61.555C31.6993 61.5486 31.558 61.5357 31.4103 61.5229C31.1792 61.5101 30.9416 61.4844 30.7105 61.4651C30.6399 61.4587 30.5692 61.4523 30.4986 61.4395C30.428 61.4395 30.3574 61.4266 30.2803 61.4202C30.2033 61.4138 30.1134 61.4009 30.0363 61.3881C30.0169 61.3923 29.9966 61.3901 29.9785 61.3816C29.8309 61.3688 29.6832 61.3496 29.5355 61.3303L29.1246 61.2725C28.932 61.2533 28.7458 61.2212 28.5596 61.1891C28.3413 61.157 28.1294 61.1248 27.9175 61.0798C27.9111 61.082 27.9042 61.0825 27.8975 61.0814C27.8908 61.0803 27.8845 61.0775 27.879 61.0735C27.5901 61.0285 27.3076 60.9771 27.0315 60.9193C26.9987 60.9138 26.9664 60.9052 26.9352 60.8937C26.8934 60.892 26.8521 60.8833 26.8132 60.868C26.5114 60.8102 26.2097 60.746 25.9143 60.6818C25.8701 60.6681 25.8251 60.6574 25.7795 60.6497C25.6516 60.6244 25.5251 60.5923 25.4007 60.5534C25.131 60.4892 24.8613 60.4186 24.5981 60.348C24.2899 60.2709 23.9881 60.1874 23.6864 60.0975V60.0911C23.6763 60.0865 23.6653 60.0843 23.6543 60.0847H23.6453L23.6389 60.0782H23.6324C23.6224 60.0736 23.6114 60.0714 23.6003 60.0719L23.5939 60.0655C22.984 59.8857 22.3868 59.6931 21.7897 59.4812C21.272 58.4994 21.0009 57.4064 21 56.2966V35.3205C21.0003 34.1209 21.316 32.9425 21.9156 31.9034C22.5151 30.8644 23.3773 30.0013 24.4157 29.4007L40.3003 20.2321C40.4159 20.3413 40.5314 20.444 40.647 20.5596C40.8717 20.765 41.09 20.9705 41.3019 21.1824L41.3083 21.1888C41.3083 21.1952 41.3083 21.1952 41.3147 21.2016C41.533 21.4135 41.7449 21.6318 41.9568 21.8501C42.1687 22.0684 42.3806 22.2867 42.586 22.5114C42.7915 22.7362 43.0033 22.9673 43.2024 23.1984C43.395 23.4103 43.5812 23.6222 43.761 23.8405C43.8123 23.9047 43.8637 23.9625 43.9151 24.0267C43.9985 24.123 44.0756 24.2193 44.1526 24.3156L44.3838 24.6045C44.5764 24.8421 44.7626 25.0861 44.9488 25.3301L45.0644 25.4842C45.1221 25.5612 45.1799 25.6318 45.2313 25.7088C45.3661 25.895 45.501 26.0749 45.6294 26.2611C45.6721 26.3114 45.7107 26.3651 45.7449 26.4216C45.8156 26.5179 45.8862 26.6142 45.9568 26.7169C46.188 27.0572 46.4127 27.3911 46.6374 27.7378C46.8172 28.0267 47.0034 28.3157 47.1767 28.611C47.2217 28.6816 47.2666 28.7523 47.3051 28.8229C47.3758 28.932 47.44 29.0476 47.5042 29.1632C47.5234 29.1889 47.5363 29.2145 47.5555 29.2402C47.6005 29.3172 47.6454 29.3943 47.684 29.4714C47.7803 29.6319 47.8702 29.7988 47.96 29.9658C48.2618 30.5051 48.5443 31.0508 48.814 31.6094C48.8397 31.6672 48.8718 31.725 48.8974 31.7764C48.9047 31.7941 48.9133 31.8112 48.9231 31.8277C49.0194 32.0203 49.1093 32.2258 49.1992 32.4248C49.2056 32.4313 49.2056 32.444 49.2121 32.4505C49.2313 32.4954 49.2506 32.534 49.2698 32.5789C49.3661 32.7908 49.456 32.9963 49.5523 33.2082L49.5909 33.3045C49.6872 33.5292 49.7835 33.7539 49.8734 33.985C49.9183 34.0942 49.9633 34.2098 50.0082 34.3189C50.0532 34.4409 50.1045 34.5629 50.1495 34.6849V34.6913C50.2393 34.916 50.3164 35.1343 50.3999 35.359C50.4011 35.3747 50.4055 35.39 50.4127 35.404C50.4384 35.4746 50.4705 35.5452 50.4898 35.6159C50.5732 35.8213 50.6438 36.0332 50.7081 36.2451C50.7273 36.2965 50.7402 36.3414 50.753 36.3863C50.7658 36.4313 50.7787 36.457 50.7915 36.4955C50.8493 36.656 50.8942 36.8165 50.9456 36.9834C50.952 36.9962 50.952 37.0156 50.9585 37.0284C50.9777 37.0926 50.997 37.1504 51.0162 37.2146C51.0277 37.2436 51.0363 37.2737 51.0419 37.3044C51.074 37.3943 51.0997 37.4906 51.1254 37.5869L51.2217 37.9144C51.2474 38.0107 51.2731 38.1071 51.2987 38.1969C51.3565 38.4024 51.4079 38.6014 51.4593 38.8005C51.4721 38.839 51.4785 38.8775 51.4914 38.9225C51.5427 39.1279 51.5877 39.3334 51.639 39.5453C51.6507 39.583 51.6592 39.6217 51.6647 39.6608C51.6968 39.7764 51.7225 39.8983 51.7482 40.0139C51.7482 40.0267 51.7546 40.0397 51.7546 40.0589C51.7597 40.0736 51.764 40.0886 51.7674 40.1039C51.7931 40.2259 51.8188 40.3542 51.8445 40.4762V40.4891C51.8894 40.6946 51.9344 40.9 51.9729 41.1055C52.0114 41.3109 52.0435 41.4971 52.0756 41.6962C52.1142 41.9209 52.1527 42.1392 52.1848 42.3639C52.2362 42.6785 52.2811 42.9995 52.3196 43.3142C52.3517 43.5453 52.3838 43.7829 52.4031 44.014C52.4127 44.0713 52.4191 44.1292 52.4223 44.1873C52.4352 44.3029 52.448 44.412 52.4544 44.5276L52.4737 44.7203C52.493 44.8936 52.5058 45.067 52.5187 45.2467C52.5251 45.3431 52.5315 45.4329 52.5379 45.5293C52.5508 45.6769 52.5572 45.831 52.57 45.9787C52.5829 46.2419 52.5957 46.5052 52.6021 46.7684C52.615 46.9097 52.615 47.0574 52.6214 47.205C52.6304 47.5325 52.6368 47.8599 52.6368 48.1938Z" fill="url(#paint4_linear_969_1655)"/>
<path d="M71 35.3205V56.2965C71.0009 57.4956 70.6864 58.6738 70.088 59.7129C69.4896 60.752 68.6283 61.6154 67.5907 62.2163L49.414 72.7011C48.4959 73.2331 47.466 73.5426 46.4068 73.6051C45.3477 73.6675 44.2886 73.481 43.3144 73.0606C43.064 72.959 42.8215 72.8388 42.5889 72.7011L41.5102 72.0783H41.5038L24.4161 62.2163C23.3036 61.5662 22.3943 60.6191 21.79 59.4812C22.3872 59.693 22.9843 59.8856 23.5942 60.0654L23.6006 60.0718C23.6117 60.0714 23.6227 60.0736 23.6327 60.0782C23.6377 60.0787 23.6423 60.081 23.6456 60.0847H23.652C23.6631 60.0842 23.6741 60.0864 23.6841 60.0911V60.0975C23.9859 60.1874 24.2876 60.2709 24.5958 60.3479C24.8976 60.4378 25.1994 60.5148 25.5076 60.579C25.6424 60.6175 25.7772 60.6497 25.9121 60.6818C26.2523 60.7588 26.5862 60.8359 26.9329 60.8937C26.9642 60.9052 26.9964 60.9138 27.0292 60.9193C27.3182 60.9835 27.6135 61.0349 27.9153 61.0798C28.1785 61.1312 28.4482 61.1762 28.7179 61.2147C28.8206 61.234 28.9298 61.2468 29.0389 61.2597C29.3664 61.311 29.7002 61.356 30.0341 61.3881C30.1625 61.4073 30.2909 61.4202 30.4129 61.433C30.7789 61.4715 31.1513 61.5101 31.5173 61.5293C31.57 61.5399 31.6239 61.5442 31.6778 61.5421C32.1272 61.5806 32.5766 61.6064 33.0261 61.6192C33.4884 61.6385 33.9507 61.6449 34.4194 61.6449C40.3371 61.6554 46.1737 60.2672 51.4532 57.5935C51.4596 57.5935 51.4596 57.5871 51.466 57.5871C52.3521 57.1441 53.2145 56.6646 54.0535 56.1489C54.2397 56.0397 54.4259 55.9241 54.6057 55.8086C54.6891 55.7572 54.7726 55.7058 54.8561 55.6481C54.9395 55.5903 55.0166 55.5453 55.1001 55.4875C55.2927 55.3656 55.4789 55.2371 55.6715 55.1087C55.6857 55.1024 55.6987 55.0938 55.71 55.083C55.9347 54.9354 56.153 54.7812 56.3713 54.6207C56.4135 54.5952 56.4542 54.5673 56.4933 54.5373C56.5447 54.4988 56.5961 54.4667 56.6474 54.4217C56.9556 54.2034 57.2574 53.9787 57.5591 53.7411C57.7197 53.6192 57.8866 53.4907 58.0471 53.3559C58.1627 53.266 58.2847 53.1697 58.4002 53.0734C58.4837 53.0028 58.5672 52.9386 58.6506 52.8615C58.702 52.823 58.7534 52.7845 58.8047 52.7395C59.3184 52.3029 59.8128 51.8599 60.3007 51.4104C60.5255 51.1985 60.7502 50.9802 60.9621 50.7684C61.6298 50.1135 62.2697 49.4372 62.8818 48.7395C62.991 48.6175 63.0937 48.4955 63.1964 48.3735C63.3377 48.2194 63.4661 48.0589 63.6009 47.8984C63.678 47.802 63.7614 47.7058 63.8385 47.6095C63.8834 47.5581 63.9219 47.5068 63.9605 47.4554C64.0632 47.327 64.1659 47.1986 64.2622 47.0702C64.3585 46.9546 64.4484 46.8326 64.5447 46.7106C64.5833 46.6528 64.6282 46.595 64.6732 46.5373C64.7695 46.4153 64.8593 46.2933 64.9492 46.1649C65.2959 45.6962 65.6298 45.221 65.9508 44.7331C66.0985 44.5148 66.2398 44.2965 66.381 44.0718C66.5865 43.7507 66.7855 43.4296 66.9781 43.1022C67.1066 42.8903 67.235 42.6721 67.357 42.4538C67.8449 41.5934 68.3008 40.7116 68.7245 39.8085C68.8016 39.6415 68.8851 39.4682 68.9557 39.2948C69.1932 38.7812 69.4115 38.2675 69.617 37.7411L69.8867 37.0476C69.9573 36.855 70.0279 36.6688 70.0921 36.4762C70.0985 36.4634 70.105 36.4441 70.1114 36.4313C70.1166 36.4158 70.1231 36.4008 70.1306 36.3863C70.1371 36.3735 70.1435 36.367 70.1435 36.3606V36.3542C70.1644 36.302 70.1816 36.2483 70.1949 36.1937C70.2077 36.168 70.2141 36.1423 70.227 36.1102C70.2847 35.9497 70.3361 35.7892 70.3875 35.6223C70.4324 35.5003 70.4709 35.3719 70.5159 35.2434C70.5351 35.1857 70.5544 35.1215 70.5672 35.0637C70.5796 35.0416 70.5883 35.0178 70.5929 34.993C70.6892 34.6784 70.7855 34.3574 70.8754 34.0364C70.9591 34.4592 71.0008 34.8894 71 35.3205Z" fill="url(#paint5_linear_969_1655)"/>
<g style="mix-blend-mode:multiply" opacity="0.15">
<g style="mix-blend-mode:multiply" opacity="0.15">
<path d="M52.6363 48.1939C52.6413 51.3644 52.2443 54.5228 51.455 57.5936C43.1458 61.7828 33.5842 62.7634 24.5977 60.348C34.6715 61.035 60.3218 59.3142 40.3024 20.2322C44.1937 23.7758 47.3012 28.0938 49.4252 32.9092C51.5493 37.7246 52.6431 42.9308 52.6363 48.1939Z" fill="black"/>
</g>
</g>
<g style="mix-blend-mode:multiply" opacity="0.15">
<g style="mix-blend-mode:multiply" opacity="0.15">
<path d="M70.8782 34.0362C69.449 39.0913 66.986 43.7946 63.645 47.8485C60.304 51.9023 56.1578 55.2185 51.4688 57.5869C51.8989 57.2466 65.2088 46.6334 66.0756 28.5273L67.5908 29.4005C68.4387 29.8927 69.1711 30.5614 69.7382 31.3611C70.3053 32.1609 70.6941 33.0732 70.8782 34.0362Z" fill="black"/>
</g>
</g>
<g style="mix-blend-mode:multiply" opacity="0.25">
<g style="mix-blend-mode:multiply" opacity="0.25">
<path d="M70.1137 36.4314C66.8469 45.6167 60.1703 53.1923 51.4683 57.5872C51.4649 57.5909 51.4604 57.5932 51.4554 57.5936C43.1462 61.7829 33.5847 62.7635 24.5981 60.3481C24.2899 60.2646 23.9882 60.1811 23.6864 60.0977C23.6736 60.0913 23.6607 60.0912 23.6543 60.0848C23.6654 60.0844 23.6764 60.0866 23.6864 60.0912C23.9496 60.149 24.7586 60.3417 26.0171 60.5728C28.1465 60.9657 30.3047 61.1825 32.4698 61.2213C33.1375 61.2405 33.8374 61.2341 34.55 61.2149C35.282 61.1892 36.0268 61.1506 36.7844 61.0929C38.3778 60.9516 39.962 60.7201 41.5292 60.3994C43.204 60.0527 44.8535 59.5937 46.4666 59.0254C48.1271 58.4489 49.7449 57.756 51.3078 56.9516C51.4233 56.8938 51.5389 56.8296 51.6545 56.7718C53.1031 56.0102 54.5052 55.1633 55.8535 54.2357C57.25 53.2481 58.5897 52.1828 59.8664 51.0446C61.0447 49.963 62.1614 48.8162 63.2115 47.6096C64.2196 46.4539 65.0863 45.2982 65.8632 44.2067C66.6144 43.096 67.2693 42.0558 67.8215 41.112C68.0783 40.6305 68.3287 40.181 68.5535 39.7701C68.7718 39.3463 68.9515 38.9547 69.1249 38.6016C69.478 37.8953 69.7092 37.3239 69.8889 36.9386C69.9917 36.7011 70.0661 36.5277 70.1137 36.4314Z" fill="black"/>
</g>
</g>
<g style="mix-blend-mode:multiply" opacity="0.25">
<g style="mix-blend-mode:multiply" opacity="0.25">
<path d="M52.1925 53.1121C52.2502 52.1105 52.3016 50.6851 52.2631 48.9836C52.2438 48.1361 52.1539 47.2244 52.109 46.2292C51.9998 45.2725 51.9035 44.2645 51.7302 43.218C51.6596 42.6915 51.5697 42.165 51.4541 41.6321C51.3385 41.0992 51.2422 40.5598 51.1074 40.0205C50.8634 38.9354 50.5488 37.8567 50.2085 36.7845L49.6692 35.1858C49.4637 34.6657 49.2583 34.1456 49.0592 33.632C48.8345 33.1247 48.6162 32.6176 48.3979 32.1232C48.1796 31.6288 47.9228 31.1537 47.6981 30.6721C47.4733 30.1906 47.2037 29.7475 46.9661 29.2981C46.7285 28.8486 46.4846 28.4121 46.2277 28.0012C45.7334 27.1601 45.2261 26.396 44.7574 25.6833C44.263 24.9963 43.82 24.3478 43.3963 23.7957C42.9661 23.2563 42.6129 22.7619 42.2855 22.3767C41.7462 21.7218 41.3995 21.3045 41.3096 21.1953C45.6707 25.4817 48.9292 30.7604 50.8064 36.5802C52.6838 42.3998 53.1241 48.5876 52.0897 54.6145C52.1026 54.4411 52.1475 53.9146 52.1925 53.1121Z" fill="black"/>
</g>
</g>
<g style="mix-blend-mode:screen" opacity="0.4">
<g style="mix-blend-mode:screen" opacity="0.4">
<path d="M53.5607 21.3043C53.4644 21.2594 52.8095 20.9319 51.7245 20.3669C51.1338 20.0587 50.4275 19.6735 49.6057 19.2818C48.7075 18.8312 47.7429 18.5277 46.7485 18.3829C45.5925 18.2637 44.4261 18.4658 43.3777 18.9672C42.4335 19.4363 41.5218 19.9682 40.6489 20.5595C40.6026 20.585 40.5576 20.6129 40.5141 20.643C40.3151 20.765 40.1096 20.8934 39.9042 21.0154C37.4708 22.4729 34.8576 23.9945 32.2444 25.5162C30.9282 26.2674 29.6184 27.0122 28.3278 27.7506C27.0501 28.5082 25.7147 29.1759 24.5654 29.9143C23.4545 30.5714 22.5563 31.5343 21.9779 32.688C21.5304 33.7688 21.3013 34.9276 21.3037 36.0973C21.278 37.2209 21.2459 38.2739 21.2074 39.1921C21.1689 40.1102 21.1368 40.9192 21.1111 41.5805C21.0533 42.9031 21.002 43.6544 21.002 43.6544V35.3204C21.0022 34.1209 21.318 32.9424 21.9175 31.9034C22.5171 30.8644 23.3793 30.0012 24.4177 29.4007L40.3022 20.2321L42.5854 18.9101C43.6239 18.3137 44.8004 17.9999 45.9979 17.9999C47.1954 17.9999 48.372 18.3137 49.4105 18.9101L53.5389 21.2921C53.5471 21.2942 53.5546 21.2985 53.5607 21.3043Z" fill="white"/>
</g>
</g>
<g style="mix-blend-mode:multiply" opacity="0.25">
<g style="mix-blend-mode:multiply" opacity="0.25">
<path d="M71.0005 41.1953V56.2964C71.0015 57.4955 70.6869 58.6738 70.0885 59.7128C69.49 60.7519 68.6288 61.6153 67.5912 62.2162L49.4145 72.701C48.4965 73.2329 47.4666 73.5425 46.4074 73.605C45.3482 73.6674 44.2891 73.481 43.3149 73.0605C43.0645 72.9589 42.822 72.8387 42.5894 72.701L41.5107 72.0782C41.5749 72.1103 41.6456 72.1489 41.729 72.1938C42.0693 72.3672 42.5701 72.6175 43.2186 72.8808C43.9924 73.2047 44.8199 73.3811 45.6584 73.4008C46.7307 73.3911 47.7858 73.1317 48.7403 72.6432C49.7997 72.1296 50.8976 71.3912 52.1047 70.6849C53.2989 69.9658 54.5574 69.2082 55.8672 68.4249C58.4739 66.8647 61.2797 65.2403 64.0855 63.603C65.4929 62.8711 66.8545 62.0541 68.1626 61.1568C69.3143 60.2605 70.0903 58.9671 70.3392 57.5292C70.5331 56.1059 70.6189 54.6701 70.596 53.2338C70.6281 51.8406 70.6602 50.5243 70.6859 49.3044C70.7501 46.871 70.8464 44.8485 70.8913 43.4231C70.962 42.0042 71.0005 41.1953 71.0005 41.1953Z" fill="black"/>
</g>
</g>
<g style="mix-blend-mode:screen" opacity="0.4">
<g style="mix-blend-mode:screen" opacity="0.4">
<path d="M23.6863 60.0912V60.0976C23.6687 60.0923 23.6516 60.0859 23.6349 60.0784C23.6525 60.0804 23.6698 60.0847 23.6863 60.0912Z" fill="white"/>
</g>
</g>
<g style="mix-blend-mode:screen" opacity="0.4">
<g style="mix-blend-mode:screen" opacity="0.4">
<path d="M70.1459 36.3605C70.133 36.4055 70.0688 36.6109 69.9533 36.9641C69.812 37.3621 69.6643 37.9721 69.3562 38.6976C69.2085 39.0636 69.0608 39.4809 68.8746 39.9175C68.6884 40.3541 68.4701 40.8293 68.2454 41.3301C68.0078 41.8309 67.7317 42.3509 67.4557 42.9095C67.1667 43.4617 66.82 44.0139 66.4797 44.6046C66.1202 45.1825 65.7349 45.786 65.3176 46.3895C64.881 46.9866 64.4572 47.6158 63.95 48.2194C62.9304 49.5114 61.8235 50.7321 60.637 51.8727C59.3577 53.0889 57.9978 54.2171 56.5663 55.2499C55.0784 56.2948 53.5234 57.2407 51.9114 58.0814C50.282 58.9074 48.5955 59.6154 46.8648 60.2002C45.1939 60.7614 43.4834 61.1971 41.7476 61.5035C40.1275 61.8002 38.4882 61.9805 36.8423 62.0429C36.0526 62.075 35.2885 62.0878 34.563 62.0686C33.8182 62.0493 33.1119 62.0108 32.4314 61.9594C30.2435 61.7783 28.077 61.3957 25.9594 60.8166C25.1954 60.6175 24.6111 60.412 24.2066 60.2772C23.9562 60.1937 23.7828 60.1295 23.6865 60.0974C32.9838 62.8401 42.9786 61.9151 51.6146 57.5129C60.2507 53.1107 66.8711 45.566 70.1138 36.4312C70.119 36.4158 70.1255 36.4007 70.133 36.3862C70.1395 36.374 70.1459 36.367 70.1459 36.3605Z" fill="white"/>
</g>
</g>
<g style="mix-blend-mode:screen" opacity="0.4">
<g style="mix-blend-mode:screen" opacity="0.4">
<path d="M53.0618 46.2097C53.0553 47.1857 53.0618 48.1295 52.9975 48.9963C52.9082 50.3898 52.7237 51.7756 52.4454 53.144C52.2399 54.1263 52.0858 54.6785 52.0858 54.6785V54.6335C52.0883 54.631 52.0901 54.628 52.0912 54.6247C52.0923 54.6213 52.0927 54.6178 52.0922 54.6143C52.1244 54.4409 52.15 54.2676 52.1757 54.0942C52.2335 53.7475 52.2849 53.3944 52.3298 53.0412C52.3298 53.022 52.3362 53.0027 52.3362 52.9834C52.3812 52.6367 52.4197 52.2836 52.4582 51.9369L52.4775 51.6865C52.5096 51.3398 52.5353 50.9866 52.5609 50.6399V50.6078C52.5866 50.2098 52.6059 49.8053 52.6187 49.4072C52.6316 49.0091 52.638 48.5982 52.638 48.1937C52.638 47.2049 52.5995 46.2226 52.5224 45.2466C52.5032 45.0027 52.4839 44.7651 52.4582 44.5275C52.4261 44.123 52.3812 43.7185 52.3234 43.314C52.2849 42.9994 52.2399 42.6784 52.1886 42.3638C52.1565 42.1391 52.1179 41.9208 52.0794 41.6961C52.0152 41.2916 51.9382 40.8806 51.8483 40.4762C51.7841 40.1615 51.7199 39.8534 51.6428 39.5452C51.585 39.2948 51.5272 39.0444 51.463 38.8004C51.3603 38.3959 51.2512 37.9914 51.1292 37.5869C51.0778 37.3943 51.02 37.2145 50.9622 37.0283C50.898 36.81 50.8338 36.5981 50.7568 36.3862C50.7439 36.3413 50.7311 36.2963 50.7118 36.245C50.6219 35.9625 50.5256 35.68 50.4165 35.4039C50.2495 34.9288 50.0698 34.4536 49.8771 33.9849C49.7873 33.7538 49.6909 33.5291 49.5946 33.3044C49.4791 33.0219 49.3507 32.7329 49.2158 32.4504C49.0938 32.1679 48.959 31.8918 48.8177 31.6093C48.5481 31.0507 48.2656 30.505 47.9638 29.9657C47.7134 29.5034 47.4566 29.0539 47.1805 28.6109C46.339 27.2153 45.406 25.8768 44.3875 24.6045C44.2399 24.4119 44.0794 24.2192 43.9188 24.0266C43.8675 23.9624 43.8161 23.9046 43.7647 23.8404C43.585 23.6221 43.3988 23.4102 43.2062 23.1984C43.0071 22.9672 42.8017 22.7361 42.5898 22.5114C42.3907 22.2867 42.1789 22.0684 41.9606 21.8501C41.7551 21.6253 41.5368 21.4135 41.3185 21.2016C41.3121 21.1952 41.3057 21.1887 41.3057 21.1823C41.402 21.2594 41.8129 21.6253 42.4742 22.2032C43.4953 23.1547 44.456 24.169 45.3506 25.2401C45.89 25.9207 46.4807 26.6526 47.0328 27.4809C47.3282 27.8854 47.6107 28.3156 47.8803 28.765C48.15 29.2144 48.4454 29.6575 48.6958 30.139C49.2287 31.0893 49.7423 32.0973 50.2046 33.1438C50.4165 33.6768 50.6348 34.2097 50.8531 34.749C51.0457 35.2947 51.2383 35.8405 51.4309 36.3927C51.7712 37.5034 52.0794 38.627 52.317 39.7506C52.4476 40.3016 52.5504 40.8588 52.6252 41.42C52.7279 41.9721 52.7985 42.5243 52.8499 43.0636C52.9976 44.1429 53.0168 45.2081 53.0618 46.2097Z" fill="white"/>
</g>
</g>
<defs>
<linearGradient id="paint0_linear_969_1655" x1="-6.33872" y1="-29.8403" x2="134.99" y2="3.87192" gradientUnits="userSpaceOnUse">
<stop offset="0.257676" stop-color="#043266"/>
<stop offset="0.420884" stop-color="#053367" stop-opacity="0.88"/>
<stop offset="0.577529" stop-color="#164E8C" stop-opacity="0.9"/>
<stop offset="0.877732" stop-color="#4293ED"/>
<stop offset="1" stop-color="#4293ED"/>
</linearGradient>
<linearGradient id="paint1_linear_969_1655" x1="55.5901" y1="56.0494" x2="55.5901" y2="23.939" gradientUnits="userSpaceOnUse">
<stop stop-color="#F8A700"/>
<stop offset="1" stop-color="#FCFC53"/>
</linearGradient>
<linearGradient id="paint2_linear_969_1655" x1="40.3027" y1="37.7968" x2="70.8776" y2="37.7968" gradientUnits="userSpaceOnUse">
<stop stop-color="#84FAB0"/>
<stop offset="1" stop-color="#8FD3F4"/>
</linearGradient>
<linearGradient id="paint3_linear_969_1655" x1="49.4731" y1="52.0786" x2="20.9463" y2="41.037" gradientUnits="userSpaceOnUse">
<stop stop-color="#F80300"/>
<stop offset="0.033" stop-color="#F81000"/>
<stop offset="0.158" stop-color="#F93F00"/>
<stop offset="0.288" stop-color="#FA6800"/>
<stop offset="0.419" stop-color="#FA8900"/>
<stop offset="0.554" stop-color="#FBA300"/>
<stop offset="0.693" stop-color="#FBB500"/>
<stop offset="0.838" stop-color="#FBC000"/>
<stop offset="1" stop-color="#FCC400"/>
</linearGradient>
<linearGradient id="paint4_linear_969_1655" x1="21" y1="40.9385" x2="52.6368" y2="40.9385" gradientUnits="userSpaceOnUse">
<stop stop-color="#007ADF"/>
<stop offset="1" stop-color="#00ECBC"/>
</linearGradient>
<linearGradient id="paint5_linear_969_1655" x1="21.79" y1="53.8266" x2="71" y2="53.8266" gradientUnits="userSpaceOnUse">
<stop stop-color="#43E97B"/>
<stop offset="1" stop-color="#38F9D7"/>
</linearGradient>
</defs>
</svg>
