<svg width="92" height="92" viewBox="0 0 92 92" fill="none" xmlns="http://www.w3.org/2000/svg">
<circle cx="46" cy="46" r="46" fill="#C4C4C4"/>
<circle cx="46" cy="46" r="46" fill="url(#paint0_linear_969_1631)"/>
<path d="M69.9774 36.4051L64.7705 45.4272C64.6686 45.2847 64.5738 45.1327 64.4648 44.9926C64.4513 44.9726 64.4313 44.9519 64.4177 44.9337C64.4042 44.9154 64.3771 44.8748 64.3588 44.8459C64.155 44.5467 63.9377 44.2417 63.7069 43.9496C63.6868 43.9225 63.6597 43.8907 63.6391 43.8612L63.3747 43.5149C63.1845 43.264 62.9807 43.0061 62.7704 42.7616C62.7569 42.741 62.7363 42.7275 62.7227 42.7075C62.6279 42.5897 62.5325 42.4766 62.4283 42.3612C62.4145 42.3413 62.3986 42.3229 62.3811 42.3064C62.1909 42.0708 61.9807 41.8246 61.7633 41.5938L61.7427 41.5737C61.6479 41.4648 61.5525 41.3564 61.4512 41.2545C61.2339 41.003 60.9959 40.7521 60.7586 40.5213C60.7179 40.4806 60.6838 40.44 60.6408 40.3994C60.5524 40.304 60.4641 40.2227 60.3758 40.1414C60.258 40.0189 60.152 39.9058 60.0295 39.7951C59.9417 39.7068 59.8463 39.6184 59.7515 39.5371C59.7285 39.5103 59.7035 39.4853 59.6767 39.4624C59.5477 39.3399 59.4187 39.2179 59.2897 39.109C59.2491 39.0754 59.2149 39.0348 59.172 39.0006C58.9817 38.8175 58.7779 38.6408 58.583 38.4706C58.4611 38.3687 58.3474 38.2668 58.2232 38.172C58.2096 38.1584 58.1961 38.1514 58.1825 38.1378C57.9181 37.9069 57.6525 37.6831 57.3745 37.4723C57.3274 37.4387 57.2797 37.3981 57.2255 37.3574C56.8721 37.0789 56.5187 36.8138 56.1595 36.5559C55.9628 36.4134 55.759 36.2708 55.5552 36.1283C55.3514 35.9858 55.1483 35.8503 54.9445 35.716C54.7407 35.5818 54.5322 35.4445 54.3196 35.3156C54.107 35.1866 53.9073 35.0505 53.6883 34.9286C53.478 34.7926 53.2677 34.6707 53.0504 34.5482C52.8331 34.4257 52.6228 34.3037 52.4026 34.1883C52.1823 34.0729 51.9679 33.9527 51.7441 33.8349C51.5203 33.7172 51.3024 33.6111 51.0786 33.5022C50.8277 33.3803 50.5833 33.2578 50.3318 33.1423C49.9926 32.9863 49.6528 32.8373 49.3071 32.6877C48.9879 32.5522 48.6592 32.4232 48.3359 32.2937C47.827 32.097 47.3111 31.9073 46.7881 31.7371C46.5031 31.6423 46.218 31.5475 45.9259 31.4591L45.9194 31.4521C45.7769 31.4114 45.625 31.3637 45.4848 31.3231C45.3623 31.0875 45.2333 30.8478 45.1043 30.6104C45.0908 30.5898 45.0772 30.5627 45.0637 30.5427C44.7857 30.0333 44.4936 29.5374 44.1803 29.0421C44.1667 29.015 44.1461 28.9879 44.1326 28.9608C43.99 28.7299 43.8381 28.499 43.6844 28.2752C43.5218 28.0238 43.3587 27.7794 43.1891 27.542C43.0194 27.3047 42.8492 27.0597 42.6731 26.8223C42.4971 26.585 42.3268 26.347 42.1431 26.1156C41.9735 25.8983 41.8103 25.688 41.6407 25.4772C41.6265 25.4577 41.6105 25.4396 41.593 25.423L41.5724 25.4029C41.5589 25.3959 41.5589 25.3894 41.5524 25.3823C41.5471 25.3684 41.5377 25.3564 41.5253 25.3482C41.5182 25.3417 41.5117 25.3346 41.5117 25.3281L41.5047 25.3211C41.4163 25.2127 41.328 25.1108 41.2402 25.0025H63.3847C64.7204 24.9995 66.0333 25.3487 67.191 26.0149C68.3487 26.6811 69.3102 27.6408 69.9788 28.7971C70.6473 29.9534 70.9992 31.2656 70.999 32.6013C70.9987 33.937 70.6464 35.249 69.9774 36.4051Z" fill="url(#paint1_linear_969_1631)"/>
<path d="M69.9774 36.4051L64.7705 45.4272C64.6686 45.2847 64.5738 45.1327 64.4648 44.9926C64.4513 44.9726 64.4313 44.9519 64.4177 44.9337C64.4042 44.9154 64.3771 44.8748 64.3588 44.8459C64.155 44.5467 63.9377 44.2417 63.7069 43.9496C63.6868 43.9225 63.6597 43.8907 63.6391 43.8612L63.3747 43.5149C63.1845 43.264 62.9807 43.0061 62.7704 42.7616C62.7569 42.741 62.7363 42.7275 62.7227 42.7075C62.6279 42.5897 62.5325 42.4766 62.4283 42.3612C62.4145 42.3413 62.3986 42.3229 62.3811 42.3064C62.1909 42.0708 61.9807 41.8246 61.7633 41.5938L61.7427 41.5737C61.6479 41.4648 61.5525 41.3564 61.4512 41.2545C61.2339 41.003 60.9959 40.7521 60.7586 40.5213C60.7179 40.4806 60.6838 40.44 60.6408 40.3994C60.5524 40.304 60.4641 40.2227 60.3758 40.1414C60.258 40.0189 60.152 39.9058 60.0295 39.7951C59.9417 39.7068 59.8463 39.6184 59.7515 39.5371C59.7285 39.5103 59.7035 39.4853 59.6767 39.4624C59.5477 39.3399 59.4187 39.2179 59.2897 39.109C59.2491 39.0754 59.2149 39.0348 59.172 39.0006C58.9817 38.8175 58.7779 38.6408 58.583 38.4706C58.4611 38.3687 58.3474 38.2668 58.2232 38.172C58.2096 38.1584 58.1961 38.1514 58.1825 38.1378C57.9181 37.9069 57.6525 37.6831 57.3745 37.4723C57.3274 37.4387 57.2797 37.3981 57.2255 37.3574C56.8721 37.0789 56.5187 36.8138 56.1595 36.5559C55.9628 36.4134 55.759 36.2708 55.5552 36.1283C55.3514 35.9858 55.1483 35.8503 54.9445 35.716C54.7407 35.5818 54.5322 35.4445 54.3196 35.3156C54.107 35.1866 53.9073 35.0505 53.6883 34.9286C53.478 34.7926 53.2677 34.6707 53.0504 34.5482C52.8331 34.4257 52.6228 34.3037 52.4026 34.1883C52.1823 34.0729 51.9679 33.9527 51.7441 33.8349C51.5203 33.7172 51.3024 33.6111 51.0786 33.5022C50.8277 33.3803 50.5833 33.2578 50.3318 33.1423C49.9926 32.9863 49.6528 32.8373 49.3071 32.6877C48.9879 32.5522 48.6592 32.4232 48.3359 32.2937C47.827 32.097 47.3111 31.9073 46.7881 31.7371C46.5031 31.6423 46.218 31.5475 45.9259 31.4591L45.9194 31.4521C45.7769 31.4114 45.625 31.3637 45.4848 31.3231C45.3623 31.0875 45.2333 30.8478 45.1043 30.6104C45.0908 30.5898 45.0772 30.5627 45.0637 30.5427C44.7857 30.0333 44.4936 29.5374 44.1803 29.0421C44.1667 29.015 44.1461 28.9879 44.1326 28.9608C43.99 28.7299 43.8381 28.499 43.6844 28.2752C43.5218 28.0238 43.3587 27.7794 43.1891 27.542C43.0194 27.3047 42.8492 27.0597 42.6731 26.8223C42.4971 26.585 42.3268 26.347 42.1431 26.1156C41.9735 25.8983 41.8103 25.688 41.6407 25.4772C41.6265 25.4577 41.6105 25.4396 41.593 25.423L41.5724 25.4029C41.5589 25.3959 41.5589 25.3894 41.5524 25.3823C41.5471 25.3684 41.5377 25.3564 41.5253 25.3482C41.5182 25.3417 41.5117 25.3346 41.5117 25.3281L41.5047 25.3211C41.4163 25.2127 41.328 25.1108 41.2402 25.0025H63.3847C64.7204 24.9995 66.0333 25.3487 67.191 26.0149C68.3487 26.6811 69.3102 27.6408 69.9788 28.7971C70.6473 29.9534 70.9992 31.2656 70.999 32.6013C70.9987 33.937 70.6464 35.249 69.9774 36.4051Z" fill="url(#paint2_linear_969_1631)"/>
<path d="M45.4903 31.32C45.3478 31.2794 45.2052 31.2387 45.0627 31.2022C41.9558 30.3184 38.7407 29.8728 35.5105 29.8783C33.919 29.8779 32.3292 29.9845 30.7518 30.1975C30.2088 30.2723 29.6794 30.3536 29.1499 30.449C29.068 30.4625 28.9803 30.4825 28.8984 30.4961C28.2942 30.6139 27.704 30.7405 27.1133 30.883C27.0989 30.8846 27.0851 30.8892 27.0727 30.8966C25.3094 31.3283 23.5821 31.8957 21.9064 32.5939C21.6485 32.7029 21.3834 32.8183 21.1325 32.9267C21.1022 32.9408 21.0727 32.9568 21.0442 32.9744C21.0325 32.978 21.0211 32.9825 21.01 32.9879C20.957 31.9574 21.1144 30.927 21.4727 29.9593C21.831 28.9917 22.3826 28.1072 23.094 27.3598C23.8053 26.6123 24.6615 26.0176 25.6102 25.6119C26.5589 25.2062 27.5804 24.998 28.6122 25H41.2463C41.3341 25.1084 41.423 25.2103 41.5108 25.3186L41.5178 25.3257C41.5178 25.3322 41.5243 25.3392 41.5314 25.3457C41.5437 25.354 41.5532 25.3659 41.5585 25.3799C41.5736 25.3918 41.5873 25.4054 41.5991 25.4205C42.9219 27.0409 44.0964 28.7769 45.1086 30.6074C45.2388 30.8447 45.3678 31.0827 45.4903 31.32Z" fill="url(#paint3_linear_969_1631)"/>
<path d="M45.4903 31.32C45.3478 31.2794 45.2052 31.2387 45.0627 31.2022C41.9558 30.3184 38.7407 29.8728 35.5105 29.8783C33.919 29.8779 32.3292 29.9845 30.7518 30.1975C30.2088 30.2723 29.6794 30.3536 29.1499 30.449C29.068 30.4625 28.9803 30.4825 28.8984 30.4961C28.2942 30.6139 27.704 30.7405 27.1133 30.883C27.0989 30.8846 27.0851 30.8892 27.0727 30.8966C25.3094 31.3283 23.5821 31.8957 21.9064 32.5939C21.6485 32.7029 21.3834 32.8183 21.1325 32.9267C21.1022 32.9408 21.0727 32.9568 21.0442 32.9744C21.0325 32.978 21.0211 32.9825 21.01 32.9879C20.957 31.9574 21.1144 30.927 21.4727 29.9593C21.831 28.9917 22.3826 28.1072 23.094 27.3598C23.8053 26.6123 24.6615 26.0176 25.6102 25.6119C26.5589 25.2062 27.5804 24.998 28.6122 25H41.2463C41.3341 25.1084 41.423 25.2103 41.5108 25.3186L41.5178 25.3257C41.5178 25.3322 41.5243 25.3392 41.5314 25.3457C41.5437 25.354 41.5532 25.3659 41.5585 25.3799C41.5736 25.3918 41.5873 25.4054 41.5991 25.4205C42.9219 27.0409 44.0964 28.7769 45.1086 30.6074C45.2388 30.8447 45.3678 31.0827 45.4903 31.32Z" fill="url(#paint4_linear_969_1631)"/>
<path d="M64.7701 45.4272L52.5824 66.5398C52.0297 67.5075 51.2683 68.3398 50.3536 68.9764C49.4388 69.6129 48.3937 70.0375 47.2942 70.2195C47.2847 70.2186 47.2752 70.2208 47.2672 70.226C45.3905 70.5473 43.4614 70.1578 41.8564 69.1335C42.0196 68.9297 42.1821 68.7212 42.3382 68.5086C42.346 68.5003 42.3529 68.4913 42.3588 68.4815C42.3724 68.468 42.393 68.4409 42.4177 68.4068C46.297 63.2538 48.6712 57.126 49.2764 50.7046C49.8817 44.2831 48.6942 37.8196 45.846 32.0327C45.7283 31.7971 45.6104 31.558 45.4861 31.3201C45.6287 31.3607 45.7806 31.4084 45.9208 31.449L45.9273 31.4561C46.2218 31.5445 46.5044 31.6393 46.7895 31.7341C47.3125 31.9043 47.8284 32.0939 48.3372 32.2907C48.6629 32.4202 48.9893 32.5492 49.3085 32.6847C49.6542 32.8343 49.9939 32.9833 50.3332 33.1393C50.5847 33.2571 50.8291 33.3749 51.08 33.4992C51.3038 33.6081 51.5282 33.7165 51.7455 33.8319C51.9629 33.9474 52.1866 34.0628 52.4039 34.1853C52.6212 34.3078 52.8315 34.4209 53.0518 34.5452C53.272 34.6694 53.4793 34.7966 53.6896 34.9256C53.8999 35.0546 54.1178 35.1765 54.321 35.3126C54.5241 35.4486 54.7421 35.577 54.9458 35.713C55.1496 35.8491 55.3528 35.9845 55.5566 36.1253C55.7603 36.2661 55.9641 36.4104 56.1608 36.5529C56.5207 36.8108 56.8805 37.0829 57.2268 37.3544C57.281 37.3951 57.3288 37.4357 57.3759 37.4693C57.648 37.6866 57.9194 37.9039 58.1839 38.1348C58.1974 38.1483 58.211 38.1554 58.2245 38.169C58.347 38.2638 58.4601 38.3657 58.5844 38.4675C58.7807 38.6372 58.977 38.8139 59.1734 38.9976C59.214 39.0318 59.2481 39.0724 59.2911 39.106C59.4201 39.2149 59.5491 39.3368 59.678 39.4593C59.7049 39.4823 59.7299 39.5073 59.7528 39.5341C59.8476 39.6154 59.936 39.7038 60.0308 39.7921C60.1533 39.9005 60.2617 40.0159 60.3771 40.1384C60.4655 40.2197 60.5538 40.308 60.6421 40.3964C60.6828 40.437 60.717 40.4776 60.76 40.5183C60.9956 40.7562 61.2264 41.0006 61.4525 41.2515C61.5539 41.3534 61.6492 41.4618 61.7441 41.5707L61.7647 41.5907C61.9749 41.8216 62.1852 42.0619 62.3825 42.3034C62.4 42.32 62.4158 42.3383 62.4296 42.3581C62.5315 42.4759 62.6269 42.589 62.7241 42.7044C62.7376 42.7245 62.7582 42.738 62.7718 42.7586C62.9756 43.003 63.1787 43.2539 63.376 43.5119L63.6405 43.8582C63.6611 43.8853 63.6882 43.9171 63.7082 43.9465C63.9253 44.2387 64.1427 44.5374 64.3602 44.8429C64.3808 44.87 64.4008 44.9018 64.4191 44.9307C64.4373 44.9595 64.4527 44.9719 64.4662 44.9896C64.5734 45.135 64.6682 45.2846 64.7701 45.4272Z" fill="url(#paint5_linear_969_1631)"/>
<path d="M64.7701 45.4272L52.5824 66.5398C52.0297 67.5075 51.2683 68.3398 50.3536 68.9764C49.4388 69.6129 48.3937 70.0375 47.2942 70.2195C47.2847 70.2186 47.2752 70.2208 47.2672 70.226C45.3905 70.5473 43.4614 70.1578 41.8564 69.1335C42.0196 68.9297 42.1821 68.7212 42.3382 68.5086C42.346 68.5003 42.3529 68.4913 42.3588 68.4815C42.3724 68.468 42.393 68.4409 42.4177 68.4068C46.297 63.2538 48.6712 57.126 49.2764 50.7046C49.8817 44.2831 48.6942 37.8196 45.846 32.0327C45.7283 31.7971 45.6104 31.558 45.4861 31.3201C45.6287 31.3607 45.7806 31.4084 45.9208 31.449L45.9273 31.4561C46.2218 31.5445 46.5044 31.6393 46.7895 31.7341C47.3125 31.9043 47.8284 32.0939 48.3372 32.2907C48.6629 32.4202 48.9893 32.5492 49.3085 32.6847C49.6542 32.8343 49.9939 32.9833 50.3332 33.1393C50.5847 33.2571 50.8291 33.3749 51.08 33.4992C51.3038 33.6081 51.5282 33.7165 51.7455 33.8319C51.9629 33.9474 52.1866 34.0628 52.4039 34.1853C52.6212 34.3078 52.8315 34.4209 53.0518 34.5452C53.272 34.6694 53.4793 34.7966 53.6896 34.9256C53.8999 35.0546 54.1178 35.1765 54.321 35.3126C54.5241 35.4486 54.7421 35.577 54.9458 35.713C55.1496 35.8491 55.3528 35.9845 55.5566 36.1253C55.7603 36.2661 55.9641 36.4104 56.1608 36.5529C56.5207 36.8108 56.8805 37.0829 57.2268 37.3544C57.281 37.3951 57.3288 37.4357 57.3759 37.4693C57.648 37.6866 57.9194 37.9039 58.1839 38.1348C58.1974 38.1483 58.211 38.1554 58.2245 38.169C58.347 38.2638 58.4601 38.3657 58.5844 38.4675C58.7807 38.6372 58.977 38.8139 59.1734 38.9976C59.214 39.0318 59.2481 39.0724 59.2911 39.106C59.4201 39.2149 59.5491 39.3368 59.678 39.4593C59.7049 39.4823 59.7299 39.5073 59.7528 39.5341C59.8476 39.6154 59.936 39.7038 60.0308 39.7921C60.1533 39.9005 60.2617 40.0159 60.3771 40.1384C60.4655 40.2197 60.5538 40.308 60.6421 40.3964C60.6828 40.437 60.717 40.4776 60.76 40.5183C60.9956 40.7562 61.2264 41.0006 61.4525 41.2515C61.5539 41.3534 61.6492 41.4618 61.7441 41.5707L61.7647 41.5907C61.9749 41.8216 62.1852 42.0619 62.3825 42.3034C62.4 42.32 62.4158 42.3383 62.4296 42.3581C62.5315 42.4759 62.6269 42.589 62.7241 42.7044C62.7376 42.7245 62.7582 42.738 62.7718 42.7586C62.9756 43.003 63.1787 43.2539 63.376 43.5119L63.6405 43.8582C63.6611 43.8853 63.6882 43.9171 63.7082 43.9465C63.9253 44.2387 64.1427 44.5374 64.3602 44.8429C64.3808 44.87 64.4008 44.9018 64.4191 44.9307C64.4373 44.9595 64.4527 44.9719 64.4662 44.9896C64.5734 45.135 64.6682 45.2846 64.7701 45.4272Z" fill="url(#paint6_linear_969_1631)"/>
<path d="M49.4342 47.4367C49.4467 55.0046 46.984 62.3688 42.4215 68.4068C42.3945 68.441 42.3739 68.4657 42.3627 68.4816C42.3568 68.4913 42.3499 68.5004 42.3421 68.5087C42.186 68.7195 42.0235 68.9298 41.8603 69.1336C41.483 68.8907 41.1291 68.6133 40.8032 68.3049C40.7971 68.2995 40.7904 68.295 40.7832 68.2914V68.2849C40.2456 67.7729 39.7858 67.185 39.4185 66.5398L22.0216 36.4051C21.7185 35.8802 21.4771 35.3221 21.3019 34.7419C21.2983 34.7332 21.296 34.7241 21.2948 34.7148C21.1313 34.1534 21.0356 33.5745 21.0098 32.9904C21.0208 32.985 21.0322 32.9804 21.0439 32.9768C21.0541 32.9684 21.0654 32.9615 21.0775 32.9562C21.097 32.9501 21.1155 32.941 21.1323 32.9291C21.3832 32.8208 21.6482 32.7053 21.9061 32.5964C22.2988 32.4338 22.6924 32.2767 23.087 32.1252C23.1347 32.1046 23.1824 32.091 23.2295 32.071C23.9834 31.7925 24.7572 31.5345 25.5376 31.3054C25.6059 31.2854 25.6807 31.2648 25.7484 31.2465C25.7815 31.2344 25.8156 31.2254 25.8503 31.2194C26.2573 31.1016 26.6649 31.0021 27.0724 30.9002C27.0848 30.8928 27.0987 30.8882 27.1131 30.8866C27.702 30.7441 28.2939 30.6151 28.8982 30.4997C28.98 30.4862 29.0678 30.4661 29.1497 30.4526C29.3805 30.412 29.6114 30.3707 29.8487 30.3348C29.8758 30.3277 29.9076 30.3213 29.9436 30.3142C30.2151 30.2736 30.4801 30.2394 30.7516 30.1964L31.0843 30.1558C31.3629 30.1151 31.6409 30.088 31.926 30.0609C32.2522 30.0268 32.5779 29.9926 32.9107 29.9726C33.0874 29.9591 33.2569 29.9455 33.433 29.9455C33.5691 29.932 33.7116 29.9249 33.8453 29.9184C34.0426 29.9049 34.2458 29.8978 34.4496 29.8978C34.803 29.8841 35.1563 29.8772 35.5096 29.8772C36.0533 29.8772 36.5963 29.8907 37.1323 29.9184C37.4515 29.9249 37.7707 29.9455 38.0828 29.9726C38.4562 29.9997 38.8231 30.0268 39.1823 30.0674C39.4544 30.0945 39.7189 30.1263 39.9839 30.1628C40.1606 30.1829 40.3438 30.2035 40.5199 30.2306C40.8933 30.2847 41.2663 30.3458 41.6389 30.4137C42.0123 30.4726 42.3857 30.5498 42.7526 30.631C43.1395 30.7123 43.533 30.8007 43.9134 30.8955C44.2939 30.9903 44.679 31.0928 45.0607 31.2011C45.2032 31.2353 45.3457 31.2759 45.4882 31.3189C45.6101 31.5545 45.7327 31.7942 45.8481 32.0316C48.2139 36.822 49.4411 42.094 49.4342 47.4367Z" fill="url(#paint7_linear_969_1631)"/>
<path d="M49.4342 47.4367C49.4467 55.0046 46.984 62.3688 42.4215 68.4068C42.3945 68.441 42.3739 68.4657 42.3627 68.4816C42.3568 68.4913 42.3499 68.5004 42.3421 68.5087C42.186 68.7195 42.0235 68.9298 41.8603 69.1336C41.483 68.8907 41.1291 68.6133 40.8032 68.3049C40.7971 68.2995 40.7904 68.295 40.7832 68.2914V68.2849C40.2456 67.7729 39.7858 67.185 39.4185 66.5398L22.0216 36.4051C21.7185 35.8802 21.4771 35.3221 21.3019 34.7419C21.2983 34.7332 21.296 34.7241 21.2948 34.7148C21.1313 34.1534 21.0356 33.5745 21.0098 32.9904C21.0208 32.985 21.0322 32.9804 21.0439 32.9768C21.0541 32.9684 21.0654 32.9615 21.0775 32.9562C21.097 32.9501 21.1155 32.941 21.1323 32.9291C21.3832 32.8208 21.6482 32.7053 21.9061 32.5964C22.2988 32.4338 22.6924 32.2767 23.087 32.1252C23.1347 32.1046 23.1824 32.091 23.2295 32.071C23.9834 31.7925 24.7572 31.5345 25.5376 31.3054C25.6059 31.2854 25.6807 31.2648 25.7484 31.2465C25.7815 31.2344 25.8156 31.2254 25.8503 31.2194C26.2573 31.1016 26.6649 31.0021 27.0724 30.9002C27.0848 30.8928 27.0987 30.8882 27.1131 30.8866C27.702 30.7441 28.2939 30.6151 28.8982 30.4997C28.98 30.4862 29.0678 30.4661 29.1497 30.4526C29.3805 30.412 29.6114 30.3707 29.8487 30.3348C29.8758 30.3277 29.9076 30.3213 29.9436 30.3142C30.2151 30.2736 30.4801 30.2394 30.7516 30.1964L31.0843 30.1558C31.3629 30.1151 31.6409 30.088 31.926 30.0609C32.2522 30.0268 32.5779 29.9926 32.9107 29.9726C33.0874 29.9591 33.2569 29.9455 33.433 29.9455C33.5691 29.932 33.7116 29.9249 33.8453 29.9184C34.0426 29.9049 34.2458 29.8978 34.4496 29.8978C34.803 29.8841 35.1563 29.8772 35.5096 29.8772C36.0533 29.8772 36.5963 29.8907 37.1323 29.9184C37.4515 29.9249 37.7707 29.9455 38.0828 29.9726C38.4562 29.9997 38.8231 30.0268 39.1823 30.0674C39.4544 30.0945 39.7189 30.1263 39.9839 30.1628C40.1606 30.1829 40.3438 30.2035 40.5199 30.2306C40.8933 30.2847 41.2663 30.3458 41.6389 30.4137C42.0123 30.4726 42.3857 30.5498 42.7526 30.631C43.1395 30.7123 43.533 30.8007 43.9134 30.8955C44.2939 30.9903 44.679 31.0928 45.0607 31.2011C45.2032 31.2353 45.3457 31.2759 45.4882 31.3189C45.6101 31.5545 45.7327 31.7942 45.8481 32.0316C48.2139 36.822 49.4411 42.094 49.4342 47.4367Z" fill="url(#paint8_linear_969_1631)"/>
<g style="mix-blend-mode:multiply" opacity="0.3">
<g style="mix-blend-mode:multiply" opacity="0.3">
<path d="M64.421 44.9313C64.3668 44.8635 64.292 44.7752 64.2101 44.6733C63.9798 44.3953 63.6536 43.9878 63.2124 43.4789C62.7849 42.9695 62.2283 42.3723 61.5899 41.7003C60.9314 41.0483 60.1711 40.3221 59.316 39.5683C58.4537 38.8286 57.5032 38.0411 56.4372 37.2944C54.1446 35.6539 51.6738 34.2782 49.0718 33.1935C48.3857 32.899 47.6866 32.644 46.9875 32.3996C46.6206 32.2771 46.2336 32.1481 45.8538 32.0327C45.5004 31.9243 45.147 31.8224 44.8149 31.7276C41.9696 30.9304 39.0383 30.4813 36.0849 30.3901C34.7195 30.3545 33.3531 30.3885 31.9911 30.492C30.6954 30.5939 29.4727 30.75 28.3526 30.9467C26.5351 31.2605 24.7436 31.7097 22.9932 32.2907C21.88 32.6576 21.201 32.9155 21.0449 32.9768C21.0551 32.9684 21.0664 32.9614 21.0785 32.9562C28.5687 29.6035 36.993 28.965 44.903 31.1504C52.813 33.3359 59.7144 38.2087 64.421 44.9313Z" fill="black"/>
</g>
</g>
<g style="mix-blend-mode:overlay" opacity="0.3">
<g style="mix-blend-mode:overlay" opacity="0.3">
<path d="M64.5321 45.0743C64.5115 45.0537 64.4914 45.0266 64.4638 44.9925C64.4502 44.9724 64.4302 44.9518 64.4166 44.9336C64.1722 44.5743 63.9143 44.2145 63.6357 43.8611L63.3713 43.5148C63.1675 43.2433 62.9502 42.9718 62.7193 42.7074C62.6245 42.5896 62.5291 42.4765 62.4248 42.361C62.2146 42.096 61.9837 41.831 61.7393 41.5736C61.6445 41.4647 61.5491 41.3563 61.4478 41.2544C61.2304 41.0029 60.9925 40.752 60.7552 40.5212C60.6354 40.3877 60.5083 40.2609 60.3747 40.1413C60.1438 39.8969 59.913 39.6701 59.6756 39.4622C59.5466 39.3397 59.4177 39.2178 59.2887 39.1089C59.0578 38.8851 58.8175 38.6748 58.5819 38.471C58.46 38.3692 58.3464 38.2673 58.2221 38.1724C57.9441 37.928 57.6655 37.6972 57.3734 37.4728C57.3263 37.4392 57.2786 37.3986 57.2244 37.3579C56.871 37.0794 56.5177 36.8143 56.1584 36.5564C55.9617 36.4138 55.7579 36.2713 55.5541 36.1288C55.3504 35.9863 55.1472 35.8508 54.9434 35.7165C54.7396 35.5822 54.5311 35.445 54.3185 35.316C54.1059 35.1871 53.9063 35.051 53.6872 34.9291C53.4769 34.7931 53.2667 34.6711 53.0493 34.5486C52.832 34.4261 52.6218 34.3042 52.4015 34.1888C52.1812 34.0734 51.9669 33.9532 51.7431 33.8354C51.5193 33.7176 51.3013 33.6116 51.0775 33.5027C50.8267 33.3808 50.5822 33.2583 50.3308 33.1428C49.9915 32.9868 49.6517 32.8377 49.306 32.6882C48.2003 32.2221 47.0718 31.812 45.9248 31.4596L45.9184 31.4525C45.7758 31.4119 45.6239 31.3642 45.4837 31.3236C45.3435 31.2829 45.1987 31.2423 45.0561 31.2058C41.9493 30.3219 38.7341 29.8763 35.504 29.8818C33.9124 29.8814 32.3225 29.988 30.7453 30.201C30.2023 30.2758 29.6728 30.3571 29.1433 30.4525C29.0615 30.466 28.9737 30.4861 28.8919 30.4996C28.2876 30.6174 27.6975 30.744 27.1068 30.8865C27.0924 30.8881 27.0785 30.8927 27.0661 30.9001C25.3028 31.3317 23.5756 31.8993 21.8999 32.5975C21.6419 32.7064 21.3769 32.8218 21.126 32.9302L21.4923 32.7471C21.8115 32.5839 22.2868 32.3466 22.9058 32.0815C24.6192 31.3401 26.3924 30.7451 28.2063 30.3029C30.7857 29.6858 33.429 29.3758 36.0812 29.3794C37.5817 29.3829 39.0805 29.4828 40.5684 29.6786C42.0983 29.8916 43.613 30.2022 45.1033 30.6086C45.1103 30.615 45.1103 30.615 45.1168 30.615C45.8913 30.8394 46.5892 31.0703 47.3301 31.3218C48.0633 31.5868 48.7966 31.8648 49.4956 32.1705C50.872 32.7609 52.2058 33.4459 53.4875 34.2206C54.691 34.9371 55.8454 35.7332 56.9429 36.6035C57.9287 37.3773 58.8694 38.2069 59.7604 39.0883C60.1727 39.4952 60.5549 39.9028 60.9142 40.2832C61.2605 40.6837 61.5867 41.0571 61.8989 41.417C62.4825 42.1496 62.992 42.7945 63.3789 43.3446C63.7859 43.8811 64.0509 44.3429 64.2476 44.6403C64.4031 44.8706 64.4979 45.0131 64.5321 45.0743Z" fill="white"/>
</g>
</g>
<g style="mix-blend-mode:multiply" opacity="0.3">
<g style="mix-blend-mode:multiply" opacity="0.3">
<path d="M49.4338 47.4366C49.4463 55.0045 46.9836 62.3687 42.4212 68.4067C42.3941 68.4409 42.3735 68.4656 42.3623 68.4815C42.3965 68.4273 42.4848 68.2848 42.6273 68.0692C42.8105 67.7842 43.082 67.3625 43.4077 66.8201C44.3197 65.3251 45.123 63.7665 45.8112 62.1562C46.2388 61.165 46.6598 60.0719 47.048 58.8975C47.4469 57.6642 47.7822 56.4113 48.0527 55.1436C48.3426 53.7925 48.5534 52.4255 48.6841 51.0498C48.7653 50.3507 48.7924 49.6446 48.8401 48.9384C48.8466 48.2122 48.8737 47.4996 48.8537 46.7864C48.8046 43.9763 48.4309 41.1812 47.74 38.4569C47.4007 37.1535 47.0138 35.9109 46.5862 34.75C46.1587 33.5892 45.7028 32.5232 45.2281 31.532C45.1739 31.4237 45.1262 31.3153 45.0656 31.2063C44.3611 29.7402 43.5559 28.3247 42.6556 26.97C42.0849 26.1084 41.6844 25.5566 41.5625 25.3799C41.5776 25.3918 41.5912 25.4054 41.6031 25.4205C43.0959 27.2504 44.3993 29.227 45.4931 31.32C45.6151 31.5556 45.7376 31.7953 45.853 32.0326C48.2167 36.8231 49.4422 42.0947 49.4338 47.4366Z" fill="black"/>
</g>
</g>
<g style="mix-blend-mode:overlay" opacity="0.3">
<g style="mix-blend-mode:overlay" opacity="0.3">
<path d="M49.9984 46.7576C50.0184 47.5043 49.9849 48.2441 49.9713 48.9638C49.9165 49.7041 49.883 50.4438 49.7876 51.1706C49.6367 52.5869 49.3872 53.9911 49.0408 55.3727C48.7305 56.6672 48.3336 57.9395 47.8529 59.1808C47.4348 60.2943 46.9521 61.3824 46.407 62.4395C45.9524 63.3317 45.4517 64.1996 44.9069 65.0397C44.4181 65.7865 43.9835 66.4314 43.5895 66.9402C43.2231 67.4632 42.8827 67.8366 42.6731 68.1081C42.5647 68.2442 42.4834 68.339 42.4222 68.4067C46.3014 63.2538 48.6756 57.126 49.2808 50.7046C49.8861 44.2831 48.6986 37.8196 45.8504 32.0327C45.7326 31.7971 45.6149 31.558 45.4906 31.32C44.3967 29.2271 43.0934 27.2504 41.6006 25.4205C41.6595 25.4794 41.7502 25.5837 41.8656 25.7056C42.0959 25.9635 42.4357 26.3305 42.8291 26.8328C43.9435 28.2135 44.9405 29.6849 45.8098 31.2317C45.8504 31.3065 45.8911 31.3742 45.9276 31.449L45.9341 31.4561C46.47 32.4199 46.9527 33.4124 47.3799 34.4291C47.9025 35.6541 48.3492 36.9102 48.7174 38.1901C49.11 39.5608 49.4139 40.9554 49.6274 42.3652C49.8435 43.82 49.9675 45.2871 49.9984 46.7576Z" fill="white"/>
</g>
</g>
<g style="mix-blend-mode:overlay" opacity="0.25">
<g style="mix-blend-mode:overlay" opacity="0.25">
<path d="M68.8018 35.7257L64.6403 42.9356L64.4501 42.6842C64.2334 42.3991 63.9954 42.1005 63.7433 41.8155C63.6685 41.72 63.5731 41.6046 63.4648 41.4892C63.2333 41.1915 62.9863 40.9061 62.7251 40.634C62.6503 40.5457 62.5484 40.4373 62.4465 40.3284C62.2227 40.0704 61.9753 39.8124 61.7339 39.5751C61.598 39.4255 61.4622 39.2897 61.3263 39.1675C61.0754 38.9096 60.831 38.6722 60.5795 38.4414C60.4711 38.3395 60.3352 38.217 60.2062 38.1015C59.9618 37.8707 59.7173 37.6539 59.4664 37.4366L59.3439 37.3277C59.2556 37.2599 59.1743 37.1922 59.093 37.1245C58.7985 36.8665 58.5088 36.6286 58.2037 36.3912L58.0476 36.2687C57.6943 35.9972 57.3279 35.7192 56.9545 35.4542C56.7643 35.3117 56.5605 35.1756 56.3656 35.0331C56.13 34.8706 55.9245 34.7345 55.7178 34.5991C55.4822 34.4359 55.256 34.2934 55.0251 34.1509C54.8485 34.0331 54.6247 33.8929 54.3873 33.7639C54.17 33.6214 53.9457 33.4924 53.7148 33.3635L53.5657 33.2751C53.389 33.1803 53.2194 33.0784 53.0427 32.9806C52.839 32.8628 52.6087 32.7451 52.3707 32.6208C52.167 32.5124 51.9432 32.4035 51.7194 32.2951L51.5221 32.2003C51.4002 32.1414 51.2777 32.0778 51.1557 32.0236C49.1809 29.6808 46.7581 27.756 44.0295 26.3621L44.0225 26.355H63.3906C64.4878 26.3528 65.5662 26.6399 66.5171 27.1875C67.4679 27.7351 68.2575 28.5237 68.8062 29.4739C69.355 30.424 69.6435 31.5021 69.6426 32.5993C69.6417 33.6965 69.3516 34.7741 68.8012 35.7234L68.8018 35.7257Z" fill="white"/>
</g>
</g>
<g style="mix-blend-mode:overlay" opacity="0.25">
<g style="mix-blend-mode:overlay" opacity="0.25">
<path d="M53.1748 62.7993C58.2056 51.1228 57.1873 42.7385 54.4039 36.9821C54.5329 37.0699 54.6548 37.1517 54.7773 37.2401C54.9941 37.3891 55.1843 37.5251 55.3663 37.6523C55.7126 37.9032 56.0589 38.1612 56.3846 38.418C56.3846 38.418 56.5412 38.5405 56.5883 38.574C56.8057 38.7437 57.0707 38.961 57.3287 39.1854L57.3876 39.2396C57.4553 39.2937 57.523 39.3479 57.5843 39.4027L57.7132 39.5111C57.917 39.6807 58.1338 39.8709 58.3446 40.0747L58.4123 40.1424C58.5207 40.2372 58.6296 40.3391 58.7451 40.441C58.9759 40.6583 59.1862 40.8621 59.4035 41.0859L59.4624 41.1448C59.5624 41.2324 59.6575 41.3254 59.7475 41.4234C60.0119 41.6949 60.2228 41.9187 60.433 42.1496L60.4872 42.2084C60.565 42.285 60.6376 42.3666 60.7045 42.4529C60.956 42.7244 61.1757 42.9688 61.3765 43.2132C61.4943 43.3557 61.5803 43.4576 61.6616 43.5595C61.8861 43.8241 62.0966 44.0821 62.2929 44.3334L62.5509 44.6726C62.7482 44.9441 62.9519 45.2156 63.1551 45.4971L53.1748 62.7993Z" fill="white"/>
</g>
</g>
<g style="mix-blend-mode:overlay" opacity="0.5">
<g style="mix-blend-mode:overlay" opacity="0.5">
<path d="M69.9765 36.405L64.7696 45.4271L52.5819 66.5397C52.0292 67.5074 51.2678 68.3398 50.353 68.9763C49.4383 69.6129 48.3932 70.0375 47.2937 70.2195C47.4363 70.1853 47.6471 70.1311 47.9045 70.0563C48.9169 69.7559 49.8547 69.2459 50.6571 68.5593C51.4595 67.8729 52.1085 67.0252 52.5619 66.0715C53.2816 64.7411 54.0961 63.2404 54.9766 61.6114C56.7623 58.3463 58.8666 54.5582 61.1476 50.505C62.1865 48.6722 63.2525 46.7781 64.3456 44.8511L64.3521 44.8446C64.3537 44.8344 64.3585 44.825 64.3656 44.8175C64.4675 44.6338 64.5694 44.4577 64.6713 44.2739C65.8863 42.1631 67.1148 40.0105 68.3504 37.8591L69.281 36.2566C69.5737 35.7584 69.8125 35.2304 69.9936 34.6817C70.3398 33.6199 70.4206 32.4893 70.2292 31.3889C70.0305 30.2959 69.5847 29.2627 68.9258 28.3682C68.2776 27.4946 67.4294 26.7892 66.4522 26.311C65.5059 25.8484 64.4715 25.5933 63.4186 25.563C62.2996 25.543 61.2059 25.5224 60.1464 25.5089C58.015 25.4682 55.999 25.4276 54.1456 25.3869C50.4252 25.3121 47.3297 25.1896 45.1641 25.129L41.7559 25H63.3915C64.7269 24.9981 66.0392 25.3483 67.1961 26.0152C68.3531 26.6821 69.3138 27.6421 69.9815 28.7986C70.6493 29.955 71.0003 31.2671 70.9995 32.6024C70.9986 33.9378 70.6458 35.2494 69.9765 36.405Z" fill="white"/>
</g>
</g>
<g style="mix-blend-mode:multiply" opacity="0.3">
<g style="mix-blend-mode:multiply" opacity="0.3">
<path d="M40.7856 68.2849C40.248 67.7729 39.7883 67.185 39.421 66.5399L22.0217 36.4051C21.7186 35.8803 21.4772 35.3222 21.302 34.7419C21.2984 34.7333 21.2961 34.7241 21.2949 34.7148C21.2949 34.7148 21.3491 34.8574 21.4716 35.1153C21.6462 35.4834 21.8482 35.8377 22.0759 36.1754C22.6801 37.0512 23.5482 38.3068 24.54 39.8346C25.5448 41.3617 26.6856 43.161 27.8735 45.1092C28.4571 46.0869 29.0885 47.0781 29.6927 48.1164C30.297 49.1547 30.9148 50.1942 31.5255 51.2378C32.1298 52.2979 32.727 53.358 33.3177 54.3946C33.9084 55.4311 34.465 56.4789 35.0151 57.4765C36.1081 59.479 37.0923 61.3595 37.9139 62.9956C38.3261 63.8036 38.7013 64.5575 39.0205 65.2294C39.3597 65.8879 39.6177 66.4922 39.8621 66.9374C40.0615 67.2933 40.2838 67.6358 40.5276 67.9628C40.6566 68.1353 40.7514 68.2443 40.7856 68.2849Z" fill="black"/>
</g>
</g>
<defs>
<linearGradient id="paint0_linear_969_1631" x1="-6.33872" y1="-29.8403" x2="134.99" y2="3.87192" gradientUnits="userSpaceOnUse">
<stop offset="0.257676" stop-color="#043266"/>
<stop offset="0.420884" stop-color="#053367" stop-opacity="0.88"/>
<stop offset="0.577529" stop-color="#164E8C" stop-opacity="0.9"/>
<stop offset="0.877732" stop-color="#4293ED"/>
<stop offset="1" stop-color="#4293ED"/>
</linearGradient>
<linearGradient id="paint1_linear_969_1631" x1="41.2402" y1="35.2148" x2="70.999" y2="35.2148" gradientUnits="userSpaceOnUse">
<stop stop-color="#FCC400"/>
<stop offset="0.179" stop-color="#FBC000"/>
<stop offset="0.34" stop-color="#F9B500"/>
<stop offset="0.493" stop-color="#F7A300"/>
<stop offset="0.641" stop-color="#F38900"/>
<stop offset="0.787" stop-color="#EE6800"/>
<stop offset="0.928" stop-color="#E84000"/>
<stop offset="1" stop-color="#E52900"/>
</linearGradient>
<linearGradient id="paint2_linear_969_1631" x1="41.2402" y1="35.2148" x2="70.999" y2="35.2148" gradientUnits="userSpaceOnUse">
<stop stop-color="#43E97B"/>
<stop offset="1" stop-color="#38F9D7"/>
</linearGradient>
<linearGradient id="paint3_linear_969_1631" x1="21" y1="28.994" x2="45.4903" y2="28.994" gradientUnits="userSpaceOnUse">
<stop stop-color="#FCC400"/>
<stop offset="0.179" stop-color="#FBC000"/>
<stop offset="0.34" stop-color="#F9B500"/>
<stop offset="0.493" stop-color="#F7A300"/>
<stop offset="0.641" stop-color="#F38900"/>
<stop offset="0.787" stop-color="#EE6800"/>
<stop offset="0.928" stop-color="#E84000"/>
<stop offset="1" stop-color="#E52900"/>
</linearGradient>
<linearGradient id="paint4_linear_969_1631" x1="21" y1="28.994" x2="45.4903" y2="28.994" gradientUnits="userSpaceOnUse">
<stop stop-color="#92FE9D"/>
<stop offset="1" stop-color="#00C9FF"/>
</linearGradient>
<linearGradient id="paint5_linear_969_1631" x1="41.8564" y1="50.8279" x2="64.7701" y2="50.8279" gradientUnits="userSpaceOnUse">
<stop stop-color="#FCC400"/>
<stop offset="0.179" stop-color="#FBC000"/>
<stop offset="0.34" stop-color="#F9B500"/>
<stop offset="0.493" stop-color="#F7A300"/>
<stop offset="0.641" stop-color="#F38900"/>
<stop offset="0.787" stop-color="#EE6800"/>
<stop offset="0.928" stop-color="#E84000"/>
<stop offset="1" stop-color="#E52900"/>
</linearGradient>
<linearGradient id="paint6_linear_969_1631" x1="41.8564" y1="50.8279" x2="64.7701" y2="50.8279" gradientUnits="userSpaceOnUse">
<stop stop-color="#43E97B"/>
<stop offset="1" stop-color="#38F9D7"/>
</linearGradient>
<linearGradient id="paint7_linear_969_1631" x1="21.0098" y1="49.5054" x2="49.4342" y2="49.5054" gradientUnits="userSpaceOnUse">
<stop stop-color="#FCC400"/>
<stop offset="0.179" stop-color="#FBC000"/>
<stop offset="0.34" stop-color="#F9B500"/>
<stop offset="0.493" stop-color="#F7A300"/>
<stop offset="0.641" stop-color="#F38900"/>
<stop offset="0.787" stop-color="#EE6800"/>
<stop offset="0.928" stop-color="#E84000"/>
<stop offset="1" stop-color="#E52900"/>
</linearGradient>
<linearGradient id="paint8_linear_969_1631" x1="21.0098" y1="49.5054" x2="49.4343" y2="49.5054" gradientUnits="userSpaceOnUse">
<stop stop-color="#007ADF"/>
<stop offset="1" stop-color="#00ECBC"/>
</linearGradient>
</defs>
</svg>
