<svg width="64" height="64" viewBox="0 0 64 64" fill="none" xmlns="http://www.w3.org/2000/svg">
<rect width="64" height="64" rx="32" fill="white"/>
<path opacity="0.25" fill-rule="evenodd" clip-rule="evenodd" d="M44.2622 37.9984C42.3725 39.3423 40.0617 40.1325 37.5663 40.1325C31.1784 40.1325 26 34.9541 26 28.5663C26 22.1784 31.1784 17 37.5663 17C43.9541 17 49.1325 22.1784 49.1325 28.5663C49.1325 30.4758 48.6698 32.2773 47.8503 33.8647L52.2528 37.0418C53.4736 37.9227 53.749 39.6265 52.8681 40.8473C51.9871 42.0681 50.2833 42.3435 49.0626 41.4626L44.2622 37.9984Z" fill="#66D5F8"/>
<path opacity="0.5" fill-rule="evenodd" clip-rule="evenodd" d="M36.2061 40.038C34.3269 41.3578 32.0371 42.1325 29.5663 42.1325C23.1784 42.1325 18 36.9541 18 30.5663C18 24.1784 23.1784 19 29.5663 19C35.9541 19 41.1325 24.1784 41.1325 30.5663C41.1325 32.529 40.6437 34.3775 39.7811 35.9967C39.8153 36.0192 39.8493 36.0425 39.8828 36.0667L44.7197 39.5572C45.9405 40.4382 46.2159 42.142 45.335 43.3627C44.454 44.5835 42.7502 44.859 41.5295 43.978L36.6926 40.4875C36.5088 40.3548 36.3464 40.2035 36.2061 40.038Z" fill="#66D5F8"/>
<path fill-rule="evenodd" clip-rule="evenodd" d="M29.2622 42.9984C27.3725 44.3423 25.0617 45.1325 22.5663 45.1325C16.1784 45.1325 11 39.9541 11 33.5663C11 27.1784 16.1784 22 22.5663 22C28.9541 22 34.1325 27.1784 34.1325 33.5663C34.1325 35.4758 33.6698 37.2773 32.8503 38.8647L37.2528 42.0418C38.4736 42.9227 38.749 44.6265 37.8681 45.8473C36.9871 47.0681 35.2833 47.3435 34.0626 46.4626L29.2622 42.9984Z" fill="#66D5F8"/>
</svg>
