<svg width="42" height="42" viewBox="0 0 42 42" fill="none" xmlns="http://www.w3.org/2000/svg">
<path d="M21 42C9.41037 42 0 32.5896 0 21C0 9.41038 9.41037 0 21 0C32.5896 0 42 9.41038 42 21C42 32.5896 32.5896 42 21 42ZM21 2.37736C10.7972 2.37736 2.47641 10.6981 2.47641 20.9009C2.47641 31.1038 10.7972 39.4245 21 39.4245C31.2028 39.4245 39.5236 31.1038 39.5236 20.9009C39.5236 10.6981 31.2028 2.37736 21 2.37736Z" fill="#6172A3"/>
<path d="M21 42C9.41037 42 0 32.5896 0 21C0 9.41038 9.41037 0 21 0C32.5896 0 42 9.41038 42 21C42 32.5896 32.5896 42 21 42ZM21 2.37736C10.7972 2.37736 2.47641 10.6981 2.47641 20.9009C2.47641 31.1038 10.7972 39.4245 21 39.4245C31.2028 39.4245 39.5236 31.1038 39.5236 20.9009C39.5236 10.6981 31.2028 2.37736 21 2.37736Z" fill="#043266"/>
<path d="M20.8019 31.0045C22.4432 31.0045 23.7737 29.674 23.7737 28.0328C23.7737 26.3916 22.4432 25.0611 20.8019 25.0611C19.1607 25.0611 17.8302 26.3916 17.8302 28.0328C17.8302 29.674 19.1607 31.0045 20.8019 31.0045Z" fill="#6172A3"/>
<path d="M20.8019 31.0045C22.4432 31.0045 23.7737 29.674 23.7737 28.0328C23.7737 26.3916 22.4432 25.0611 20.8019 25.0611C19.1607 25.0611 17.8302 26.3916 17.8302 28.0328C17.8302 29.674 19.1607 31.0045 20.8019 31.0045Z" fill="#043266"/>
<path d="M26.2501 24.5664C25.9529 24.5664 25.6557 24.4674 25.4576 24.1702C24.2689 22.8825 22.585 22.09 20.901 22.09C19.3161 22.09 17.7312 22.6843 16.6416 23.873C16.2453 24.2692 15.5519 24.2692 15.1557 23.873C14.7595 23.4768 14.7595 22.7834 15.1557 22.3872C16.7406 20.9013 18.7218 20.0098 20.901 20.0098C23.2784 20.0098 25.5567 21.0004 27.0425 22.7834C27.4387 23.1796 27.4387 23.873 26.9435 24.2692C26.7453 24.4674 26.4482 24.5664 26.2501 24.5664Z" fill="#6172A3"/>
<path d="M26.2501 24.5664C25.9529 24.5664 25.6557 24.4674 25.4576 24.1702C24.2689 22.8825 22.585 22.09 20.901 22.09C19.3161 22.09 17.7312 22.6843 16.6416 23.873C16.2453 24.2692 15.5519 24.2692 15.1557 23.873C14.7595 23.4768 14.7595 22.7834 15.1557 22.3872C16.7406 20.9013 18.7218 20.0098 20.901 20.0098C23.2784 20.0098 25.5567 21.0004 27.0425 22.7834C27.4387 23.1796 27.4387 23.873 26.9435 24.2692C26.7453 24.4674 26.4482 24.5664 26.2501 24.5664Z" fill="#043266"/>
<path d="M29.0237 21.6931C28.7265 21.6931 28.4293 21.594 28.2312 21.3959C26.2501 19.3157 23.6746 18.127 20.8019 18.127C18.1274 18.127 15.5519 19.1176 13.6699 20.9997C13.2736 21.3959 12.5802 21.3959 12.184 20.9997C11.7878 20.6034 11.7878 19.91 12.184 19.5138C14.4623 17.2355 17.5331 15.9478 20.8019 15.9478C24.1699 15.9478 27.4387 17.3346 29.8161 19.91C30.2123 20.3063 30.2123 20.9997 29.717 21.3959C29.5189 21.6931 29.3208 21.6931 29.0237 21.6931Z" fill="#6172A3"/>
<path d="M29.0237 21.6931C28.7265 21.6931 28.4293 21.594 28.2312 21.3959C26.2501 19.3157 23.6746 18.127 20.8019 18.127C18.1274 18.127 15.5519 19.1176 13.6699 20.9997C13.2736 21.3959 12.5802 21.3959 12.184 20.9997C11.7878 20.6034 11.7878 19.91 12.184 19.5138C14.4623 17.2355 17.5331 15.9478 20.8019 15.9478C24.1699 15.9478 27.4387 17.3346 29.8161 19.91C30.2123 20.3063 30.2123 20.9997 29.717 21.3959C29.5189 21.6931 29.3208 21.6931 29.0237 21.6931Z" fill="#043266"/>
<path d="M32.0944 18.7217C31.7972 18.7217 31.5 18.6226 31.3019 18.4245C28.5283 15.5519 24.8632 13.967 20.8019 13.967C17.0378 13.967 13.3727 15.4528 10.6981 18.1273C10.3019 18.5236 9.60853 18.5236 9.2123 18.1273C8.81607 17.7311 8.81607 17.0377 9.2123 16.6415C12.3821 13.5707 16.4434 11.8868 20.8019 11.8868C25.3585 11.8868 29.6179 13.6698 32.7877 17.0377C33.184 17.4339 33.184 18.1273 32.7877 18.5236C32.5896 18.6226 32.2925 18.7217 32.0944 18.7217Z" fill="#6172A3"/>
<path d="M32.0944 18.7217C31.7972 18.7217 31.5 18.6226 31.3019 18.4245C28.5283 15.5519 24.8632 13.967 20.8019 13.967C17.0378 13.967 13.3727 15.4528 10.6981 18.1273C10.3019 18.5236 9.60853 18.5236 9.2123 18.1273C8.81607 17.7311 8.81607 17.0377 9.2123 16.6415C12.3821 13.5707 16.4434 11.8868 20.8019 11.8868C25.3585 11.8868 29.6179 13.6698 32.7877 17.0377C33.184 17.4339 33.184 18.1273 32.7877 18.5236C32.5896 18.6226 32.2925 18.7217 32.0944 18.7217Z" fill="#043266"/>
</svg>
