<svg width="42" height="42" viewBox="0 0 42 42" fill="none" xmlns="http://www.w3.org/2000/svg">
<path d="M21 0C9.48387 0 0 9.3871 0 21C0 32.5161 9.38709 42 21 42C32.5161 42 42 32.6129 42 21C42 9.3871 32.5161 0 21 0ZM21 39.4839C10.8387 39.4839 2.51613 31.1613 2.51613 21C2.51613 10.8387 10.8387 2.51613 21 2.51613C31.1613 2.51613 39.4839 10.8387 39.4839 21C39.4839 31.1613 31.1613 39.4839 21 39.4839Z" fill="#6172A3"/>
<path d="M21 0C9.48387 0 0 9.3871 0 21C0 32.5161 9.38709 42 21 42C32.5161 42 42 32.6129 42 21C42 9.3871 32.5161 0 21 0ZM21 39.4839C10.8387 39.4839 2.51613 31.1613 2.51613 21C2.51613 10.8387 10.8387 2.51613 21 2.51613C31.1613 2.51613 39.4839 10.8387 39.4839 21C39.4839 31.1613 31.1613 39.4839 21 39.4839Z" fill="#043266"/>
<path d="M20.9999 7.16071C13.3547 7.16071 7.16119 13.3543 7.16119 20.9994C7.16119 28.6446 13.3547 34.8381 20.9999 34.8381C28.6451 34.8381 34.8386 28.6446 34.8386 20.9994C34.8386 13.3543 28.6451 7.16071 20.9999 7.16071ZM29.9999 28.7414L28.7418 27.4833C28.3547 27.0962 27.7741 27.0962 27.387 27.4833C26.9999 27.8704 26.9999 28.451 27.387 28.8381L28.6451 30.0962C26.8063 31.6446 24.4838 32.6123 21.8709 32.8059V31.0639C21.8709 30.5801 21.4838 30.0962 20.9031 30.0962C20.4193 30.0962 19.9354 30.4833 19.9354 31.0639V32.8059C17.4193 32.6123 15.0967 31.5478 13.258 29.9994L14.516 28.7414C14.9031 28.3543 14.9031 27.7736 14.516 27.3865C14.1289 26.9994 13.5483 26.9994 13.1612 27.3865L11.9031 28.6446C10.3547 26.8059 9.29023 24.4833 9.09668 21.9672H10.9354C11.4193 21.9672 11.9031 21.5801 11.9031 20.9994C11.9031 20.5155 11.516 20.0317 10.9354 20.0317H9.09668C9.29023 17.4188 10.258 15.0962 11.9031 13.2575L13.258 14.6123C13.4515 14.8059 13.6451 14.9026 13.9354 14.9026C14.2257 14.9026 14.4193 14.8059 14.6128 14.6123C14.9999 14.2252 14.9999 13.6446 14.6128 13.2575L13.258 11.9026C15.0967 10.2575 17.516 9.28974 20.0322 9.09619V11.0317C20.0322 11.5155 20.4193 11.9994 20.9999 11.9994C21.5805 11.9994 21.9676 11.6123 21.9676 11.0317V9.09619C24.5805 9.28974 26.9031 10.3543 28.8386 11.9026L27.4838 13.2575C27.0967 13.6446 27.0967 14.2252 27.4838 14.6123C27.6773 14.8059 27.8709 14.9026 28.1612 14.9026C28.4515 14.9026 28.6451 14.8059 28.8386 14.6123L30.1934 13.2575C31.7418 15.0962 32.8063 17.5155 32.9999 20.1285H31.0644C30.5805 20.1285 30.0967 20.5155 30.0967 21.0962C30.0967 21.5801 30.4838 22.0639 31.0644 22.0639H32.9031C32.6128 24.5801 31.5483 26.9026 29.9999 28.7414Z" fill="#6172A3"/>
<path d="M20.9999 7.16071C13.3547 7.16071 7.16119 13.3543 7.16119 20.9994C7.16119 28.6446 13.3547 34.8381 20.9999 34.8381C28.6451 34.8381 34.8386 28.6446 34.8386 20.9994C34.8386 13.3543 28.6451 7.16071 20.9999 7.16071ZM29.9999 28.7414L28.7418 27.4833C28.3547 27.0962 27.7741 27.0962 27.387 27.4833C26.9999 27.8704 26.9999 28.451 27.387 28.8381L28.6451 30.0962C26.8063 31.6446 24.4838 32.6123 21.8709 32.8059V31.0639C21.8709 30.5801 21.4838 30.0962 20.9031 30.0962C20.4193 30.0962 19.9354 30.4833 19.9354 31.0639V32.8059C17.4193 32.6123 15.0967 31.5478 13.258 29.9994L14.516 28.7414C14.9031 28.3543 14.9031 27.7736 14.516 27.3865C14.1289 26.9994 13.5483 26.9994 13.1612 27.3865L11.9031 28.6446C10.3547 26.8059 9.29023 24.4833 9.09668 21.9672H10.9354C11.4193 21.9672 11.9031 21.5801 11.9031 20.9994C11.9031 20.5155 11.516 20.0317 10.9354 20.0317H9.09668C9.29023 17.4188 10.258 15.0962 11.9031 13.2575L13.258 14.6123C13.4515 14.8059 13.6451 14.9026 13.9354 14.9026C14.2257 14.9026 14.4193 14.8059 14.6128 14.6123C14.9999 14.2252 14.9999 13.6446 14.6128 13.2575L13.258 11.9026C15.0967 10.2575 17.516 9.28974 20.0322 9.09619V11.0317C20.0322 11.5155 20.4193 11.9994 20.9999 11.9994C21.5805 11.9994 21.9676 11.6123 21.9676 11.0317V9.09619C24.5805 9.28974 26.9031 10.3543 28.8386 11.9026L27.4838 13.2575C27.0967 13.6446 27.0967 14.2252 27.4838 14.6123C27.6773 14.8059 27.8709 14.9026 28.1612 14.9026C28.4515 14.9026 28.6451 14.8059 28.8386 14.6123L30.1934 13.2575C31.7418 15.0962 32.8063 17.5155 32.9999 20.1285H31.0644C30.5805 20.1285 30.0967 20.5155 30.0967 21.0962C30.0967 21.5801 30.4838 22.0639 31.0644 22.0639H32.9031C32.6128 24.5801 31.5483 26.9026 29.9999 28.7414Z" fill="#043266"/>
<path d="M21.9678 21.1922V15.9664C21.9678 15.4825 21.5807 14.9987 21 14.9987C20.4194 14.9987 20.0323 15.3858 20.0323 15.9664V21.4825C20.0323 21.4825 20.0323 21.4825 20.0323 21.5793C20.0323 21.7728 20.129 21.9664 20.3226 22.1599L22.0645 24.8696C22.2581 25.1599 22.5484 25.3535 22.8387 25.3535C23.0323 25.3535 23.2258 25.3535 23.3226 25.2567C23.8065 24.9664 23.9032 24.3857 23.6129 23.9986L21.9678 21.1922Z" fill="#6172A3"/>
<path d="M21.9678 21.1922V15.9664C21.9678 15.4825 21.5807 14.9987 21 14.9987C20.4194 14.9987 20.0323 15.3858 20.0323 15.9664V21.4825C20.0323 21.4825 20.0323 21.4825 20.0323 21.5793C20.0323 21.7728 20.129 21.9664 20.3226 22.1599L22.0645 24.8696C22.2581 25.1599 22.5484 25.3535 22.8387 25.3535C23.0323 25.3535 23.2258 25.3535 23.3226 25.2567C23.8065 24.9664 23.9032 24.3857 23.6129 23.9986L21.9678 21.1922Z" fill="#043266"/>
</svg>
