<svg width="65" height="64" viewBox="0 0 65 64" fill="none" xmlns="http://www.w3.org/2000/svg">
<rect x="0.891602" width="64" height="64" rx="32" fill="white"/>
<path opacity="0.25" fill-rule="evenodd" clip-rule="evenodd" d="M33.4997 36.5093C39.9614 36.5093 45.1997 31.271 45.1997 24.8093C45.1997 18.3476 39.9614 13.1094 33.4997 13.1094C27.038 13.1094 21.7998 18.3476 21.7998 24.8093C21.7998 31.271 27.038 36.5093 33.4997 36.5093Z" fill="#6174D7"/>
<path opacity="0.5" fill-rule="evenodd" clip-rule="evenodd" d="M25.6999 52.1108C32.1616 52.1108 37.3999 46.8726 37.3999 40.4109C37.3999 33.9492 32.1616 28.7109 25.6999 28.7109C19.2382 28.7109 14 33.9492 14 40.4109C14 46.8726 19.2382 52.1108 25.6999 52.1108Z" fill="#6174D7"/>
<path opacity="0.75" fill-rule="evenodd" clip-rule="evenodd" d="M41.3005 52.1108C47.7622 52.1108 53.0005 46.8726 53.0005 40.4109C53.0005 33.9492 47.7622 28.7109 41.3005 28.7109C34.8388 28.7109 29.6006 33.9492 29.6006 40.4109C29.6006 46.8726 34.8388 52.1108 41.3005 52.1108Z" fill="#6174D7"/>
</svg>
