<svg width="42" height="42" viewBox="0 0 42 42" fill="none" xmlns="http://www.w3.org/2000/svg">
<path d="M20.9998 32.986C15.1554 29.3209 11.5894 22.7832 11.5894 15.9483V13.7691L20.9998 11.0945L30.4102 13.7691V15.9483C30.4102 22.8823 26.8441 29.3209 20.9998 32.986Z" fill="#6172A3"/>
<path d="M20.9998 32.986C15.1554 29.3209 11.5894 22.7832 11.5894 15.9483V13.7691L20.9998 11.0945L30.4102 13.7691V15.9483C30.4102 22.8823 26.8441 29.3209 20.9998 32.986Z" fill="#043266"/>
<path d="M21 42C9.41038 42 0 32.5896 0 21C0 9.41038 9.41038 0 21 0C32.5896 0 42 9.41038 42 21C42 32.5896 32.5896 42 21 42ZM21 2.47642C10.7972 2.47642 2.47642 10.7972 2.47642 21C2.47642 31.2028 10.7972 39.5236 21 39.5236C31.2028 39.5236 39.5236 31.2028 39.5236 21C39.5236 10.7972 31.2028 2.47642 21 2.47642Z" fill="#6172A3"/>
<path d="M21 42C9.41038 42 0 32.5896 0 21C0 9.41038 9.41038 0 21 0C32.5896 0 42 9.41038 42 21C42 32.5896 32.5896 42 21 42ZM21 2.47642C10.7972 2.47642 2.47642 10.7972 2.47642 21C2.47642 31.2028 10.7972 39.5236 21 39.5236C31.2028 39.5236 39.5236 31.2028 39.5236 21C39.5236 10.7972 31.2028 2.47642 21 2.47642Z" fill="#043266"/>
</svg>
