<svg width="42" height="42" viewBox="0 0 42 42" fill="none" xmlns="http://www.w3.org/2000/svg">
<path d="M24.2687 25.1012V23.52H25.1602V21.9388H24.2687V21.0494H25.1602V19.4682H24.2687V18.5788H25.1602V16.9976H24.2687V16.1082H25.1602V14.527H24.2687V13.6376H25.1602V12.0564H24.2687V11.167H25.1602V9.58586H24.2687V9.19056C24.2687 7.41174 22.7828 5.92938 20.9998 5.92938C20.1083 5.92938 19.3158 6.32468 18.7215 6.91762C18.1272 7.51056 17.7309 8.30115 17.7309 9.19056V25.2988C15.9479 26.4847 14.7592 28.6588 15.1555 31.0306C15.5517 33.6988 17.7309 35.7741 20.3064 36.0706C23.8724 36.4659 26.8441 33.6988 26.8441 30.24C26.9432 27.9671 25.8536 26.1882 24.2687 25.1012ZM24.4668 33.5012C23.5753 34.3906 22.2875 34.8847 20.9998 34.8847C20.8017 34.8847 20.6036 34.8847 20.4055 34.8847C18.2262 34.5882 16.4432 32.9082 16.146 30.7341C15.8488 28.8565 16.7404 26.9788 18.3253 25.9906L18.8205 25.6941V9.09174C18.8205 7.80703 19.8111 6.8188 21.0989 6.8188C22.3866 6.8188 23.3772 7.80703 23.3772 9.09174V25.6941L23.8724 25.9906C25.2592 26.88 26.0517 28.4612 26.0517 30.0424C25.9526 31.3271 25.3583 32.6118 24.4668 33.5012Z" fill="#6172A3"/>
<path d="M24.2687 25.1012V23.52H25.1602V21.9388H24.2687V21.0494H25.1602V19.4682H24.2687V18.5788H25.1602V16.9976H24.2687V16.1082H25.1602V14.527H24.2687V13.6376H25.1602V12.0564H24.2687V11.167H25.1602V9.58586H24.2687V9.19056C24.2687 7.41174 22.7828 5.92938 20.9998 5.92938C20.1083 5.92938 19.3158 6.32468 18.7215 6.91762C18.1272 7.51056 17.7309 8.30115 17.7309 9.19056V25.2988C15.9479 26.4847 14.7592 28.6588 15.1555 31.0306C15.5517 33.6988 17.7309 35.7741 20.3064 36.0706C23.8724 36.4659 26.8441 33.6988 26.8441 30.24C26.9432 27.9671 25.8536 26.1882 24.2687 25.1012ZM24.4668 33.5012C23.5753 34.3906 22.2875 34.8847 20.9998 34.8847C20.8017 34.8847 20.6036 34.8847 20.4055 34.8847C18.2262 34.5882 16.4432 32.9082 16.146 30.7341C15.8488 28.8565 16.7404 26.9788 18.3253 25.9906L18.8205 25.6941V9.09174C18.8205 7.80703 19.8111 6.8188 21.0989 6.8188C22.3866 6.8188 23.3772 7.80703 23.3772 9.09174V25.6941L23.8724 25.9906C25.2592 26.88 26.0517 28.4612 26.0517 30.0424C25.9526 31.3271 25.3583 32.6118 24.4668 33.5012Z" fill="#043266"/>
<path d="M23.3771 26.5828L22.5847 26.0887V9.09108C22.5847 8.20167 21.8913 7.5099 20.9998 7.5099C20.1082 7.5099 19.4149 8.20167 19.4149 9.09108V26.0887L18.6224 26.5828C17.2356 27.4722 16.5422 29.0534 16.7403 30.7334C17.0375 32.611 18.5233 34.0934 20.4054 34.291C20.6035 34.291 20.7026 34.291 20.9007 34.291C21.9903 34.291 23.0799 33.8957 23.8724 33.1052C24.6648 32.3146 25.0611 31.2275 25.0611 30.1405C25.2592 28.6581 24.5658 27.2746 23.3771 26.5828Z" fill="#6172A3"/>
<path d="M23.3771 26.5828L22.5847 26.0887V9.09108C22.5847 8.20167 21.8913 7.5099 20.9998 7.5099C20.1082 7.5099 19.4149 8.20167 19.4149 9.09108V26.0887L18.6224 26.5828C17.2356 27.4722 16.5422 29.0534 16.7403 30.7334C17.0375 32.611 18.5233 34.0934 20.4054 34.291C20.6035 34.291 20.7026 34.291 20.9007 34.291C21.9903 34.291 23.0799 33.8957 23.8724 33.1052C24.6648 32.3146 25.0611 31.2275 25.0611 30.1405C25.2592 28.6581 24.5658 27.2746 23.3771 26.5828Z" fill="#043266"/>
<path d="M21 0C9.41038 0 0 9.38823 0 20.9506C0 32.5129 9.41038 42 21 42C32.5896 42 42 32.6118 42 21.0494C42 9.48706 32.5896 0 21 0ZM21 39.5294C10.7972 39.5294 2.47642 31.2282 2.47642 21.0494C2.47642 10.7718 10.7972 2.47059 21 2.47059C31.2028 2.47059 39.6226 10.7718 39.6226 20.9506C39.6226 31.2282 31.2028 39.5294 21 39.5294Z" fill="#6172A3"/>
<path d="M21 0C9.41038 0 0 9.38823 0 20.9506C0 32.5129 9.41038 42 21 42C32.5896 42 42 32.6118 42 21.0494C42 9.48706 32.5896 0 21 0ZM21 39.5294C10.7972 39.5294 2.47642 31.2282 2.47642 21.0494C2.47642 10.7718 10.7972 2.47059 21 2.47059C31.2028 2.47059 39.6226 10.7718 39.6226 20.9506C39.6226 31.2282 31.2028 39.5294 21 39.5294Z" fill="#043266"/>
</svg>
