<svg width="42" height="42" viewBox="0 0 42 42" fill="none" xmlns="http://www.w3.org/2000/svg">
<path d="M29.9999 15.8706C29.9999 17.7093 29.4193 19.4512 28.3547 20.9028C26.8063 23.1286 25.9354 25.7415 25.9354 28.4512V28.7415H16.8386V28.4512C16.8386 25.6447 15.8709 23.0318 14.3225 20.7093C13.1612 19.0641 12.5805 17.0319 12.8709 14.9028C13.258 10.9351 16.5483 7.74154 20.4193 7.25767C25.6451 6.67703 29.9999 10.7415 29.9999 15.8706Z" fill="#6172A3"/>
<path d="M29.9999 15.8706C29.9999 17.7093 29.4193 19.4512 28.3547 20.9028C26.8063 23.1286 25.9354 25.7415 25.9354 28.4512V28.7415H16.8386V28.4512C16.8386 25.6447 15.8709 23.0318 14.3225 20.7093C13.1612 19.0641 12.5805 17.0319 12.8709 14.9028C13.258 10.9351 16.5483 7.74154 20.4193 7.25767C25.6451 6.67703 29.9999 10.7415 29.9999 15.8706Z" fill="#043266"/>
<path d="M25.1612 29.4189H17.6129V32.0319H25.1612V29.4189Z" fill="#6172A3"/>
<path d="M25.1612 29.4189H17.6129V32.0319H25.1612V29.4189Z" fill="#043266"/>
<path d="M24.0965 32.806H18.7739V34.548H24.0965V32.806Z" fill="#6172A3"/>
<path d="M24.0965 32.806H18.7739V34.548H24.0965V32.806Z" fill="#043266"/>
<path d="M21 42C9.48388 42 0 32.6129 0 21C0 9.48387 9.38711 0 21 0C32.5161 0 42 9.3871 42 21C41.9032 32.6129 32.5161 42 21 42ZM21 2.51613C10.8387 2.51613 2.51614 10.8387 2.51614 21C2.51614 31.1613 10.8387 39.4839 21 39.4839C31.1613 39.4839 39.4839 31.1613 39.4839 21C39.4839 10.8387 31.1613 2.51613 21 2.51613Z" fill="#6172A3"/>
<path d="M21 42C9.48388 42 0 32.6129 0 21C0 9.48387 9.38711 0 21 0C32.5161 0 42 9.3871 42 21C41.9032 32.6129 32.5161 42 21 42ZM21 2.51613C10.8387 2.51613 2.51614 10.8387 2.51614 21C2.51614 31.1613 10.8387 39.4839 21 39.4839C31.1613 39.4839 39.4839 31.1613 39.4839 21C39.4839 10.8387 31.1613 2.51613 21 2.51613Z" fill="#043266"/>
</svg>
