<svg width="24" height="24" viewBox="0 0 24 24" fill="none" xmlns="http://www.w3.org/2000/svg">
<path d="M24 12C24 18.6274 18.6274 24 12 24C5.37258 24 0 18.6274 0 12C0 5.37258 5.37258 0 12 0C18.6274 0 24 5.37258 24 12Z" fill="white"/>
<path d="M11.9961 19C10.0838 19 9.85841 18.9899 9.11216 18.9573C8.53022 18.9382 7.95581 18.8201 7.41366 18.608C6.47564 18.2435 5.73392 17.5026 5.36924 16.5658C5.16504 16.0224 5.05489 15.4484 5.04353 14.8682C5 14.1245 5 13.8808 5 11.986C5 10.0711 5.01011 9.84753 5.04353 9.10623C5.05514 8.5268 5.16528 7.95354 5.36924 7.41096C5.73353 6.47291 6.47645 5.73134 7.41599 5.36793C7.95908 5.16316 8.53331 5.0529 9.11371 5.04192C9.85608 5 10.1002 5 11.9961 5C13.9239 5 14.1455 5.01009 14.8801 5.04192C15.462 5.05299 16.0377 5.16325 16.5825 5.36793C17.5217 5.73175 18.2645 6.47318 18.6292 7.41096C18.8369 7.96145 18.9476 8.54366 18.9565 9.13185C19 9.87547 19 10.1184 19 12.0124C19 13.9064 18.9891 14.1548 18.9565 14.8899C18.9449 15.4707 18.8345 16.0452 18.63 16.589C18.2644 17.5265 17.5215 18.2677 16.5825 18.6321C16.0385 18.8356 15.4639 18.9456 14.8832 18.9573C14.1408 19 13.8975 19 11.9961 19ZM11.9697 6.22876C10.0683 6.22876 9.87085 6.23808 9.12848 6.27146C8.68538 6.27732 8.24657 6.35897 7.83109 6.51286C7.21758 6.74729 6.7321 7.23009 6.49484 7.84176C6.33953 8.26115 6.25775 8.70413 6.25308 9.15125C6.21188 9.90342 6.21188 10.1006 6.21188 11.986C6.21188 13.849 6.21888 14.0748 6.25308 14.8224C6.26004 15.265 6.34177 15.7032 6.49484 16.1187C6.73245 16.7299 7.21784 17.2124 7.83109 17.4468C8.24629 17.6017 8.68528 17.6834 9.12848 17.6882C9.88096 17.7316 10.0792 17.7316 11.9697 17.7316C13.8765 17.7316 14.074 17.7223 14.8101 17.6882C15.2535 17.6828 15.6927 17.6011 16.1083 17.4468C16.7181 17.2103 17.2004 16.729 17.4375 16.1202C17.5925 15.7005 17.6743 15.2573 17.6793 14.8099H17.6878C17.7213 14.0679 17.7213 13.8699 17.7213 11.9736C17.7213 10.0773 17.7127 9.8778 17.6793 9.1365C17.6723 8.69441 17.5906 8.25666 17.4375 7.84176C17.2009 7.23209 16.7185 6.74984 16.1083 6.51286C15.6927 6.35819 15.2535 6.27652 14.8101 6.27146C14.0584 6.22876 13.8617 6.22876 11.9697 6.22876ZM11.9961 15.5714C10.5425 15.5724 9.23142 14.6987 8.67441 13.358C8.11739 12.0172 8.42414 10.4734 9.45157 9.44658C10.479 8.41973 12.0248 8.1121 13.3679 8.66715C14.7111 9.22219 15.5871 10.5306 15.5875 11.9821C15.5853 13.9623 13.9792 15.5676 11.9961 15.5714ZM11.9961 9.65192C10.7082 9.65192 9.66408 10.6945 9.66408 11.9806C9.66408 13.2667 10.7082 14.3093 11.9961 14.3093C13.2841 14.3093 14.3282 13.2667 14.3282 11.9806C14.3252 10.6957 13.2828 9.65491 11.9961 9.65192ZM15.7274 9.09847C15.2652 9.09676 14.8917 8.72168 14.8925 8.26015C14.8934 7.79862 15.2683 7.42493 15.7305 7.42493C16.1927 7.42493 16.5676 7.79862 16.5685 8.26015C16.5687 8.48282 16.4801 8.6964 16.3222 8.85371C16.1644 9.01101 15.9504 9.09909 15.7274 9.09847Z" fill="#043266"/>
</svg>
