<svg width="24" height="24" viewBox="0 0 24 24" fill="none" xmlns="http://www.w3.org/2000/svg">
<path d="M24 12C24 18.6274 18.6274 24 12 24C5.37258 24 0 18.6274 0 12C0 5.37258 5.37258 0 12 0C18.6274 0 24 5.37258 24 12Z" fill="#043266"/>
<path d="M11.9959 18.9999C10.0836 18.9999 9.85817 18.9899 9.11192 18.9572C8.52997 18.9381 7.95556 18.82 7.41342 18.6079C6.4754 18.2434 5.73368 17.5025 5.369 16.5657C5.16479 16.0224 5.05465 15.4483 5.04329 14.8681C4.99976 14.1245 4.99976 13.8807 4.99976 11.986C4.99976 10.071 5.00986 9.84747 5.04329 9.10617C5.0549 8.52674 5.16504 7.95348 5.369 7.4109C5.73328 6.47285 6.47621 5.73128 7.41575 5.36787C7.95884 5.1631 8.53306 5.05283 9.11347 5.04186C9.85584 4.99994 10.0999 4.99994 11.9959 4.99994C13.9237 4.99994 14.1452 5.01003 14.8798 5.04186C15.4617 5.05293 16.0375 5.16319 16.5822 5.36787C17.5215 5.73169 18.2643 6.47312 18.629 7.4109C18.8366 7.96139 18.9473 8.5436 18.9562 9.13179C18.9998 9.87541 18.9998 10.1184 18.9998 12.0124C18.9998 13.9063 18.9889 14.1547 18.9562 14.8898C18.9447 15.4706 18.8343 16.0452 18.6297 16.589C18.2641 17.5264 17.5213 18.2676 16.5822 18.632C16.0383 18.8355 15.4637 18.9455 14.8829 18.9572C14.1406 18.9999 13.8973 18.9999 11.9959 18.9999ZM11.9694 6.2287C10.0681 6.2287 9.87061 6.23802 9.12824 6.2714C8.68514 6.27726 8.24633 6.35891 7.83085 6.5128C7.21733 6.74723 6.73186 7.23003 6.49459 7.8417C6.33929 8.26109 6.25751 8.70407 6.25284 9.15119C6.21164 9.90336 6.21164 10.1005 6.21164 11.986C6.21164 13.8489 6.21863 14.0748 6.25284 14.8223C6.2598 15.2649 6.34153 15.7032 6.49459 16.1186C6.73221 16.7299 7.2176 17.2123 7.83085 17.4467C8.24604 17.6016 8.68504 17.6833 9.12824 17.6881C9.88071 17.7316 10.0789 17.7316 11.9694 17.7316C13.8763 17.7316 14.0737 17.7223 14.8099 17.6881C15.2533 17.6827 15.6924 17.6011 16.108 17.4467C16.7178 17.2103 17.2001 16.7289 17.4373 16.1201C17.5923 15.7004 17.6741 15.2572 17.679 14.8099H17.6876C17.721 14.0678 17.721 13.8699 17.721 11.9735C17.721 10.0772 17.7125 9.87774 17.679 9.13644C17.6721 8.69435 17.5903 8.2566 17.4373 7.8417C17.2007 7.23203 16.7183 6.74978 16.108 6.5128C15.6925 6.35813 15.2533 6.27646 14.8099 6.2714C14.0582 6.2287 13.8615 6.2287 11.9694 6.2287ZM11.9959 15.5714C10.5422 15.5723 9.23118 14.6987 8.67416 13.3579C8.11715 12.0172 8.42389 10.4734 9.45133 9.44652C10.4788 8.41967 12.0245 8.11204 13.3677 8.66709C14.7109 9.22213 15.5869 10.5305 15.5872 11.9821C15.5851 13.9623 13.9789 15.5675 11.9959 15.5714ZM11.9959 9.65186C10.7079 9.65186 9.66383 10.6944 9.66383 11.9805C9.66383 13.2666 10.7079 14.3092 11.9959 14.3092C13.2838 14.3092 14.3279 13.2666 14.3279 11.9805C14.3249 10.6957 13.2826 9.65485 11.9959 9.65186ZM15.7271 9.09841C15.2649 9.0967 14.8914 8.72162 14.8923 8.26009C14.8931 7.79856 15.268 7.42487 15.7302 7.42487C16.1924 7.42487 16.5674 7.79856 16.5682 8.26009C16.5684 8.48276 16.4798 8.69634 16.322 8.85365C16.1642 9.01095 15.9501 9.09903 15.7271 9.09841Z" fill="white"/>
</svg>
