<svg width="179" height="50" viewBox="0 0 179 50" fill="none" xmlns="http://www.w3.org/2000/svg">
<path d="M91.324 36.96C90.6707 37.7253 89.9053 38.304 89.028 38.696C88.1693 39.088 87.2267 39.284 86.2 39.284C84.856 39.284 83.624 38.976 82.504 38.36C81.384 37.7627 80.1053 36.7173 78.668 35.224C76.8573 35.0747 75.2333 34.552 73.796 33.656C72.3587 32.7413 71.2387 31.556 70.436 30.1C69.6333 28.6253 69.232 26.992 69.232 25.2C69.232 23.296 69.6893 21.5787 70.604 20.048C71.5187 18.4987 72.7787 17.2947 74.384 16.436C75.9893 15.5587 77.7907 15.12 79.788 15.12C81.7853 15.12 83.5867 15.5587 85.192 16.436C86.7973 17.2947 88.0573 18.4893 88.972 20.02C89.8867 21.5507 90.344 23.2773 90.344 25.2C90.344 26.7493 90.036 28.1867 89.42 29.512C88.804 30.8187 87.9453 31.9387 86.844 32.872C85.7427 33.7867 84.464 34.4493 83.008 34.86C83.5493 35.4387 84.0813 35.8587 84.604 36.12C85.1267 36.3813 85.6867 36.512 86.284 36.512C87.572 36.512 88.692 35.9893 89.644 34.944L91.324 36.96ZM72.9 25.2C72.9 26.5067 73.1987 27.692 73.796 28.756C74.3933 29.8013 75.2147 30.6227 76.26 31.22C77.3053 31.7987 78.4813 32.088 79.788 32.088C81.0947 32.088 82.2707 31.7987 83.316 31.22C84.3613 30.6227 85.1827 29.8013 85.78 28.756C86.3773 27.692 86.676 26.5067 86.676 25.2C86.676 23.8933 86.3773 22.7173 85.78 21.672C85.1827 20.608 84.3613 19.7867 83.316 19.208C82.2707 18.6107 81.0947 18.312 79.788 18.312C78.4813 18.312 77.3053 18.6107 76.26 19.208C75.2147 19.7867 74.3933 20.608 73.796 21.672C73.1987 22.7173 72.9 23.8933 72.9 25.2ZM108.342 20.048V35H105.01V33.096C104.45 33.768 103.75 34.2907 102.91 34.664C102.07 35.0187 101.165 35.196 100.194 35.196C98.197 35.196 96.6196 34.6453 95.4623 33.544C94.3236 32.424 93.7543 30.772 93.7543 28.588V20.048H97.2543V28.112C97.2543 29.456 97.553 30.464 98.1503 31.136C98.7663 31.7893 99.6343 32.116 100.754 32.116C102.005 32.116 102.994 31.7333 103.722 30.968C104.469 30.184 104.842 29.064 104.842 27.608V20.048H108.342ZM126.981 27.608C126.981 27.8507 126.962 28.196 126.925 28.644H115.193C115.398 29.7453 115.93 30.6227 116.789 31.276C117.666 31.9107 118.749 32.228 120.037 32.228C121.68 32.228 123.033 31.6867 124.097 30.604L125.973 32.76C125.301 33.5627 124.452 34.1693 123.425 34.58C122.398 34.9907 121.241 35.196 119.953 35.196C118.31 35.196 116.864 34.8693 115.613 34.216C114.362 33.5627 113.392 32.6573 112.701 31.5C112.029 30.324 111.693 28.9987 111.693 27.524C111.693 26.068 112.02 24.7613 112.673 23.604C113.345 22.428 114.269 21.5133 115.445 20.86C116.621 20.2067 117.946 19.88 119.421 19.88C120.877 19.88 122.174 20.2067 123.313 20.86C124.47 21.4947 125.366 22.4 126.001 23.576C126.654 24.7333 126.981 26.0773 126.981 27.608ZM119.421 22.68C118.301 22.68 117.349 23.016 116.565 23.688C115.8 24.3413 115.333 25.2187 115.165 26.32H123.649C123.5 25.2373 123.042 24.36 122.277 23.688C121.512 23.016 120.56 22.68 119.421 22.68ZM144.399 27.608C144.399 27.8507 144.38 28.196 144.343 28.644H132.611C132.816 29.7453 133.348 30.6227 134.207 31.276C135.084 31.9107 136.167 32.228 137.455 32.228C139.098 32.228 140.451 31.6867 141.515 30.604L143.391 32.76C142.719 33.5627 141.87 34.1693 140.843 34.58C139.816 34.9907 138.659 35.196 137.371 35.196C135.728 35.196 134.282 34.8693 133.031 34.216C131.78 33.5627 130.81 32.6573 130.119 31.5C129.447 30.324 129.111 28.9987 129.111 27.524C129.111 26.068 129.438 24.7613 130.091 23.604C130.763 22.428 131.687 21.5133 132.863 20.86C134.039 20.2067 135.364 19.88 136.839 19.88C138.295 19.88 139.592 20.2067 140.731 20.86C141.888 21.4947 142.784 22.4 143.419 23.576C144.072 24.7333 144.399 26.0773 144.399 27.608ZM136.839 22.68C135.719 22.68 134.767 23.016 133.983 23.688C133.218 24.3413 132.751 25.2187 132.583 26.32H141.067C140.918 25.2373 140.46 24.36 139.695 23.688C138.93 23.016 137.978 22.68 136.839 22.68ZM162.405 14.224V35H159.045V33.068C158.466 33.7773 157.748 34.3093 156.889 34.664C156.049 35.0187 155.116 35.196 154.089 35.196C152.652 35.196 151.354 34.8787 150.197 34.244C149.058 33.6093 148.162 32.7133 147.509 31.556C146.856 30.38 146.529 29.036 146.529 27.524C146.529 26.012 146.856 24.6773 147.509 23.52C148.162 22.3627 149.058 21.4667 150.197 20.832C151.354 20.1973 152.652 19.88 154.089 19.88C155.078 19.88 155.984 20.048 156.805 20.384C157.626 20.72 158.326 21.224 158.905 21.896V14.224H162.405ZM154.509 32.2C155.349 32.2 156.105 32.0133 156.777 31.64C157.449 31.248 157.981 30.6973 158.373 29.988C158.765 29.2787 158.961 28.4573 158.961 27.524C158.961 26.5907 158.765 25.7693 158.373 25.06C157.981 24.3507 157.449 23.8093 156.777 23.436C156.105 23.044 155.349 22.848 154.509 22.848C153.669 22.848 152.913 23.044 152.241 23.436C151.569 23.8093 151.037 24.3507 150.645 25.06C150.253 25.7693 150.057 26.5907 150.057 27.524C150.057 28.4573 150.253 29.2787 150.645 29.988C151.037 30.6973 151.569 31.248 152.241 31.64C152.913 32.0133 153.669 32.2 154.509 32.2Z" fill="#043266"/>
<path d="M36.143 10.3848L39.3779 13.5104L41.1317 15.1122L50 23.27L41.7019 23.3997V42.0434V43.5673H40.2517H26.4877L16.4233 50.0002L34.0669 25.8704L26.1406 22.9263L36.143 10.3848Z" fill="#043266"/>
<path d="M25.9815 0.872096L29.3487 3.95046L31.1556 5.59052L40.511 0.937178L15.5655 27.9265L23.3544 31.0374L17.4649 43.4615H9.85485H8.39944V41.9321V23.2211H0L24.0883 0.872096L25.0318 0L25.9815 0.872096Z" fill="#043266"/>
</svg>
