<svg width="822" height="690" viewBox="0 0 822 690" fill="none" xmlns="http://www.w3.org/2000/svg">
<line x1="371.802" y1="319.847" x2="520.802" y2="126.847" stroke="#99B4FB" stroke-width="0.5" stroke-dasharray="2 2"/>
<circle cx="523.5" cy="118.5" r="8" stroke="#1CDF8C" stroke-dasharray="2 2"/>
<line x1="366.98" y1="326.176" x2="96.052" y2="114.878" stroke="#99B4FB" stroke-width="0.5" stroke-dasharray="2 2"/>
<circle cx="88.6171" cy="108.284" r="8" transform="rotate(-90.7872 88.6171 108.284)" stroke="#1CDF8C" stroke-dasharray="2 2"/>
<line x1="366.666" y1="333.471" x2="66.0699" y2="499.876" stroke="#99B4FB" stroke-width="0.5" stroke-dasharray="2 2"/>
<circle cx="57.0898" cy="504.131" r="8" transform="rotate(-157.706 57.0898 504.131)" stroke="#1CDF8C" stroke-dasharray="2 2"/>
<line x1="371.811" y1="330.752" x2="38.9115" y2="580.694" stroke="#99B4FB" stroke-width="0.5" stroke-dasharray="2 2"/>
<circle cx="31.3904" cy="586.158" r="8" transform="rotate(-165.193 31.3904 586.158)" stroke="#E1FFF2" stroke-dasharray="2 2"/>
<line x1="361.853" y1="329.922" x2="697.741" y2="84.012" stroke="#99B4FB" stroke-width="0.5" stroke-dasharray="2 2"/>
<circle cx="705.327" cy="78.6386" r="8" transform="rotate(15.4981 705.327 78.6386)" stroke="#E1FFF2" stroke-dasharray="2 2"/>
<line x1="384.981" y1="325.408" x2="799.992" y2="292.874" stroke="#99B4FB" stroke-width="0.5" stroke-dasharray="2 2"/>
<circle cx="809.271" cy="292.293" r="8" transform="rotate(47.2242 809.271 292.293)" stroke="#E1FFF2" stroke-dasharray="2 2"/>
<line x1="371.749" y1="332.942" x2="450.747" y2="667.32" stroke="#99B4FB" stroke-width="0.5" stroke-dasharray="2 2"/>
<circle cx="452.416" cy="677.116" r="8" transform="rotate(127.97 452.416 677.116)" stroke="#1CDF8C" stroke-dasharray="2 2"/>
<line x1="372.424" y1="338.819" x2="593.169" y2="549.819" stroke="#99B4FB" stroke-width="0.5" stroke-dasharray="2 2"/>
<circle cx="601.215" cy="558.216" r="8" transform="rotate(95.0521 601.215 558.216)" stroke="#1CDF8C" stroke-dasharray="2 2"/>
<line x1="371.036" y1="330.031" x2="711.101" y2="379.07" stroke="#99B4FB" stroke-width="0.5" stroke-dasharray="2 2"/>
<circle cx="720.828" cy="381.106" r="8" transform="rotate(59.4678 720.828 381.106)" stroke="#1CDF8C" stroke-dasharray="2 2"/>
<line x1="361.055" y1="326.148" x2="21.3318" y2="274.792" stroke="#99B4FB" stroke-width="0.5" stroke-dasharray="2 2"/>
<circle cx="11.6189" cy="272.691" r="8" transform="rotate(-120.142 11.6189 272.691)" stroke="#1CDF8C" stroke-dasharray="2 2"/>
<line x1="360.86" y1="332.713" x2="520.859" y2="223.793" stroke="#99B4FB" stroke-width="0.5" stroke-dasharray="2 2"/>
<circle cx="530.814" cy="216.814" r="8" transform="rotate(9.72416 530.814 216.814)" stroke="#1CDF8C" stroke-dasharray="2 2"/>
<line x1="376.076" y1="332.942" x2="560.568" y2="391.475" stroke="#99B4FB" stroke-width="0.5" stroke-dasharray="2 2"/>
<circle cx="572.205" cy="394.991" r="8" transform="rotate(61.5717 572.205 394.991)" stroke="#1CDF8C" stroke-dasharray="2 2"/>
<line x1="367.662" y1="330.132" x2="265.746" y2="494.681" stroke="#99B4FB" stroke-width="0.5" stroke-dasharray="2 2"/>
<circle cx="259.488" cy="505.104" r="8" transform="rotate(165.742 259.488 505.104)" stroke="#1CDF8C" stroke-dasharray="2 2"/>
<line x1="359.081" y1="335.98" x2="177.542" y2="403.114" stroke="#99B4FB" stroke-width="0.5" stroke-dasharray="2 2"/>
<circle cx="166.198" cy="407.488" r="8" transform="rotate(-156.326 166.198 407.488)" stroke="#1CDF8C" stroke-dasharray="2 2"/>
<line x1="370.624" y1="330.703" x2="193.302" y2="253.11" stroke="#99B4FB" stroke-width="0.5" stroke-dasharray="2 2"/>
<circle cx="182.098" cy="248.391" r="8" transform="rotate(-112.397 182.098 248.391)" stroke="#1CDF8C" stroke-dasharray="2 2"/>
<line x1="371.373" y1="328.128" x2="254.272" y2="174.016" stroke="#99B4FB" stroke-width="0.5" stroke-dasharray="2 2"/>
<circle cx="246.784" cy="164.439" r="8" transform="rotate(-83.2601 246.784 164.439)" stroke="#1CDF8C" stroke-dasharray="2 2"/>
<line x1="370.318" y1="333.286" x2="313.446" y2="205.358" stroke="#99B4FB" stroke-width="0.5" stroke-dasharray="2 2"/>
<circle cx="308.304" cy="196.048" r="8" transform="rotate(-69.9991 308.304 196.048)" stroke="#1CDF8C" stroke-dasharray="2 2"/>
<line x1="365.513" y1="326.436" x2="329.756" y2="164.053" stroke="#99B4FB" stroke-width="0.5" stroke-dasharray="2 2"/>
<circle cx="327.192" cy="157.191" r="5.5" transform="rotate(-60.1252 327.192 157.191)" stroke="#F8F8FF" stroke-dasharray="2 2"/>
<line x1="366.736" y1="328.124" x2="476.172" y2="202.942" stroke="#99B4FB" stroke-width="0.5" stroke-dasharray="2 2"/>
<circle cx="480.172" cy="196.804" r="5.5" transform="rotate(-6.54579 480.172 196.804)" stroke="#F8F8FF" stroke-dasharray="2 2"/>
<line x1="365.995" y1="327.908" x2="532.235" y2="324.588" stroke="#99B4FB" stroke-width="0.5" stroke-dasharray="2 2"/>
<circle cx="539.467" cy="323.415" r="5.5" transform="rotate(41.1492 539.467 323.415)" stroke="#F8F8FF" stroke-dasharray="2 2"/>
<line x1="368.952" y1="330.014" x2="232.132" y2="424.497" stroke="#99B4FB" stroke-width="0.5" stroke-dasharray="2 2"/>
<circle cx="226.747" cy="429.465" r="5.5" transform="rotate(-172.334 226.747 429.465)" stroke="#F8F8FF" stroke-dasharray="2 2"/>
<line x1="365.636" y1="331.407" x2="199.625" y2="340.729" stroke="#99B4FB" stroke-width="0.5" stroke-dasharray="2 2"/>
<circle cx="192.441" cy="342.162" r="5.5" transform="rotate(-140.92 192.441 342.162)" stroke="#F8F8FF" stroke-dasharray="2 2"/>
<line x1="371.048" y1="330.163" x2="236.101" y2="292.89" stroke="#99B4FB" stroke-width="0.5" stroke-dasharray="2 2"/>
<circle cx="225.643" cy="290.952" r="8" transform="rotate(-120.591 225.643 290.952)" stroke="#1CDF8C" stroke-dasharray="2 2"/>
<line x1="371.954" y1="323.836" x2="509.58" y2="298.16" stroke="#99B4FB" stroke-width="0.5" stroke-dasharray="2 2"/>
<circle cx="519.828" cy="295.317" r="8" transform="rotate(33.4014 519.828 295.317)" stroke="#1CDF8C" stroke-dasharray="2 2"/>
<line x1="371.139" y1="331.074" x2="487.584" y2="408.795" stroke="#99B4FB" stroke-width="0.5" stroke-dasharray="2 2"/>
<circle cx="496.906" cy="413.916" r="8" transform="rotate(77.6901 496.906 413.916)" stroke="#1CDF8C" stroke-dasharray="2 2"/>
<line x1="367.167" y1="328.047" x2="340.717" y2="465.526" stroke="#99B4FB" stroke-width="0.5" stroke-dasharray="2 2"/>
<circle cx="339.614" cy="476.104" r="8" transform="rotate(144.859 339.614 476.104)" stroke="#1CDF8C" stroke-dasharray="2 2"/>
<circle cx="366.5" cy="326.5" r="12.5" fill="#C4E0FF"/>
</svg>
